<?xml version="1.0" encoding="utf-8"?>
<!-- Generator: Adobe Illustrator 22.1.0, SVG Export Plug-In . SVG Version: 6.00 Build 0)  -->
<svg version="1.1" id="Layer_1" xmlns="http://www.w3.org/2000/svg" xmlns:xlink="http://www.w3.org/1999/xlink" x="0px" y="0px"
	 viewBox="0 0 366.2 513.9" style="enable-background:new 0 0 366.2 513.9;" xml:space="preserve">
<style type="text/css">
	.st0{fill:#5CDB95;}
	.st1{opacity:0.7;fill:#5CDB95;enable-background:new    ;}
	.st2{fill:#E6EFB1;}
	.st3{fill:none;stroke:#5CDB95;stroke-linecap:round;stroke-linejoin:round;}
	.st4{fill:none;stroke:#2C6B47;stroke-linecap:round;stroke-linejoin:round;}
	.st5{fill:#263238;}
	.st6{opacity:0.7;fill:#1F422D;enable-background:new    ;}
	.st7{fill:#0F4C81;}
	.st8{fill:#2F7F50;enable-background:new    ;}
	.st9{clip-path:url(#SVGID_2_);enable-background:new    ;}
	.st10{opacity:0.13;fill:#225436;enable-background:new    ;}
	.st11{fill:none;stroke:#263238;stroke-linecap:round;stroke-linejoin:round;}
	.st12{fill:#263238;stroke:#263238;stroke-linecap:round;stroke-linejoin:round;}
	.st13{fill:none;stroke:#FFFFFF;stroke-linecap:round;stroke-linejoin:round;}
	.st14{fill:#FFFFFF;}
	.st15{clip-path:url(#SVGID_4_);}
	.st16{clip-path:url(#SVGID_6_);}
	.st17{clip-path:url(#SVGID_8_);}
	.st18{fill:#FFFFFF;stroke:#263238;stroke-linecap:round;stroke-linejoin:round;}
	.st19{clip-path:url(#SVGID_10_);}
	.st20{clip-path:url(#SVGID_12_);}
	.st21{clip-path:url(#SVGID_14_);}
	.st22{opacity:0.53;fill:#FFFFFF;enable-background:new    ;}
	.st23{opacity:0.14;enable-background:new    ;}
	.st24{clip-path:url(#SVGID_16_);}
	.st25{clip-path:url(#SVGID_18_);}
	.st26{clip-path:url(#SVGID_20_);}
	.st27{clip-path:url(#SVGID_22_);}
	.st28{clip-path:url(#SVGID_24_);}
	.st29{clip-path:url(#SVGID_26_);}
	.st30{clip-path:url(#SVGID_28_);}
	.st31{fill:none;stroke:#263238;stroke-width:2;stroke-linecap:round;stroke-linejoin:round;}
	.st32{fill:none;stroke:#FFFFFF;stroke-width:0.75;stroke-linecap:round;stroke-linejoin:round;}
	.st33{clip-path:url(#SVGID_30_);}
	.st34{fill:#5CDB95;stroke:#263238;stroke-linecap:round;stroke-linejoin:round;}
	.st35{fill:#0F7F4F;stroke:#263238;stroke-linecap:round;stroke-linejoin:round;}
</style>
<title>BlogPostBack</title>
<g id="Background_Simple">
	<path class="st0" d="M344.3,407.4c7.5-61.1-28.8-142.2-66.3-175.7c-67.8-60.5-124.1-48.8-167.9-27.1s-50.1,94-80.3,126.7
		s-47.5,76.7-1.6,120.6s82.9,21.6,130.9,18.8s111.6,19.1,146,0.1C329.1,457.4,341,434.4,344.3,407.4z"/>
	<path class="st1" d="M344.3,407.4c7.5-61.1-28.8-142.2-66.3-175.7c-67.8-60.5-124.1-48.8-167.9-27.1s-50.1,94-80.3,126.7
		s-47.5,76.7-1.6,120.6s82.9,21.6,130.9,18.8s111.6,19.1,146,0.1C329.1,457.4,341,434.4,344.3,407.4z"/>
</g>
<g id="Layer_2">
	<polyline class="st2" points="203.4,169.1 205.8,357.3 342.7,382.3 343.3,147 203.4,169.1 	"/>
</g>
<g id="Background">
	<line class="st3" x1="154.4" y1="405.2" x2="154.4" y2="-464"/>
	<polyline class="st4" points="8.2,407.5 150.1,407.5 365.7,477 	"/>
	<path class="st5" d="M72.8,402.2H63V240.1h20.2l-8.7-31.5H48.3l-8.7,31.5h20.2v162.1H50c-5.2,0-9.5,4.2-9.6,9.4v0.1v0.1l0,0
		c0.3,2.3,9.6,4.1,21,4.1s20.7-1.8,21-4.1h0.1C82.5,406.5,78.2,402.2,72.8,402.2C72.9,402.2,72.9,402.2,72.8,402.2z"/>
	<path class="st6" d="M203.4,169.1V360l143.7,23.6V145.5L203.4,169.1z M343.4,223.7l-73,4.1v-66.3l73-11.6V223.7z M270.4,234.9
		l73-3.4v66.7l-73-3.4V234.9z M264.5,294.5l-58.6-2.7v-53.9l58.6-2.7V294.5z M264.5,162.5v65.7l-58.6,3.3v-59.7L264.5,162.5z
		 M205.8,298.1l58.6,3.4v65.1l-58.6-9.3L205.8,298.1z M270.3,367.5v-65.8l73,4.2V379L270.3,367.5z"/>
</g>
<g id="Character">
	<ellipse class="st7" cx="153.9" cy="464.4" rx="114.9" ry="35.8"/>
	<ellipse class="st1" cx="153.9" cy="464.4" rx="114.9" ry="35.8"/>
	<path id="_Clipping_Path_16" class="st8" d="M144.1,306.5c0,0-26-3.1-43.2,10.3S69,386,69.4,412.8s10.3,40.1,35.3,51.1
		s71.6,6.9,97.7-1.4c26.1-8.2,34.6-37,34.3-52.5s-17.5-33.2-23.3-37s-22.3-11.7-30.5-24S162.6,309.9,144.1,306.5z"/>
	<g>
		<g>
			<defs>
				<path id="SVGID_1_" d="M144.1,306.5c0,0-26-3.1-43.2,10.3S69,386,69.4,412.8s10.3,40.1,35.3,51.1s71.6,6.9,97.7-1.4
					c26.1-8.2,34.6-37,34.3-52.5s-17.5-33.2-23.3-37s-22.3-11.7-30.5-24S162.6,309.9,144.1,306.5z"/>
			</defs>
			<clipPath id="SVGID_2_">
				<use xlink:href="#SVGID_1_"  style="overflow:visible;"/>
			</clipPath>
			<g class="st9">
				<path class="st10" d="M207.2,460.6c-9.9-1.3-21.5-4-30.4-9.4c-18.7-11.3-23.3-32.7-30-40.7s-18.7-7.3-24-16s3.3-72.7-12-76.7
					c-3.1-0.9-6.3-1.3-9.6-1.4l-0.3,0.2c-17.1,13.4-31.9,69.2-31.5,96s10.3,40.1,35.3,51.1s71.6,6.9,97.7-1.4
					C204,462,205.6,461.4,207.2,460.6z"/>
			</g>
		</g>
	</g>
	<path id="_Clipping_Path_17" class="st11" d="M144.1,306.5c0,0-26-3.1-43.2,10.3S69,386,69.4,412.8s10.3,40.1,35.3,51.1
		s71.6,6.9,97.7-1.4c26.1-8.2,34.6-37,34.3-52.5s-17.5-33.2-23.3-37s-22.3-11.7-30.5-24S162.6,309.9,144.1,306.5z"/>
	<path class="st12" d="M133.9,318.6c0,0-17,3.3-20,6.3s-15.5,50-15.5,50c3.5-0.8,7.1-0.7,10.5,0.5c5,2,5.5,7.3,6,9.8
		c0.4,3,0.7,6,0.8,9c0,0,50.5-4.5,61.3-7s27.1-3.6,27.1-3.6s-27.6-62.3-31.9-64.6s-22-2.5-24.5-2S133.9,318.6,133.9,318.6z"/>
	<line class="st13" x1="117.1" y1="376.3" x2="121.4" y2="341.6"/>
	<line class="st13" x1="120.4" y1="350.9" x2="126.1" y2="343.4"/>
	<path class="st13" d="M137.6,355.3c0,0,16.3-5.3,27-5.3"/>
	<path class="st13" d="M153,341l-1.1,8.3c0,0,2.8,0,3,1.3c0,0.9-0.3,1.8-1,2.5c0,0,7.8,4.3,8.8,9.3"/>
	<path id="_Clipping_Path_18" class="st14" d="M143.2,309.3c0,0-9.3,3-10.7,5.3c-1.3,2.3-0.3,18.7-0.3,20.7s1.2-1.2,2.2-3.5
		s4.5-5.8,5.7-5.5s1.8,1.7,1.8,3.8s2.7,5.2,5,6.8c2.3,1.7,4.5,3.3,4.5,3.3s4.8-7,6-8.8s1-5.7,1.2-7s3.2,3.7,3.8,2.3
		c0.7-1.3-1.5-2.5-3.8-6.2s-1.7-7.5-5.2-10.2S145.9,308.6,143.2,309.3z"/>
	<g>
		<g>
			<defs>
				<path id="SVGID_3_" d="M143.2,309.3c0,0-9.3,3-10.7,5.3c-1.3,2.3-0.3,18.7-0.3,20.7s1.2-1.2,2.2-3.5s4.5-5.8,5.7-5.5
					s1.8,1.7,1.8,3.8s2.7,5.2,5,6.8c2.3,1.7,4.5,3.3,4.5,3.3s4.8-7,6-8.8s1-5.7,1.2-7s3.2,3.7,3.8,2.3c0.7-1.3-1.5-2.5-3.8-6.2
					s-1.7-7.5-5.2-10.2S145.9,308.6,143.2,309.3z"/>
			</defs>
			<clipPath id="SVGID_4_">
				<use xlink:href="#SVGID_3_"  style="overflow:visible;"/>
			</clipPath>
			<g class="st15">
				<path class="st7" d="M132.5,314.6c-0.9,1.6-0.7,9.4-0.5,15c2.1-2.7,6.5-7.9,9.1-6.9c3.3,1.2,4.5,10.5,4.5,10.5l-2.2-23.8h-0.1
					C143.2,309.3,133.9,312.3,132.5,314.6z"/>
				<path class="st1" d="M132.5,314.6c-0.9,1.6-0.7,9.4-0.5,15c2.1-2.7,6.5-7.9,9.1-6.9c3.3,1.2,4.5,10.5,4.5,10.5l-2.2-23.8h-0.1
					C143.2,309.3,133.9,312.3,132.5,314.6z"/>
			</g>
		</g>
	</g>
	<path id="_Clipping_Path_19" class="st11" d="M143.2,309.3c0,0-9.3,3-10.7,5.3c-1.3,2.3-0.3,18.7-0.3,20.7s1.2-1.2,2.2-3.5
		s4.5-5.8,5.7-5.5s1.8,1.7,1.8,3.8s2.7,5.2,5,6.8c2.3,1.7,4.5,3.3,4.5,3.3s4.8-7,6-8.8s1-5.7,1.2-7s3.2,3.7,3.8,2.3
		c0.7-1.3-1.5-2.5-3.8-6.2s-1.7-7.5-5.2-10.2S145.9,308.6,143.2,309.3z"/>
	<path id="_Clipping_Path_20" class="st14" d="M121.1,376.8c0,0-5.8-8.3-12.8-9s-15.5,5-15.8,7s-2,12.8-0.8,14.3s6,2.8,15.3-0.3
		S120.1,382.1,121.1,376.8z"/>
	<g>
		<g>
			<defs>
				<path id="SVGID_5_" d="M121.1,376.8c0,0-5.8-8.3-12.8-9s-15.5,5-15.8,7s-2,12.8-0.8,14.3s6,2.8,15.3-0.3
					S120.1,382.1,121.1,376.8z"/>
			</defs>
			<clipPath id="SVGID_6_">
				<use xlink:href="#SVGID_5_"  style="overflow:visible;"/>
			</clipPath>
			<g class="st16">
				<path class="st7" d="M97.7,388.8c0,0-2-5.7-1-7.7s5-5,7.5-8s-5.8,1.7-6.2,0c-0.3-1.4,4.4-4.1,6.2-5.1
					c-5.8,1.1-11.4,5.2-11.6,6.8c-0.3,2-2,12.8-0.8,14.3c0.7,0.8,2.2,1.5,4.9,1.6C97.4,389.6,97.7,388.8,97.7,388.8z"/>
				<path class="st1" d="M97.7,388.8c0,0-2-5.7-1-7.7s5-5,7.5-8s-5.8,1.7-6.2,0c-0.3-1.4,4.4-4.1,6.2-5.1
					c-5.8,1.1-11.4,5.2-11.6,6.8c-0.3,2-2,12.8-0.8,14.3c0.7,0.8,2.2,1.5,4.9,1.6C97.4,389.6,97.7,388.8,97.7,388.8z"/>
			</g>
		</g>
	</g>
	<path id="_Clipping_Path_21" class="st11" d="M121.1,376.8c0,0-5.8-8.3-12.8-9s-15.5,5-15.8,7s-2,12.8-0.8,14.3s6,2.8,15.3-0.3
		S120.1,382.1,121.1,376.8z"/>
	<path id="_Clipping_Path_22" class="st14" d="M101.6,379.1c0,0-9.4,3.7-9.8,11c-0.2,4,6.5,5.8,13.5,5.8s17-8.8,23.5-12.5
		c6.5-3.8,21.5-12.5,23.3-13.3s7.8,1.3,10.3,2c2.4,0.5,4.8,0.8,7.3,0.8c0,0,3.5,5.5,5.3,5.5s-3.8-8.3-4.5-10s-13-5.8-14.5-5.8
		s-36.5,8.8-41.7,10.8S101.6,379.1,101.6,379.1z"/>
	<g>
		<g>
			<defs>
				<path id="SVGID_7_" d="M101.6,379.1c0,0-9.4,3.7-9.8,11c-0.2,4,6.5,5.8,13.5,5.8s17-8.8,23.5-12.5c6.5-3.8,21.5-12.5,23.3-13.3
					s7.8,1.3,10.3,2c2.4,0.5,4.8,0.8,7.3,0.8c0,0,3.5,5.5,5.3,5.5s-3.8-8.3-4.5-10s-13-5.8-14.5-5.8s-36.5,8.8-41.7,10.8
					S101.6,379.1,101.6,379.1z"/>
			</defs>
			<clipPath id="SVGID_8_">
				<use xlink:href="#SVGID_7_"  style="overflow:visible;"/>
			</clipPath>
			<g class="st17">
				<path class="st7" d="M121.2,378.1c14.3-7.1,34.6-15.5,34.6-15.5c-1.5,0-36.5,8.8-41.7,10.8s-12.5,5.8-12.5,5.8s-9.4,3.7-9.8,11
					c-0.2,4,6.5,5.7,13.5,5.7s17-8.8,23.5-12.5c1.1-0.6,2.5-1.4,3.9-2.3C123.3,382.3,110.5,383.4,121.2,378.1z"/>
				<path class="st1" d="M121.2,378.1c14.3-7.1,34.6-15.5,34.6-15.5c-1.5,0-36.5,8.8-41.7,10.8s-12.5,5.8-12.5,5.8s-9.4,3.7-9.8,11
					c-0.2,4,6.5,5.7,13.5,5.7s17-8.8,23.5-12.5c1.1-0.6,2.5-1.4,3.9-2.3C123.3,382.3,110.5,383.4,121.2,378.1z"/>
			</g>
		</g>
	</g>
	<path id="_Clipping_Path_23" class="st11" d="M101.6,379.1c0,0-9.4,3.7-9.8,11c-0.2,4,6.5,5.8,13.5,5.8s17-8.8,23.5-12.5
		c6.5-3.8,21.5-12.5,23.3-13.3s7.8,1.3,10.3,2c2.4,0.5,4.8,0.8,7.3,0.8c0,0,3.5,5.5,5.3,5.5s-3.8-8.3-4.5-10s-13-5.8-14.5-5.8
		s-36.5,8.8-41.7,10.8S101.6,379.1,101.6,379.1z"/>
	<path class="st18" d="M174.8,323.5l-7.6,42.8l55,0.3l8.2-40.6c0.3-1.4-0.6-2.7-2-3c-0.1,0-0.3,0-0.4,0l-50.6-1.5
		C176.1,321.4,175,322.3,174.8,323.5z"/>
	<polygon id="_Clipping_Path_24" class="st14" points="167.1,366.3 140.4,385.3 201.6,383.5 222.1,366.6 	"/>
	<g>
		<g>
			<defs>
				<polygon id="SVGID_9_" points="167.1,366.3 140.3,385.3 201.6,383.5 222.1,366.6 				"/>
			</defs>
			<clipPath id="SVGID_10_">
				<use xlink:href="#SVGID_9_"  style="overflow:visible;"/>
			</clipPath>
			<g class="st19">
				<polygon class="st7" points="167.1,366.3 140.4,385.3 201.6,383.5 222.1,366.6 				"/>
				<polygon class="st1" points="167.1,366.3 140.4,385.3 201.6,383.5 222.1,366.6 				"/>
			</g>
		</g>
	</g>
	<polygon id="_Clipping_Path_25" class="st11" points="167.1,366.3 140.4,385.3 201.6,383.5 222.1,366.6 	"/>
	<path id="_Clipping_Path_26" class="st14" d="M187.4,385.1c0,0,22-19.3,43.8-25.7c21.8-6.5,26.3-5.5,25.8,4.2
		c-0.5,9.8-11,60.8-18,73.8s-15.8,36.8-15.5,41.3s8.8,17.8,16.3,22.5s6.8,10.5,2,11.5s-10.3,2.8-26.5-7.8s-23-25.5-22-29.3
		s11.5-8.8,15.8-16.3s11.3-35.5,11.8-48.3c0.4-8,2.1-16,5-23.5c0,0-27.5,5-35.5,10L187.4,385.1z"/>
	<g>
		<g>
			<defs>
				<path id="SVGID_11_" d="M187.4,385.1c0,0,22-19.3,43.8-25.7c21.8-6.5,26.3-5.5,25.8,4.2c-0.5,9.8-11,60.8-18,73.8
					s-15.8,36.8-15.5,41.3s8.8,17.8,16.3,22.5s6.8,10.5,2,11.5s-10.3,2.8-26.5-7.8s-23-25.5-22-29.3s11.5-8.8,15.8-16.3
					s11.3-35.5,11.8-48.3c0.4-8,2.1-16,5-23.5c0,0-27.5,5-35.5,10L187.4,385.1z"/>
			</defs>
			<clipPath id="SVGID_12_">
				<use xlink:href="#SVGID_11_"  style="overflow:visible;"/>
			</clipPath>
			<g class="st20">
				<path class="st7" d="M187.4,385.1c0,0,22-19.3,43.8-25.7c21.8-6.5,26.3-5.5,25.8,4.2c-0.5,9.8-11,60.8-18,73.8
					s-15.8,36.8-15.5,41.3s8.8,17.8,16.3,22.5s6.8,10.5,2,11.5s-10.3,2.8-26.5-7.8s-23-25.5-22-29.3s11.5-8.8,15.8-16.3
					s11.3-35.5,11.8-48.3c0.4-8,2.1-16,5-23.5c0,0-27.5,5-35.5,10L187.4,385.1z"/>
				<path class="st1" d="M187.4,385.1c0,0,22-19.3,43.8-25.7c21.8-6.5,26.3-5.5,25.8,4.2c-0.5,9.8-11,60.8-18,73.8
					s-15.8,36.8-15.5,41.3s8.8,17.8,16.3,22.5s6.8,10.5,2,11.5s-10.3,2.8-26.5-7.8s-23-25.5-22-29.3s11.5-8.8,15.8-16.3
					s11.3-35.5,11.8-48.3c0.4-8,2.1-16,5-23.5c0,0-27.5,5-35.5,10L187.4,385.1z"/>
			</g>
		</g>
	</g>
	<path id="_Clipping_Path_27" class="st11" d="M187.4,385.1c0,0,22-19.3,43.8-25.7c21.8-6.5,26.3-5.5,25.8,4.2
		c-0.5,9.8-11,60.8-18,73.8s-15.8,36.8-15.5,41.3s8.8,17.8,16.3,22.5s6.8,10.5,2,11.5s-10.3,2.8-26.5-7.8s-23-25.5-22-29.3
		s11.5-8.8,15.8-16.3s11.3-35.5,11.8-48.3c0.4-8,2.1-16,5-23.5c0,0-27.5,5-35.5,10L187.4,385.1z"/>
	<path class="st18" d="M208.9,459.3c-0.3,0.6-0.7,1.1-1.1,1.6c5.2,0.5,10.1,2.5,14.1,5.9c1.2,1,2.3,2.1,3.4,3.3
		c3.6-11.3,8.2-22.3,13.6-32.8c7-13,17.5-64,18-73.8c0.5-9.7-4-10.7-25.8-4.2s-43.8,25.8-43.8,25.8l2.8,12.5c8-5,35.5-10,35.5-10
		c-2.9,7.5-4.6,15.5-5,23.5C220.1,423.8,213.1,451.8,208.9,459.3z"/>
	<path id="_Clipping_Path_28" class="st5" d="M208.9,459.3c-0.3,0.6-0.7,1.1-1.1,1.6c5.2,0.5,10.1,2.5,14.1,5.9
		c1.2,1,2.3,2.1,3.4,3.3c4.8-6.4,10.2-26.8,16.3-35.1c15.7-21.6,14.8-61.7,15.3-71.4c0.5-9.8-4-10.8-25.8-4.3s-43.8,25.8-43.8,25.8
		l2.8,12.5c8-5,35.5-10,35.5-10c-2.9,7.5-4.6,15.5-5,23.5C220.1,423.8,213.1,451.8,208.9,459.3z"/>
	<g>
		<g>
			<defs>
				<path id="SVGID_13_" d="M208.9,459.3c-0.3,0.6-0.7,1.1-1.1,1.6c5.2,0.5,10.1,2.5,14.1,5.9c1.2,1,2.3,2.1,3.4,3.3
					c4.8-6.4,10.2-26.8,16.3-35.1c15.7-21.6,14.8-61.7,15.3-71.4c0.5-9.8-4-10.8-25.8-4.3s-43.8,25.8-43.8,25.8l2.8,12.5
					c8-5,35.5-10,35.5-10c-2.9,7.5-4.6,15.5-5,23.5C220.1,423.8,213.1,451.8,208.9,459.3z"/>
			</defs>
			<clipPath id="SVGID_14_">
				<use xlink:href="#SVGID_13_"  style="overflow:visible;"/>
			</clipPath>
			<g class="st21">
				<path class="st22" d="M208.9,459.3c-0.3,0.6-0.7,1.1-1.1,1.6c5.2,0.5,10.1,2.5,14.1,5.9c1.2,1,2.3,2.1,3.4,3.3
					c4.8-6.4,10.2-26.8,16.3-35.1c15.7-21.6,14.8-61.7,15.3-71.4c0.5-9.8-4-10.8-25.8-4.3s-43.8,25.8-43.8,25.8l2.8,12.5
					c8-5,35.5-10,35.5-10c-2.9,7.5-4.6,15.5-5,23.5C220.1,423.8,213.1,451.8,208.9,459.3z"/>
				<path class="st23" d="M246.3,362.3c-0.4-3.6-39.1,12.8-55.4,19.9c-2.3,1.8-3.6,2.9-3.6,2.9l2.8,12.5c8-5,35.5-10,35.5-10
					c-2.9,7.5-4.6,15.5-5,23.5c-0.5,12.8-7.5,40.8-11.8,48.3c-0.3,0.6-0.7,1.1-1.1,1.6c2.8,0.3,5.4,1,8,2.1
					c6.1-12.8,12.5-27.6,15.5-39.3C236.8,402.8,246.8,366.8,246.3,362.3z"/>
				<path class="st11" d="M225.6,387.6c0,0,7.5-15.3,14-21.5"/>
			</g>
		</g>
	</g>
	<path id="_Clipping_Path_29" class="st11" d="M208.9,459.3c-0.3,0.6-0.7,1.1-1.1,1.6c5.2,0.5,10.1,2.5,14.1,5.9
		c1.2,1,2.3,2.1,3.4,3.3c4.8-6.4,10.2-26.8,16.3-35.1c15.7-21.6,14.8-61.7,15.3-71.4c0.5-9.8-4-10.8-25.8-4.3s-43.8,25.8-43.8,25.8
		l2.8,12.5c8-5,35.5-10,35.5-10c-2.9,7.5-4.6,15.5-5,23.5C220.1,423.8,213.1,451.8,208.9,459.3z"/>
	<path class="st12" d="M154.4,405.2c8.1-0.4,16-1.9,23.6-4.5c11.3-4.1-9.3-11.7-17.1-7.5C156.4,395.4,153.8,400.2,154.4,405.2z"/>
	<path id="_Clipping_Path_30" class="st14" d="M121.9,389.1c0,0-8,4.5-10.8,9.5s9.1,13.3,21.6,12.8s35.4-14.1,35.4-14.1
		s0.3,22,4.5,30s23.8,27.5,31.5,32.5s33.8,23.8,37.8,26.8s11.5,8.5,13.3,8.8c1.8,0.3,20-22,24.3-29.5s8-23.3,6.5-26.8
		s-4.5-0.5-7.5,2s-30.5,20.8-33,22c-1.4,0.7-2.8,1.3-4.3,1.8c0,0-22.5-21.5-34.5-38s-13-37.8-17.5-45.8s-11-11.5-20.8-10.5
		S138.4,376.8,121.9,389.1z"/>
	<g>
		<g>
			<defs>
				<path id="SVGID_15_" d="M121.9,389.1c0,0-8,4.5-10.8,9.5s9.1,13.3,21.6,12.8s35.4-14.1,35.4-14.1s0.3,22,4.5,30
					s23.8,27.5,31.5,32.5s33.8,23.8,37.8,26.8s11.5,8.5,13.3,8.8c1.8,0.3,20-22,24.3-29.5s8-23.3,6.5-26.8s-4.5-0.5-7.5,2
					s-30.5,20.8-33,22c-1.4,0.7-2.8,1.3-4.3,1.8c0,0-22.5-21.5-34.5-38s-13-37.8-17.5-45.8s-11-11.5-20.8-10.5
					S138.4,376.8,121.9,389.1z"/>
			</defs>
			<clipPath id="SVGID_16_">
				<use xlink:href="#SVGID_15_"  style="overflow:visible;"/>
			</clipPath>
			<g class="st24">
				<path class="st7" d="M227.7,476.3c6.7,4.8,12.5,9,14.2,10.3c4,3,11.5,8.5,13.2,8.8c0.6,0.1,3.3-2.7,6.7-6.6l-28.6-18.4
					L227.7,476.3z"/>
				<path class="st1" d="M227.7,476.3c6.7,4.8,12.5,9,14.2,10.3c4,3,11.5,8.5,13.2,8.8c0.6,0.1,3.3-2.7,6.7-6.6l-28.6-18.4
					L227.7,476.3z"/>
			</g>
		</g>
	</g>
	<path id="_Clipping_Path_31" class="st11" d="M121.9,389.1c0,0-8,4.5-10.8,9.5s9.1,13.3,21.6,12.8s35.4-14.1,35.4-14.1
		s0.3,22,4.5,30s23.8,27.5,31.5,32.5s33.8,23.8,37.8,26.8s11.5,8.5,13.3,8.8c1.8,0.3,20-22,24.3-29.5s8-23.3,6.5-26.8
		s-4.5-0.5-7.5,2s-30.5,20.8-33,22c-1.4,0.7-2.8,1.3-4.3,1.8c0,0-22.5-21.5-34.5-38s-13-37.8-17.5-45.8s-11-11.5-20.8-10.5
		S138.4,376.8,121.9,389.1z"/>
	<path id="_Clipping_Path_32" class="st5" d="M239.6,463.3c-5.3-5.2-25.1-31.8-32.9-47.1c-11.5-22.4-12.7-30-17.2-38
		s-11.3-8.6-21-7.6s-27.2,2.8-48.6,15c0,0-9,4.9-11.7,9.9s7.3,17.6,24.7,16c12.4-1.1,35.4-14.1,35.4-14.1s0.3,22,4.5,30
		s23.8,27.5,31.5,32.5c4.9,3.2,17.2,11.9,26.5,18.6C233,470.1,237.1,465.5,239.6,463.3z"/>
	<g>
		<g>
			<defs>
				<path id="SVGID_17_" d="M239.6,463.3c-5.3-5.2-25.1-31.8-32.9-47.1c-11.5-22.4-12.7-30-17.2-38s-11.3-8.6-21-7.6
					s-27.2,2.8-48.6,15c0,0-9,4.9-11.7,9.9s7.3,17.6,24.7,16c12.4-1.1,35.4-14.1,35.4-14.1s0.3,22,4.5,30s23.8,27.5,31.5,32.5
					c4.9,3.2,17.2,11.9,26.5,18.6C233,470.1,237.1,465.5,239.6,463.3z"/>
			</defs>
			<clipPath id="SVGID_18_">
				<use xlink:href="#SVGID_17_"  style="overflow:visible;"/>
			</clipPath>
			<g class="st25">
				<path class="st22" d="M239.6,463.3c-5.3-5.2-25.1-31.8-32.9-47.1c-11.5-22.4-12.7-30-17.2-38s-11.3-8.6-21-7.6
					s-27.2,2.8-48.6,15c0,0-9,4.9-11.7,9.9s7.3,17.6,24.7,16c12.4-1.1,35.4-14.1,35.4-14.1s0.3,22,4.5,30s23.8,27.5,31.5,32.5
					c4.9,3.2,17.2,11.9,26.5,18.6C233,470.1,237.1,465.5,239.6,463.3z"/>
				<path class="st23" d="M189.3,427.8c-7.5-19-3-57-24-52c-15.3,3.6-43.3,16.6-57.4,23.3c1.7,5.7,10.9,13.6,24.8,12.3
					c12.4-1.1,35.4-14.1,35.4-14.1s0.3,22,4.5,30s23.8,27.5,31.5,32.5c4.9,3.2,17.2,11.9,26.5,18.6c0.8-2.9,2-5.8,3.5-8.4
					C215.5,456.3,193.5,438.4,189.3,427.8z"/>
				<line class="st11" x1="168.1" y1="397.3" x2="167.4" y2="384.3"/>
			</g>
		</g>
	</g>
	<path id="_Clipping_Path_33" class="st11" d="M239.6,463.3c-5.3-5.2-25.1-31.8-32.9-47.1c-11.5-22.4-12.7-30-17.2-38
		s-11.3-8.6-21-7.6s-27.2,2.8-48.6,15c0,0-9,4.9-11.7,9.9s7.3,17.6,24.7,16c12.4-1.1,35.4-14.1,35.4-14.1s0.3,22,4.5,30
		s23.8,27.5,31.5,32.5c4.9,3.2,17.2,11.9,26.5,18.6C233,470.1,237.1,465.5,239.6,463.3z"/>
	<path class="st12" d="M241.9,486.6c4,3,11.5,8.5,13.3,8.8s20-22,24.3-29.5s8-23.3,6.5-26.8s-4.5-0.5-7.5,2s-30.5,20.8-33,22
		c-0.6,0.3-1.3,0.6-1.8,0.8c-0.7,1.4-1.6,3.5-1,4.9c1,2.3,5.3,5.3,5.3,5.3l-7.6,11.4L241.9,486.6z"/>
	<path id="_Clipping_Path_34" class="st14" d="M279.4,465.8c4.3-7.5,8-23.3,6.5-26.8c-0.9-2-2.2-1.9-3.8-0.9c1,4.7,0,13.7-5.2,23.4
		c-4.6,8.7-18.8,24-26,31.4c1.3,1,2.7,1.8,4.3,2.3C256.9,495.6,275.1,473.3,279.4,465.8z"/>
	<g>
		<g>
			<defs>
				<path id="SVGID_19_" d="M279.4,465.8c4.3-7.5,8-23.3,6.5-26.8c-0.9-2-2.2-1.9-3.8-0.9c1,4.7,0,13.7-5.2,23.4
					c-4.6,8.7-18.8,24-26,31.4c1.3,1,2.7,1.8,4.3,2.3C256.9,495.6,275.1,473.3,279.4,465.8z"/>
			</defs>
			<clipPath id="SVGID_20_">
				<use xlink:href="#SVGID_19_"  style="overflow:visible;"/>
			</clipPath>
			<g class="st26">
				<path class="st7" d="M255.4,495.3l0.2-0.1h0.1l0.3-0.3l0.1-0.1l0.3-0.3l0.2-0.1l0.4-0.4l0.3-0.2l0.3-0.3l0.3-0.3l0.3-0.3
					l0.7-0.8l0.1-0.1l0.5-0.5l0.2-0.2c0.5-0.6,1.1-1.2,1.6-1.8l0,0l0.6-0.7l0,0l-4.4-2.8c-2.5,2.7-4.8,5.1-6.6,7l0,0l0.7,0.5
					l0.1,0.1l0.6,0.4l0,0l1,0.6l0.3,0.2l0.3,0.1l0.3,0.2l0.2,0.1l0.3,0.1l0.1,0.1c0.1,0,0.2,0.1,0.4,0.1
					C255.2,495.4,255.3,495.4,255.4,495.3L255.4,495.3z"/>
				<path class="st1" d="M255.4,495.3l0.2-0.1h0.1l0.3-0.3l0.1-0.1l0.3-0.3l0.2-0.1l0.4-0.4l0.3-0.2l0.3-0.3l0.3-0.3l0.3-0.3
					l0.7-0.8l0.1-0.1l0.5-0.5l0.2-0.2c0.5-0.6,1.1-1.2,1.6-1.8l0,0l0.6-0.7l0,0l-4.4-2.8c-2.5,2.7-4.8,5.1-6.6,7l0,0l0.7,0.5
					l0.1,0.1l0.6,0.4l0,0l1,0.6l0.3,0.2l0.3,0.1l0.3,0.2l0.2,0.1l0.3,0.1l0.1,0.1c0.1,0,0.2,0.1,0.4,0.1
					C255.2,495.4,255.3,495.4,255.4,495.3L255.4,495.3z"/>
			</g>
		</g>
	</g>
	<path id="_Clipping_Path_35" class="st11" d="M279.4,465.8c4.3-7.5,8-23.3,6.5-26.8c-0.9-2-2.2-1.9-3.8-0.9c1,4.7,0,13.7-5.2,23.4
		c-4.6,8.7-18.8,24-26,31.4c1.3,1,2.7,1.8,4.3,2.3C256.9,495.6,275.1,473.3,279.4,465.8z"/>
	<path class="st12" d="M239.6,501.1c-7.5-4.8-16-18-16.3-22.5c0-0.5,0-1,0.1-1.5c-1.5,0.1-2.9,0.6-4.1,1.5c-3.1-2.8-6.3-5.4-9.8-7.8
		c-2.7-1.6-5.8-2.5-9-2.7c-3.6,3-7,5.4-7.5,7.4c-1,3.8,5.8,18.8,22,29.3s21.8,8.8,26.5,7.8S247.1,505.8,239.6,501.1z"/>
	<path class="st18" d="M191.6,476.1"/>
	<path id="_Clipping_Path_36" class="st14" d="M239.6,501.1c-2.5-1.7-4.7-3.7-6.7-6c-5.2-2.2-12-5-18.1-8.8c-6.5-4-5-6.5-8.8-10.3
		c-2.9-2.9-8.5-3.3-11-3.3c-0.9,0.7-1.6,1.7-2,2.8c-1,3.8,5.8,18.8,22,29.3s21.8,8.8,26.5,7.8S247.1,505.8,239.6,501.1z"/>
	<g>
		<g>
			<defs>
				<path id="SVGID_21_" d="M239.6,501.1c-2.5-1.7-4.7-3.7-6.7-6c-5.2-2.2-12-5-18.1-8.8c-6.5-4-5-6.5-8.8-10.3
					c-2.9-2.9-8.5-3.3-11-3.3c-0.9,0.7-1.6,1.7-2,2.8c-1,3.8,5.8,18.8,22,29.3s21.8,8.8,26.5,7.8S247.1,505.8,239.6,501.1z"/>
			</defs>
			<clipPath id="SVGID_22_">
				<use xlink:href="#SVGID_21_"  style="overflow:visible;"/>
			</clipPath>
			<g class="st27">
				<path class="st7" d="M239.6,501.1c-2.5-1.7-4.7-3.7-6.7-6c-5.2-2.2-12-5-18.1-8.8c-6.5-4-5-6.5-8.8-10.3
					c-2.9-2.9-8.5-3.3-11-3.3c-0.9,0.7-1.6,1.7-2,2.8c-1,3.8,5.8,18.8,22,29.3s21.8,8.8,26.5,7.8S247.1,505.8,239.6,501.1z"/>
				<path class="st1" d="M239.6,501.1c-2.5-1.7-4.7-3.7-6.7-6c-5.2-2.2-12-5-18.1-8.8c-6.5-4-5-6.5-8.8-10.3
					c-2.9-2.9-8.5-3.3-11-3.3c-0.9,0.7-1.6,1.7-2,2.8c-1,3.8,5.8,18.8,22,29.3s21.8,8.8,26.5,7.8S247.1,505.8,239.6,501.1z"/>
			</g>
		</g>
	</g>
	<path id="_Clipping_Path_37" class="st11" d="M239.6,501.1c-2.5-1.7-4.7-3.7-6.7-6c-5.2-2.2-12-5-18.1-8.8c-6.5-4-5-6.5-8.8-10.3
		c-2.9-2.9-8.5-3.3-11-3.3c-0.9,0.7-1.6,1.7-2,2.8c-1,3.8,5.8,18.8,22,29.3s21.8,8.8,26.5,7.8S247.1,505.8,239.6,501.1z"/>
	<path id="_Clipping_Path_38" class="st5" d="M240.9,502.8c-6.5-3.8-19.8-6.3-28.3-12s-6.3-10.7-12.5-14.7c-2-1.5-4.8-1.7-7-0.4
		c-0.9,3.9,5.9,18.7,22,29.1c16.1,10.4,21.8,8.8,26.5,7.8c3.2-0.7,4.5-3.4,2.9-6.6C243.5,504.7,242.3,503.7,240.9,502.8z"/>
	<g>
		<g>
			<defs>
				<path id="SVGID_23_" d="M240.9,502.8c-6.5-3.8-19.8-6.3-28.3-12s-6.3-10.7-12.5-14.7c-2-1.5-4.8-1.7-7-0.4
					c-0.9,3.9,5.9,18.7,22,29.1c16.1,10.4,21.8,8.8,26.5,7.8c3.2-0.7,4.5-3.4,2.9-6.6C243.5,504.7,242.3,503.7,240.9,502.8z"/>
			</defs>
			<clipPath id="SVGID_24_">
				<use xlink:href="#SVGID_23_"  style="overflow:visible;"/>
			</clipPath>
			<g class="st28">
				<path class="st22" d="M240.9,502.8c-6.5-3.8-19.8-6.3-28.3-12s-6.3-10.7-12.5-14.7c-2-1.5-4.8-1.7-7-0.4
					c-0.9,3.9,5.9,18.7,22,29.1c16.1,10.4,21.8,8.8,26.5,7.8c3.2-0.7,4.5-3.4,2.9-6.6C243.5,504.7,242.3,503.7,240.9,502.8z"/>
			</g>
		</g>
	</g>
	<path id="_Clipping_Path_39" class="st11" d="M240.9,502.8c-6.5-3.8-19.8-6.3-28.3-12s-6.3-10.7-12.5-14.7c-2-1.5-4.8-1.7-7-0.4
		c-0.9,3.9,5.9,18.7,22,29.1c16.1,10.4,21.8,8.8,26.5,7.8c3.2-0.7,4.5-3.4,2.9-6.6C243.5,504.7,242.3,503.7,240.9,502.8z"/>
	<path class="st18" d="M116.3,455c0,0,4.8-5.8,5.5-1.4s-0.3,12.7-3.8,15.8c-3.4,3.1-5.1-1.7-5.1-1.7l2-2.8c0,0,1.7,3.4,3.1-2
		s-2.7-4.8-2.7-4.8L116.3,455z"/>
	<path class="st18" d="M112.6,477c-2.8,2.1-12.1,2.1-14.9,0c-6-4.5-5-26-5-26h24.9C117.6,451,118.6,472.5,112.6,477z"/>
	<path class="st11" d="M95.4,446.8c0-2.7,2.5-2.7,2.5-5.4s-2.5-2.7-2.5-5.4s2.5-2.7,2.5-5.4s-2.5-2.7-2.5-5.4s2.5-2.7,2.5-5.4"/>
	<path class="st11" d="M104,446.8c0-2.1,2.5-2.1,2.5-4.1s-2.5-2.1-2.5-4.1s2.5-2.1,2.5-4.1s-2.5-2-2.5-4.1s2.5-2.1,2.5-4.1"/>
	<path class="st11" d="M113.5,446.8c0-2.7,2.5-2.7,2.5-5.4s-2.5-2.7-2.5-5.4s2.5-2.7,2.5-5.4s-2.5-2.7-2.5-5.5s2.5-2.7,2.5-5.4"/>
	<path class="st18" d="M117.6,451c0,0.6-5.6,1.1-12.4,1.1s-12.4-0.5-12.4-1.1s5.6-1.1,12.4-1.1S117.6,450.4,117.6,451z"/>
	<path id="_Clipping_Path_40" class="st14" d="M140.5,296.3c0,0,1.2,12.6,1.6,16.6c0.5,4,1.6,15.4,2.8,19.2s7.4,10.4,8,8.9
		s3.7-11.8,2.5-17.9s-1.6-11.5-0.8-13c0.8-1.6,3.5-3.3,3.5-3.3c-3.2-1.6-6.4-3.5-9.4-5.5C144.3,298.3,141.1,294.9,140.5,296.3z"/>
	<g>
		<g>
			<defs>
				<path id="SVGID_25_" d="M140.5,296.3c0,0,1.2,12.6,1.6,16.6c0.5,4,1.6,15.4,2.8,19.2s7.4,10.4,8,8.9s3.7-11.8,2.5-17.9
					s-1.6-11.5-0.8-13c0.8-1.6,3.5-3.3,3.5-3.3c-3.2-1.6-6.4-3.5-9.4-5.5C144.3,298.3,141.1,294.9,140.5,296.3z"/>
			</defs>
			<clipPath id="SVGID_26_">
				<use xlink:href="#SVGID_25_"  style="overflow:visible;"/>
			</clipPath>
			<g class="st29">
				<path class="st7" d="M156.6,307.4l-1-2c-1.8-1-4.4-2.5-6.8-4.1c-4.5-3-7.6-6.4-8.2-5c0,0,1.2,12.6,1.6,16.6
					c0.5,4,1.6,15.5,2.8,19.2c0.4,1.1,0.9,2.2,1.6,3.1c-1.2-7.5,0.1-21.1,0.1-21.1L156.6,307.4z"/>
				<path class="st1" d="M156.6,307.4l-1-2c-1.8-1-4.4-2.5-6.8-4.1c-4.5-3-7.6-6.4-8.2-5c0,0,1.2,12.6,1.6,16.6
					c0.5,4,1.6,15.5,2.8,19.2c0.4,1.1,0.9,2.2,1.6,3.1c-1.2-7.5,0.1-21.1,0.1-21.1L156.6,307.4z"/>
			</g>
		</g>
	</g>
	<path id="_Clipping_Path_41" class="st11" d="M140.5,296.3c0,0,1.2,12.6,1.6,16.6c0.5,4,1.6,15.4,2.8,19.2s7.4,10.4,8,8.9
		s3.7-11.8,2.5-17.9s-1.6-11.5-0.8-13c0.8-1.6,3.5-3.3,3.5-3.3c-3.2-1.6-6.4-3.5-9.4-5.5C144.3,298.3,141.1,294.9,140.5,296.3z"/>
	<path id="_Clipping_Path_42" class="st14" d="M140.1,298.1c0,0,7.2,6,12.7,8.2s14,2.1,15.2-0.8s-2.1-25.6-4.9-31.6
		c-2.8-6-5.9-6.1-10.9-6.5c-5-0.5-15.1,3.6-16.9,8.5s0.2,11.8,1.7,15.8C137.8,293.9,138.8,296.1,140.1,298.1z"/>
	<g>
		<g>
			<defs>
				<path id="SVGID_27_" d="M140.1,298.1c0,0,7.2,6,12.7,8.2s14,2.1,15.2-0.8s-2.1-25.6-4.9-31.6c-2.8-6-5.9-6.1-10.9-6.5
					c-5-0.5-15.1,3.6-16.9,8.5s0.2,11.8,1.7,15.8C137.8,293.9,138.8,296.1,140.1,298.1z"/>
			</defs>
			<clipPath id="SVGID_28_">
				<use xlink:href="#SVGID_27_"  style="overflow:visible;"/>
			</clipPath>
			<g class="st30">
				<path class="st7" d="M153,297.8c-2.6-7.6-3.2-19.5-3.2-22.6c0-2.5,6.4-5.1,9.3-6.2c-1.9-1.2-4.1-1.3-7-1.6
					c-5-0.5-15.1,3.6-16.9,8.5s0.2,11.8,1.7,15.8c0.8,2.3,1.8,4.4,3.1,6.4c0,0,7.2,6,12.7,8.2c3.8,1.4,7.9,1.8,11.9,1.1
					C160.8,306,154.7,302.9,153,297.8z"/>
				<path class="st1" d="M153,297.8c-2.6-7.6-3.2-19.5-3.2-22.6c0-2.5,6.4-5.1,9.3-6.2c-1.9-1.2-4.1-1.3-7-1.6
					c-5-0.5-15.1,3.6-16.9,8.5s0.2,11.8,1.7,15.8c0.8,2.3,1.8,4.4,3.1,6.4c0,0,7.2,6,12.7,8.2c3.8,1.4,7.9,1.8,11.9,1.1
					C160.8,306,154.7,302.9,153,297.8z"/>
			</g>
		</g>
	</g>
	<path id="_Clipping_Path_43" class="st11" d="M140.1,298.1c0,0,7.2,6,12.7,8.2s14,2.1,15.2-0.8s-2.1-25.6-4.9-31.6
		c-2.8-6-5.9-6.1-10.9-6.5c-5-0.5-15.1,3.6-16.9,8.5s0.2,11.8,1.7,15.8C137.8,293.9,138.8,296.1,140.1,298.1z"/>
	<path class="st11" d="M163.6,283.3c0.1,2.9-1.7,5.3-4,5.4s-4.3-2.2-4.4-5.1s1.7-5.3,4-5.4C161.4,278.1,163.5,280.4,163.6,283.3z"/>
	<path class="st11" d="M169.3,282.1c0.1,2.9-0.8,5.3-2.1,5.3c-1.3,0.1-2.4-2.3-2.5-5.1s0.8-5.3,2.1-5.3
		C168,277,169.1,279.3,169.3,282.1z"/>
	<path class="st18" d="M163.9,282.2c0,0,8.3,1.6,7.5,3.6s-6.4,4.1-6.4,4.1"/>
	<path class="st11" d="M163.4,281.3c0,0,0.1-1,1.4-0.4"/>
	<line class="st11" x1="154.9" y1="284" x2="139.9" y2="290"/>
	<path class="st31" d="M155.1,279.2c0.6-1.5,2.1-2.4,3.7-2.3"/>
	<line class="st31" x1="165.1" y1="277" x2="162.8" y2="277.9"/>
	<path class="st11" d="M157.9,293.8c0,0,3-0.8,4.7,1"/>
	<path class="st5" d="M159.9,283.8c0.1,1,0,1.9-0.4,1.9s-0.8-0.7-0.9-1.7s0.1-1.9,0.4-1.9C159.3,282,159.8,282.8,159.9,283.8z"/>
	<path class="st12" d="M141.3,290c0,0-1,2,1.8,2.1s4.7-1.3,3.4-3s-3.4-3.3-1.3-5.6s6.1-4.2,3.9-6.7s-10.7-0.2-8.6-2.3
		c2.1-2,11.8-4.2,16.2-3.9s12.5-3.1,14.3-7.5s-0.7-12.6-6.6-12.1c-5.9,0.4-10.2,5.6-12.8,5.9s-7.9-2.5-12.4,0.1s-4.6,9.8-5,10.6
		c-0.4,0.9-6.4,2.2-7.5,8.4c-0.8,5,0.8,10.1,4.2,13.8c2.5,2.7,3.6,3.8,3.6,3.8L141.3,290z"/>
	<path class="st32" d="M128.5,278.9c-0.1,0.9,0.2,1.9,0.6,2.6"/>
	<path class="st32" d="M154,263.1c0,0-2.2-4.8,3.4-4.8s6.4,7,0.6,9.5c-5.8,2.6-18.3,3.2-25,6.2c-1.3,0.5-2.5,1.4-3.4,2.4"/>
	<path class="st32" d="M144,280c-2,0.7-4.6,1.7-7.2,2.9c-5.6,2.6-4.4,5.2-4.4,5.2"/>
	<path class="st32" d="M147.7,278.8c0,0-0.5,0.1-1.3,0.4"/>
	<path id="_Clipping_Path_44" class="st14" d="M142.2,292.1c0,0-3.2-4.7-6.6-2.8c-3.4,1.9-0.8,8.5,1.3,10.8s6-2,6.4-3.1"/>
	<g>
		<g>
			<defs>
				<path id="SVGID_29_" d="M142.2,292.1c0,0-3.2-4.7-6.6-2.8c-3.4,1.9-0.8,8.5,1.3,10.8s6-2,6.4-3.1"/>
			</defs>
			<clipPath id="SVGID_30_">
				<use xlink:href="#SVGID_29_"  style="overflow:visible;"/>
			</clipPath>
			<g class="st33">
				<path class="st7" d="M142.2,292.1c0,0-3.2-4.7-6.6-2.8c-3.4,1.9-0.8,8.5,1.3,10.8s6-2,6.4-3.1"/>
				<path class="st1" d="M142.2,292.1c0,0-3.2-4.7-6.6-2.8c-3.4,1.9-0.8,8.5,1.3,10.8s6-2,6.4-3.1"/>
			</g>
		</g>
	</g>
	<path id="_Clipping_Path_45" class="st11" d="M142.2,292.1c0,0-3.2-4.7-6.6-2.8c-3.4,1.9-0.8,8.5,1.3,10.8s6-2,6.4-3.1"/>
	<path class="st18" d="M29.8,287.9h71.7c2.8,0,5.1,2.3,5.1,5.1v52.4c0,2.8-2.3,5.1-5.1,5.1H29.8c-2.8,0-5.1-2.3-5.1-5.1V293
		C24.6,290.2,26.9,287.9,29.8,287.9z"/>
	<polyline class="st18" points="105,333 153,345.5 105,322 	"/>
	<path class="st34" d="M32.3,293.9h17.3c0.6,0,1,0.4,1,1v48.6c0,0.6-0.4,1-1,1H32.3c-0.6,0-1-0.4-1-1v-48.6
		C31.3,294.3,31.7,293.9,32.3,293.9z"/>
	<rect x="99.9" y="293.9" class="st35" width="2.4" height="50.6"/>
	<rect x="99.9" y="317" class="st12" width="2.4" height="4.3"/>
	<line class="st11" x1="56.6" y1="295.1" x2="94.5" y2="295.1"/>
	<line class="st11" x1="56.6" y1="300.5" x2="94.5" y2="300.5"/>
	<line class="st11" x1="56.6" y1="306" x2="94.5" y2="306"/>
	<line class="st11" x1="56.6" y1="311.4" x2="94.5" y2="311.4"/>
	<line class="st11" x1="56.6" y1="324.6" x2="94.5" y2="324.6"/>
	<line class="st11" x1="56.6" y1="329.5" x2="94.5" y2="329.5"/>
	<line class="st11" x1="56.6" y1="334.3" x2="94.5" y2="334.3"/>
	<line class="st11" x1="56.6" y1="344.3" x2="94.5" y2="344.3"/>
	<line class="st11" x1="31.7" y1="343.6" x2="49.9" y2="294"/>
</g>
<g id="Plants">
	<ellipse class="st7" cx="321.7" cy="477" rx="16.7" ry="7.5"/>
	<ellipse class="st1" cx="321.7" cy="477" rx="16.7" ry="7.5"/>
	<path class="st5" d="M302.1,366.1c1.8,0.8,6.2,0.7,6.2,0.7s-0.9-2.9-1-3c-1-2-4-5.3-6.5-5c-1.6,0.3-2.7,1.9-2.4,3.5
		c0,0.1,0,0.1,0,0.2C298.8,364.1,300.6,365.4,302.1,366.1z"/>
	<path class="st5" d="M359.5,351.1c-2.5-0.3-5.4,3.1-6.3,5.2c-0.1,0.2-1,3.1-0.9,3.1l0,0c-0.5,0.5-1,1.1-1.5,1.8
		c-1,1.2-2,2.5-3.1,4.1c-1.2,1.7-2.3,3.4-3.3,5.2c-1.1,2-2,4.1-2.8,6.3c0,0,0,0,0,0.1c0-0.7,0-2.8,0-2.9c-0.3-2.2-2.1-6.3-4.6-6.8
		c-1.6-0.2-3.2,0.9-3.4,2.6c0,0.1,0,0.1,0,0.2c-0.1,1.8,1.1,3.5,2.4,4.6c1.4,1.3,5.3,2.5,5.6,2.6c-0.7,2.2-1.3,4.5-1.6,6.8
		c-0.2,1.3-0.4,2.7-0.6,4c0-0.6,0-1.2,0-1.3c-0.3-2.2-2.1-6.3-4.6-6.8c-1.6-0.2-3.2,0.9-3.4,2.6c0,0.1,0,0.1,0,0.2
		c-0.1,1.8,1.1,3.5,2.4,4.6s4.5,2.2,5.4,2.5c-0.1,0.5-0.1,1-0.2,1.6c-0.3,2.5-0.6,5-1,7.5c-0.1,0.9-0.3,1.7-0.4,2.5c0-0.6,0-1,0-1.1
		c-0.3-2.2-2.1-6.3-4.6-6.8c-1.6-0.2-3.2,0.9-3.4,2.6c0,0.1,0,0.1,0,0.2c-0.1,1.8,1.1,3.5,2.4,4.6s4.2,2.1,5.3,2.5
		c-0.2,0.9-0.4,1.7-0.6,2.5c-0.2,0.6-0.3,1.1-0.5,1.7c-0.2,0.6-0.4,1.1-0.5,1.6c-0.4,1-0.8,2.1-1.1,3.1c-0.3,0.7-0.5,1.3-0.8,2
		c0.1-0.9,0.4-2.5,0.4-2.7c0-2-0.6-3.9-1.5-5.6c0.1-1.7-1.2-3.1-2.9-3.2c-0.2,0-0.5,0-0.7,0.1c-2.4,0.6-3.9,4.9-4,7.1
		c0,0.1,0.1,1.6,0.1,2.5c-0.1-0.5-0.2-1-0.4-1.6c-0.3-1.1-0.5-2.1-0.8-3.3c-0.2-0.5-0.3-1.1-0.5-1.6s-0.4-1.1-0.6-1.7
		c-0.5-1.3-1-2.6-1.6-3.9c0.9-0.2,4.2-1.1,5.6-2.1c1.3-1,2.7-2.7,2.7-4.4s-1.3-3-3-3c-0.1,0-0.1,0-0.2,0c-2.5,0.3-4.6,4.2-5.1,6.4
		c0,0.1-0.2,1.7-0.2,2.6c-0.4-0.8-0.7-1.5-1.1-2.3c-1.1-2.2-2.3-4.5-3.5-6.7l-1.1-2c0.3-0.1,4.3-1,5.8-2.1c1.3-1,2.7-2.7,2.7-4.4
		s-1.3-3-3-3c-0.1,0-0.1,0-0.2,0c-2.5,0.3-4.6,4.2-5.1,6.4c0,0.2-0.2,2.5-0.3,3.1c-0.8-1.5-1.5-3-2.2-4.5c-0.9-2-1.8-4.1-2.4-6.3
		c0.2,0,4.3-1,5.8-2.1c1.3-1,2.7-2.7,2.7-4.4s-1.3-3-3-3c-0.1,0-0.1,0-0.2,0c-2.5,0.3-4.6,4.2-5.1,6.4c0,0.2-0.3,2.7-0.3,3.1
		c0-0.1-0.1-0.3-0.1-0.4c-0.6-2.2-1-4.4-1.3-6.6c-0.1-1.2-0.2-2.4-0.2-3.6c0.8-0.1,4.4-0.6,5.9-1.5s3-2.3,3.2-4.1
		c0.2-1.6-1-3.1-2.6-3.3c-0.1,0-0.1,0-0.2,0c-2.5,0-5.1,3.7-5.8,5.8c0,0.1-0.3,1.3-0.5,2.2c0-0.5,0-1.1,0-1.6c0-1.9,0.1-3.6,0.2-5.1
		c0.1-0.9,0.2-1.6,0.2-2.4c0.7-0.5,3.6-2.5,4.5-4s1.6-3.5,0.9-5.1c-0.6-1.6-2.3-2.3-3.9-1.8c-0.1,0-0.1,0.1-0.2,0.1
		c-2.2,1.1-2.8,5.6-2.4,7.8c0,0.2,0.9,3.1,0.9,3.1l0,0c-0.1,0.7-0.2,1.5-0.3,2.3c-0.2,1.5-0.3,3.3-0.4,5.1c-0.1,2,0,4.1,0.1,6.1
		c0.2,2.3,0.6,4.5,1.1,6.8v0.1c-0.4-0.6-1.5-2.3-1.6-2.4c-1.5-1.7-5.3-4.1-7.6-3.1c-1.5,0.7-2.1,2.5-1.4,4c0,0.1,0.1,0.1,0.1,0.2
		c0.9,1.5,2.9,2.3,4.5,2.5c1.9,0.3,5.8-0.9,6.1-0.9c0.6,2.2,1.4,4.4,2.4,6.6c0.5,1.2,1.1,2.5,1.7,3.7c-0.4-0.5-0.7-1-0.7-1
		c-1.5-1.7-5.3-4.1-7.6-3.1c-1.5,0.7-2.1,2.5-1.4,4c0,0.1,0.1,0.1,0.1,0.2c0.9,1.5,2.9,2.3,4.5,2.5s5-0.7,5.9-0.9
		c0.2,0.5,0.5,1,0.7,1.4c1.1,2.3,2.3,4.5,3.3,6.7c0.4,0.8,0.7,1.6,1,2.4c-0.3-0.5-0.6-0.8-0.6-0.9c-1.5-1.7-5.3-4.1-7.6-3.1
		c-1.5,0.7-2.1,2.5-1.4,4c0,0.1,0.1,0.1,0.1,0.2c0.9,1.5,2.9,2.3,4.5,2.5s4.7-0.6,5.8-0.9c0.3,0.8,0.6,1.6,0.9,2.4
		c0.2,0.6,0.4,1.1,0.5,1.6s0.3,1.1,0.5,1.7c0.3,1.1,0.5,2.2,0.8,3.2c0.2,0.7,0.3,1.4,0.4,2.1c-0.4-0.8-1.1-2.3-1.2-2.4
		c-1.2-1.9-4.6-4.8-7-4.2c-1.6,0.5-2.5,2.2-2,3.7c0,0.1,0,0.1,0.1,0.2c0.6,1.6,2.5,2.7,4.1,3.2c1.8,0.5,5.6,0,6.1,0
		c0.2,1.2,0.5,2.3,0.6,3.4c0.6,3.7,1,6.8,1.3,9c0,0.4,0.1,0.7,0.1,1.1h-7.5l2.4,47.1c0.2,3.6,3.1,6.4,6.7,6.4l0,0
		c3.6,0,6.5-2.8,6.7-6.4l2.3-47.2h-7l0.1-0.3c1-2,2.3-4.9,3.7-8.4c0.5-1.1,0.9-2.3,1.4-3.5c0.5,0.1,4.3,0.9,6.1,0.5
		c1.6-0.4,3.6-1.3,4.3-2.9c0.7-1.5,0.1-3.3-1.4-4c-0.1,0-0.1-0.1-0.2-0.1c-2.4-0.8-6,1.9-7.3,3.7c-0.1,0.1-0.8,1.3-1.2,2.1
		c0.2-0.5,0.4-1,0.6-1.5c0.4-1,0.7-2.1,1.1-3.2c0.2-0.5,0.3-1.1,0.5-1.7s0.3-1.1,0.4-1.7c0.3-1.4,0.6-2.7,0.8-4.1
		c0.9,0.3,4.1,1.5,5.8,1.3c1.7-0.1,3.7-0.7,4.7-2.2c0.9-1.4,0.6-3.2-0.8-4.2c-0.1,0-0.1-0.1-0.2-0.1c-2.2-1.1-6.2,1-7.8,2.5
		c-0.1,0.1-1.1,1.4-1.6,2c0.1-0.8,0.3-1.7,0.4-2.5c0.3-2.5,0.5-5,0.8-7.5c0.1-0.8,0.2-1.5,0.2-2.3c0.3,0.1,4.1,1.5,6,1.4
		c1.7-0.1,3.7-0.7,4.7-2.2c0.9-1.4,0.6-3.2-0.8-4.2c-0.1,0-0.1-0.1-0.2-0.1c-2.2-1.1-6.2,1-7.8,2.5c-0.1,0.1-1.6,1.9-1.9,2.4
		c0.2-1.7,0.4-3.4,0.6-5c0.3-2.2,0.8-4.4,1.4-6.6c0.1,0.1,4.1,1.5,6,1.4c1.6-0.1,3.7-0.7,4.7-2.2c0.9-1.4,0.6-3.2-0.8-4.2
		c-0.1,0-0.1-0.1-0.2-0.1c-2.2-1.2-6.2,1-7.8,2.5c-0.1,0.1-1.7,2.1-1.9,2.4c0-0.1,0.1-0.3,0.1-0.4c0.7-2.2,1.6-4.2,2.6-6.2
		c0.6-1.1,1.2-2.1,1.8-3.1c0.7,0.4,4,1.9,5.7,2s3.8-0.3,4.9-1.7c1.1-1.3,0.9-3.2-0.4-4.2c-0.1,0-0.1-0.1-0.2-0.1
		c-2.1-1.4-6.3,0.3-8,1.7c-0.1,0.1-1,1-1.6,1.6c0.3-0.4,0.6-0.9,0.9-1.3c1-1.6,2.1-3,3-4.2c0.5-0.7,1-1.3,1.5-1.9
		c0.9,0,4.4-0.1,6-0.9s3.2-2,3.6-3.8c0.4-1.6-0.6-3.2-2.1-3.6C359.7,351.2,359.6,351.2,359.5,351.1z M332,417.8
		c-1.5,3.5-2.9,6.3-3.9,8.2l-0.5,1.1h-0.2c0-0.4-0.1-0.8-0.2-1.3c-0.3-2.2-0.8-5.3-1.5-9c-0.2-1.2-0.5-2.4-0.8-3.7
		c1.2-0.5,2.3-1,3.4-1.6c1.5,1.3,3.2,2.4,5,3.2C332.9,415.7,332.4,416.8,332,417.8z"/>
	<path class="st5" d="M346.4,367c0,0,0.8-2.9,0.8-3.1c0.3-2.2-0.4-6.6-2.6-7.7c-1.5-0.6-3.3,0.1-3.9,1.6c0,0.1,0,0.1-0.1,0.2
		c-0.6,1.6,0.2,3.7,1.1,5.1C342.7,364.7,346.4,367,346.4,367z"/>
</g>
</svg>
