<?xml version="1.0" encoding="utf-8"?>
<!-- Generator: Adobe Illustrator 22.1.0, SVG Export Plug-In . SVG Version: 6.00 Build 0)  -->
<svg version="1.1" id="Layer_1" xmlns="http://www.w3.org/2000/svg" xmlns:xlink="http://www.w3.org/1999/xlink" x="0px" y="0px"
	 viewBox="0 0 1000 2309.3" style="enable-background:new 0 0 1000 2309.3;" xml:space="preserve">
<style type="text/css">
	.st0{opacity:0.43;fill:url(#SVGID_1_);enable-background:new    ;}
	.st1{fill:none;stroke:#212728;stroke-width:6;stroke-linecap:round;stroke-linejoin:round;}
	.st2{fill:#D2DCE6;}
	.st3{fill:none;stroke:#283035;stroke-width:6;stroke-linecap:round;stroke-linejoin:round;}
	.st4{fill:#FF5C5C;}
	.st5{opacity:0.3;fill:none;stroke:#FFFFFF;stroke-width:6;stroke-linecap:round;stroke-linejoin:round;enable-background:new    ;}
	.st6{opacity:0.3;}
	.st7{fill:#FFFFFF;}
	.st8{fill:#E5E5E5;}
	.st9{fill:#CFD1D0;}
	.st10{fill:#686B6D;}
	.st11{fill:none;stroke:#283035;stroke-width:4;stroke-linecap:round;stroke-linejoin:round;}
	.st12{opacity:0.14;enable-background:new    ;}
	.st13{fill:#353F49;}
	.st14{fill:#EAEEEF;}
	.st15{opacity:0.35;fill:#283035;enable-background:new    ;}
	.st16{fill:none;stroke:#46BB86;stroke-width:3;stroke-miterlimit:10;}
	.st17{fill:none;stroke:#389ABE;stroke-width:3;stroke-miterlimit:10;}
	.st18{fill:none;stroke:#E5C689;stroke-width:3;stroke-miterlimit:10;}
	.st19{fill:none;stroke:#F2F3F4;stroke-width:3;stroke-miterlimit:10;}
	.st20{fill:none;stroke:#FFA49F;stroke-width:3;stroke-miterlimit:10;}
	.st21{fill:none;stroke:#212728;stroke-linecap:round;stroke-miterlimit:10;}
	.st22{fill:#F7B66F;}
	.st23{fill:#EDA762;}
	.st24{fill:#8EAFBF;}
	.st25{fill:none;stroke:#8BAFC1;stroke-width:4;stroke-linecap:round;stroke-linejoin:round;}
	.st26{fill:#3BBC88;}
	.st27{fill:#EFAA65;}
	.st28{fill:none;stroke:#EDF5E1;stroke-width:6;stroke-linejoin:round;}
</style>
<title>111-coding</title>
<g>
	
		<linearGradient id="SVGID_1_" gradientUnits="userSpaceOnUse" x1="505" y1="-1370.813" x2="505" y2="-846.3329" gradientTransform="matrix(1 0 0 1 0 2874.8999)">
		<stop  offset="0" style="stop-color:#FFFFFF"/>
		<stop  offset="9.300000e-02" style="stop-color:#FFFFFF;stop-opacity:0.864"/>
		<stop  offset="0.284" style="stop-color:#FFFFFF;stop-opacity:0.605"/>
		<stop  offset="0.466" style="stop-color:#FFFFFF;stop-opacity:0.389"/>
		<stop  offset="0.633" style="stop-color:#FFFFFF;stop-opacity:0.221"/>
		<stop  offset="0.784" style="stop-color:#FFFFFF;stop-opacity:0.1"/>
		<stop  offset="0.911" style="stop-color:#FFFFFF;stop-opacity:2.600000e-02"/>
		<stop  offset="1" style="stop-color:#FFFFFF;stop-opacity:0"/>
	</linearGradient>
	<polygon class="st0" points="814,2010.9 196,2010.9 427,1511 583,1511 	"/>
	<path class="st1" d="M744.1,1855.7"/>
	<path class="st1" d="M758.3,1822.8"/>
	<path class="st2" d="M310.7,1745.2h337.8c9.5,0,17.1,7.7,17.1,17.1v222.9l0,0h-372l0,0v-222.9
		C293.6,1752.9,301.3,1745.2,310.7,1745.2z"/>
	<path class="st3" d="M310.7,1745.2h337.8c9.5,0,17.1,7.7,17.1,17.1v222.9l0,0h-372l0,0v-222.9
		C293.6,1752.9,301.3,1745.2,310.7,1745.2z"/>
	<rect x="321.6" y="1773.5" class="st4" width="316" height="184"/>
	<line class="st5" x1="505" y1="1928.1" x2="557" y2="1928.1"/>
	<g class="st6">
		<path class="st7" d="M631.8,1870.9c2.1-0.1,3.9,1.2,4.5,3.1v-11.5c-1.1-0.3-2.2-0.5-3.4-0.5h-1.2c-2.5,0-3.8,1.3-3.8,3.8v1.3
			C628,1869.7,629.3,1870.9,631.8,1870.9z"/>
		<path class="st7" d="M636.3,1925.8c-0.6,2-2.5,3.2-4.5,3.1c-2.5,0-3.8,1.3-3.8,3.8v1.3c0,2.5,1.3,3.8,3.8,3.8h1.2
			c1.1,0,2.3-0.2,3.4-0.5v-11.5H636.3z"/>
	</g>
	<rect x="321.6" y="1773.5" class="st3" width="316" height="184"/>
	<path class="st8" d="M252.5,1985.3h454.1c2.2,0,4,1.8,4,4v4.8c0,11-9,20-20,20H268.5c-11,0-20-9-20-20v-4.8
		C248.5,1987.1,250.3,1985.3,252.5,1985.3z"/>
	<path class="st9" d="M690.6,2005.1H268.5c-9.9,0-18.3-7.3-19.8-17.1c-0.2,0.4-0.2,0.9-0.2,1.3v4.8c0,11,9,20,20,20h422.1
		c11,0,20-9,20-20v-4.8c0-0.4-0.1-0.9-0.2-1.3C709,1997.9,700.6,2005.1,690.6,2005.1z"/>
	<path class="st3" d="M252.5,1985.3h454.1c2.2,0,4,1.8,4,4v4.8c0,11-9,20-20,20H268.5c-11,0-20-9-20-20v-4.8
		C248.5,1987.1,250.3,1985.3,252.5,1985.3z"/>
	<path class="st10" d="M437.6,1985.2h84l0,0l0,0c0,4.4-3.6,8-8,8h-68C441.2,1993.2,437.6,1989.6,437.6,1985.2L437.6,1985.2
		L437.6,1985.2z"/>
	<path class="st11" d="M437.6,1985.2h84l0,0l0,0c0,4.4-3.6,8-8,8h-68C441.2,1993.2,437.6,1989.6,437.6,1985.2L437.6,1985.2
		L437.6,1985.2z"/>
	<circle class="st10" cx="478.8" cy="1759" r="8"/>
	<circle class="st11" cx="478.8" cy="1759" r="8"/>
	<path class="st1" d="M252.9,2010.3"/>
	<path class="st8" d="M721.1,2014.2c0.1-16,13.1-28.9,29.2-28.8c15.9,0.1,28.7,12.9,28.8,28.8H721.1z"/>
	<path class="st9" d="M750.1,2005.1c8.4,0.1,16.4-3.5,22-9.7c-10.4-12.1-28.7-13.5-40.8-3.1c-1.1,1-2.2,2-3.1,3.1
		C733.7,2001.6,741.7,2005.2,750.1,2005.1z"/>
	<path class="st3" d="M721.1,2014.2c0.1-16,13.1-28.9,29.2-28.8c15.9,0.1,28.7,12.9,28.8,28.8H721.1z"/>
	<path class="st12" d="M375,1809.1h152c4.4,0,8,3.6,8,8v118c0,4.4-3.6,8-8,8H375c-4.4,0-8-3.6-8-8v-118
		C367,1812.7,370.6,1809.1,375,1809.1z"/>
	<path class="st13" d="M367.2,1802.1h152c4.4,0,8,3.6,8,8v118c0,4.4-3.6,8-8,8h-152c-4.4,0-8-3.6-8-8v-118
		C359.2,1805.7,362.8,1802.1,367.2,1802.1z"/>
	<path class="st11" d="M367.2,1802.1h152c4.4,0,8,3.6,8,8v118c0,4.4-3.6,8-8,8h-152c-4.4,0-8-3.6-8-8v-118
		C359.2,1805.7,362.8,1802.1,367.2,1802.1z"/>
	<path class="st14" d="M367.2,1802.1h152c4.4,0,8,3.6,8,8v12l0,0h-168l0,0v-12C359.2,1805.7,362.8,1802.1,367.2,1802.1z"/>
	<path class="st11" d="M367.2,1802.1h152c4.4,0,8,3.6,8,8v12l0,0h-168l0,0v-12C359.2,1805.7,362.8,1802.1,367.2,1802.1z"/>
	<circle class="st15" cx="373.5" cy="1812.1" r="3.1"/>
	<circle class="st15" cx="383.3" cy="1812.1" r="3.1"/>
	<circle class="st15" cx="392.7" cy="1812.1" r="3.1"/>
	<line class="st16" x1="367" y1="1829.1" x2="378" y2="1829.1"/>
	<line class="st16" x1="382" y1="1829.1" x2="412" y2="1829.1"/>
	<line class="st17" x1="367" y1="1837.1" x2="412" y2="1837.1"/>
	<line class="st18" x1="376" y1="1845.1" x2="398" y2="1845.1"/>
	<line class="st19" x1="402" y1="1845.1" x2="426" y2="1845.1"/>
	<line class="st19" x1="388" y1="1853.1" x2="434" y2="1853.1"/>
	<line class="st20" x1="388" y1="1861.1" x2="422" y2="1861.1"/>
	<line class="st19" x1="376" y1="1869.1" x2="426" y2="1869.1"/>
	<line class="st17" x1="367" y1="1876.1" x2="394" y2="1876.1"/>
	<g class="st6">
		<path class="st7" d="M599.6,1914.9c0-4-1.5-6.7-4.6-8.4c-2.2-1.2-3.1-2.1-3.1-4.1v-3.5c0-2.4,1.1-3,3-4.2c3.1-1.3,4.7-4.2,4.7-8.5
			v-7.6c0-6.1,2.2-10.6,5.5-12.5c2.4-1.7,5.3-2.7,8.3-2.8h1.2c2.5,0,3.8,1.3,3.8,3.8v1.3c0,2.4-1.3,3.7-3.8,3.7
			c-3.5,0-5.2,2.5-5.2,7.6v9.4c0.2,4.7-2.4,9-6.6,11.1l-0.8,0.3v0.2c0.9,0.3,1.8,0.7,2.5,1.3c2.2,1.3,4.9,4.5,4.9,10v10.5
			c0,5,1.7,7.5,5.2,7.5c2.5,0,3.8,1.3,3.8,3.8v1.3c0,2.5-1.3,3.8-3.8,3.8h-1.2c-3-0.1-5.8-1.1-8.3-2.8c-3.2-1.9-5.5-6.5-5.5-12.5
			L599.6,1914.9L599.6,1914.9z"/>
	</g>
	<path class="st21" d="M161.7,1959.4"/>
	<path class="st8" d="M802.8,1884.2h77.8c5,0,9.1,4.1,9.1,9.1v111.8c0,5-4.1,9.1-9.1,9.1h-77.8c-5,0-9.1-4.1-9.1-9.1v-111.8
		C793.7,1888.3,797.8,1884.2,802.8,1884.2z"/>
	<path class="st9" d="M880.6,1884.2h-1.2c0.2,0.7,0.3,1.4,0.3,2.1v111.8c0,5-4.1,9.1-9.1,9.1H794c1,4.1,4.6,7,8.8,7h77.8
		c5,0,9.1-4.1,9.1-9.1v-111.8C889.7,1888.3,885.7,1884.2,880.6,1884.2L880.6,1884.2z"/>
	<path class="st3" d="M802.8,1884.2h77.8c5,0,9.1,4.1,9.1,9.1v111.8c0,5-4.1,9.1-9.1,9.1h-77.8c-5,0-9.1-4.1-9.1-9.1v-111.8
		C793.7,1888.3,797.8,1884.2,802.8,1884.2z"/>
	<path class="st22" d="M857.7,1876.7h-8v-3c0-4.4-3.6-8-8-8s-8,3.6-8,8v3h-8c-4.4,0-8,3.6-8,8s3.6,8,8,8h32c4.4,0,8-3.6,8-8
		S862.2,1876.7,857.7,1876.7z"/>
	<path class="st23" d="M861.5,1877.6c1.2,4.2-1.3,8.6-5.6,9.8c-0.7,0.2-1.4,0.3-2.1,0.3h-32c-1.3,0-2.6-0.3-3.7-0.9
		c0.9,3.5,4.1,5.9,7.7,5.9h32c4.4,0,8-3.6,8-8C865.7,1881.7,864.1,1879,861.5,1877.6z"/>
	<path class="st23" d="M845.7,1868.7v3h3.7c-0.6-2.2-2-4-4-5.1C845.6,1867.3,845.7,1868,845.7,1868.7z"/>
	<path class="st3" d="M857.7,1876.7h-8v-3c0-4.4-3.6-8-8-8s-8,3.6-8,8v3h-8c-4.4,0-8,3.6-8,8s3.6,8,8,8h32c4.4,0,8-3.6,8-8
		S862.2,1876.7,857.7,1876.7z"/>
	<circle class="st24" cx="841.7" cy="1913.4" r="8.3"/>
	<circle class="st3" cx="841.7" cy="1913.4" r="8.3"/>
	<line class="st3" x1="810" y1="1939" x2="830" y2="1939"/>
	<line class="st3" x1="810" y1="1966.2" x2="830" y2="1966.2"/>
	<line class="st3" x1="810" y1="1993.4" x2="830" y2="1993.4"/>
	<polyline class="st25" points="843.2,1938 848.4,1944.9 864,1933.2 	"/>
	<polyline class="st25" points="843.2,1965.1 848.4,1972.1 864,1960.3 	"/>
	
		<rect x="894.1" y="1940.4" transform="matrix(0.9905 -0.1378 0.1378 0.9905 -263.2102 142.7065)" class="st26" width="10" height="64"/>
	
		<rect x="894.1" y="1940.4" transform="matrix(0.9905 -0.1378 0.1378 0.9905 -263.2102 142.7065)" class="st11" width="10" height="64"/>
	<polygon class="st8" points="908.5,2003.3 898.6,2004.6 904.9,2013.9 	"/>
	<polygon class="st11" points="908.5,2003.3 898.6,2004.6 904.9,2013.9 	"/>
	
		<rect x="890.7" y="1930.1" transform="matrix(0.9904 -0.1381 0.1381 0.9904 -258.6833 141.9715)" class="st8" width="6" height="10"/>
	
		<rect x="890.7" y="1930.1" transform="matrix(0.9904 -0.1381 0.1381 0.9904 -258.6833 141.9715)" class="st11" width="6" height="10"/>
	<path class="st11" d="M908.6,1964.9c-1.1-1.8-1.9-3.9-2.3-6c-1.1-5.4,1.6-8.5,0.1-11.6c-0.6-1.2-0.9-2.9-5.3-3.6"/>
	<line class="st3" x1="920.8" y1="2014.2" x2="946.5" y2="2014.2"/>
	<line class="st3" x1="234.3" y1="2014.2" x2="909.5" y2="2014.2"/>
	<line class="st3" x1="114.8" y1="2014.2" x2="222.6" y2="2014.2"/>
	<line class="st3" x1="80.3" y1="2014.2" x2="103.5" y2="2014.2"/>
	<ellipse class="st7" cx="505" cy="1513" rx="24" ry="24"/>
	<path class="st22" d="M436.1,1518.3c-4.8,0-8.6-3.9-8.6-8.7c0-0.3,0-0.7,0.1-1c4.7-39.6,37.6-70.3,77.4-70.3s72.8,30.7,77.4,70.3
		c0.6,4.7-2.8,9-7.5,9.6c-0.3,0-0.7,0.1-1,0.1H436.1z"/>
	<path class="st27" d="M517,1439.3L517,1439.3c-0.3,0-0.5-0.1-0.8-0.1c-0.9-0.1-1.8-0.3-2.7-0.4c-0.4,0-0.8-0.1-1.3-0.1
		c-0.8-0.1-1.5-0.1-2.3-0.2c-0.4,0-0.9-0.1-1.3-0.1c-1.2-0.1-2.4-0.1-3.6-0.1s-2.4,0-3.6,0.1c-0.5,0-1.1,0.1-1.6,0.1
		c-0.6,0-1.2,0.1-1.8,0.1c-0.7,0.1-1.4,0.1-2.1,0.2c-0.3,0-0.7,0.1-1,0.1c-36,4.8-64.3,34.8-67.5,72.2c-0.3,3.6,2.3,6.7,5.9,7
		c0.2,0,0.4,0,0.6,0h142.5c3.6,0,6.5-2.9,6.5-6.4c0-0.2,0-0.3,0-0.5C579.6,1474.6,552.2,1444.9,517,1439.3z M454,1496.3
		c6.9-25.1,25.7-45.2,50.2-53.8c24.6,8.6,43.4,28.7,50.3,53.8c1.6,5.7-1.8,11.6-7.6,13.2c-0.9,0.3-1.9,0.4-2.8,0.4h-79.7
		c-5.9,0-10.8-4.8-10.8-10.7C453.7,1498.2,453.8,1497.2,454,1496.3z"/>
	<path class="st3" d="M436.2,1518.3c-4.8,0-8.7-3.9-8.7-8.7c0-0.3,0-0.7,0.1-1c4.7-39.6,37.6-70.2,77.4-70.2s72.7,30.7,77.4,70.2
		c0.6,4.8-2.8,9.1-7.6,9.7c-0.3,0-0.7,0.1-1,0.1L436.2,1518.3L436.2,1518.3z"/>
	<line class="st28" x1="505" y1="-321.4" x2="505" y2="1438.3"/>
</g>
</svg>
