<svg id="Layer_1" data-name="Layer 1" xmlns="http://www.w3.org/2000/svg" viewBox="0 0 1000 1000"><defs><style>.cls-1{fill:#3197d6;}.cls-2{fill:#68cce9;opacity:0.64;}.cls-19,.cls-2,.cls-20,.cls-5,.cls-9{isolation:isolate;}.cls-3{fill:#282323;}.cls-10,.cls-21,.cls-25,.cls-26,.cls-3,.cls-6{stroke:#000;stroke-linecap:round;stroke-linejoin:round;}.cls-10,.cls-3,.cls-6{stroke-width:4px;}.cls-4,.cls-5{fill:#442c2a;}.cls-5{opacity:0.37;}.cls-21,.cls-25,.cls-26,.cls-6{fill:none;}.cls-7,.cls-9{fill:#151e28;}.cls-8{fill:#2a3749;}.cls-9{opacity:0.67;}.cls-10,.cls-12{fill:#2d2d2d;}.cls-11{fill:#f1534d;}.cls-13{opacity:0.24;}.cls-14{fill:#f46262;}.cls-15{fill:#ffc897;}.cls-16{fill:#e5a973;}.cls-17{fill:#607691;}.cls-18,.cls-20{fill:#b5b5b5;}.cls-19,.cls-22{fill:#7e7e7e;}.cls-19{opacity:0.21;}.cls-20{opacity:0.66;}.cls-21{stroke-width:6px;}.cls-23{fill:#231a17;}.cls-24{opacity:0.34;}.cls-25{stroke-width:3px;}.cls-26{stroke-width:2px;}</style></defs><title>freelancing</title><rect id="_Path_" data-name="&lt;Path&gt;" class="cls-1" width="1000" height="1000"/><g id="_Group_" data-name="&lt;Group&gt;"><ellipse id="_Path_2" data-name="&lt;Path&gt;" class="cls-2" cx="492.2" cy="720.8" rx="235.1" ry="47.3"/><g id="_Group_2" data-name="&lt;Group&gt;"><path id="_Path_3" data-name="&lt;Path&gt;" class="cls-3" d="M328.5-104.9c3.3-10.7,13.4-16.4,29.8-21.2,10.4-3,23.6-4.4,44.3-8.6a63.74,63.74,0,0,0,17.2-6v11.5S351.3-115.7,340.6-98c-5.2,8.7-3.6,30,20.9,32.2-7.5,1.1-19.8-.8-26.4-7.5C326.9-81.6,324.7-92.7,328.5-104.9Z" transform="translate(51 818.1)"/><path id="_Path_4" data-name="&lt;Path&gt;" class="cls-4" d="M419.8-129.2s-41,7.6-62.9,17c-19.2,8.3-18.6,16.9-19.1,25.7-.3,5.1,3.3,17.7,17.9,19.9,17.4,2.6,37.9-.2,64.1-16.9Z" transform="translate(51 818.1)"/><path id="_Path_5" data-name="&lt;Path&gt;" class="cls-5" d="M337.8-86.5c.4-7.1.1-14.1,10.1-20.9a61.5,61.5,0,0,0-.6,7.4c-.3,5.1,12-1.5,26.6.6,15.2,2.3,24.2,19.7,45.9,8v7.8c-26.2,16.7-46.7,19.4-64.1,16.9C341.1-68.8,337.5-81.5,337.8-86.5Z" transform="translate(51 818.1)"/><path id="_Path_6" data-name="&lt;Path&gt;" class="cls-6" d="M419.8-129.2s-41,7.6-62.9,17c-19.2,8.3-18.6,16.9-19.1,25.7-.3,5.1,3.3,17.7,17.9,19.9,17.4,2.6,37.9-.2,64.1-16.9Z" transform="translate(51 818.1)"/><path id="_Path_7" data-name="&lt;Path&gt;" class="cls-6" d="M381.8-105.7c-3.3,1.8-2.5,19.3,5.5,21.7" transform="translate(51 818.1)"/><path id="_Path_8" data-name="&lt;Path&gt;" class="cls-6" d="M394.3-107c-3.4,4.8-1,16.1,5.1,18.9" transform="translate(51 818.1)"/><path id="_Path_9" data-name="&lt;Path&gt;" class="cls-6" d="M405.8-111c-3.4,4.8-1,16.1,5.1,18.9" transform="translate(51 818.1)"/></g><path id="_Path_10" data-name="&lt;Path&gt;" class="cls-7" d="M523.8-162.8c-21.6,15-52.3,23.6-84.4,23.6s-62.8-8.6-84.4-23.6c-9.9-6.9-26.5-21.3-26.5-40.5s16.6-33.6,26.5-40.5c21.6-15,52.3-23.6,84.4-23.6s62.8,8.6,84.4,23.6c9.9,6.9,26.5,21.3,26.5,40.5S533.7-169.7,523.8-162.8Z" transform="translate(51 818.1)"/><path id="_Path_11" data-name="&lt;Path&gt;" class="cls-8" d="M622.7-187.3c-.4,2-.8,3.9-1.4,5.9C605.7-124.5,530.5-81.3,440-81.3c-90.7,0-166.1-43.4-181.4-100.5-.4-1.6-.8-3.2-1.1-4.8a27.23,27.23,0,0,1,.3-9c3.7-16.8,24.1-26.5,45.6-21.7,14.1,3.1,25.1,11.8,30,22.1a38.27,38.27,0,0,0,2.2,6.5c5.2,12,15.6,21,22.6,26,20.9,15,50.8,23.6,81.8,23.6s60.9-8.6,81.8-23.6c7.1-5.1,17.6-14.2,22.7-26.2a42.22,42.22,0,0,0,2-6c4.8-10.4,15.9-19.1,30.1-22.3,21.5-4.8,41.9,5,45.6,21.7A22.45,22.45,0,0,1,622.7-187.3Z" transform="translate(51 818.1)"/><path id="_Path_12" data-name="&lt;Path&gt;" class="cls-9" d="M622.2-195.7a7.37,7.37,0,0,0-.4-1.4,43.7,43.7,0,0,1-1.2,4.9C605.2-135.3,529.9-92.1,439.5-92.1c-90.7,0-166.1-43.4-181.4-100.5-.2-.6-.3-1.2-.5-1.9a24.9,24.9,0,0,0-.1,7.7c.3,1.6.7,3.2,1.1,4.8C273.9-124.9,349.3-81.5,440-81.5c90.5,0,165.7-43.2,181.3-100.1.5-1.9,1-3.9,1.4-5.9A23,23,0,0,0,622.2-195.7Z" transform="translate(51 818.1)"/><path id="_Path_13" data-name="&lt;Path&gt;" class="cls-6" d="M622.7-187.3c-.4,2-.8,3.9-1.4,5.9C605.7-124.5,530.5-81.3,440-81.3c-90.7,0-166.1-43.4-181.4-100.5-.4-1.6-.8-3.2-1.1-4.8a27.23,27.23,0,0,1,.3-9c3.7-16.8,24.1-26.5,45.6-21.7,14.1,3.1,25.1,11.8,30,22.1a38.27,38.27,0,0,0,2.2,6.5c5.2,12,15.6,21,22.6,26,20.9,15,50.8,23.6,81.8,23.6s60.9-8.6,81.8-23.6c7.1-5.1,17.6-14.2,22.7-26.2a42.22,42.22,0,0,0,2-6c4.8-10.4,15.9-19.1,30.1-22.3,21.5-4.8,41.9,5,45.6,21.7A22.45,22.45,0,0,1,622.7-187.3Z" transform="translate(51 818.1)"/><ellipse id="_Path_14" data-name="&lt;Path&gt;" class="cls-10" cx="492.2" cy="617.8" rx="90.1" ry="30.6"/><ellipse id="_Path_15" data-name="&lt;Path&gt;" class="cls-6" cx="492.2" cy="617.8" rx="90.1" ry="30.6"/><g id="_Group_3" data-name="&lt;Group&gt;"><path id="_Path_16" data-name="&lt;Path&gt;" class="cls-11" d="M543.8-267.1H336.2A26.38,26.38,0,0,1,310-296.8l9.2-73.5A41.83,41.83,0,0,1,360.8-407H519.4A42,42,0,0,1,561-370.3l9.2,73.5A26.63,26.63,0,0,1,543.8-267.1Z" transform="translate(51 818.1)"/><path id="_Path_17" data-name="&lt;Path&gt;" class="cls-6" d="M543.8-267.1H336.2A26.38,26.38,0,0,1,310-296.8l9.2-73.5A41.83,41.83,0,0,1,360.8-407H519.4A42,42,0,0,1,561-370.3l9.2,73.5A26.63,26.63,0,0,1,543.8-267.1Z" transform="translate(51 818.1)"/><path id="_Path_18" data-name="&lt;Path&gt;" class="cls-6" d="M364-344.9" transform="translate(51 818.1)"/><g id="_Group_4" data-name="&lt;Group&gt;"><line id="_Path_19" data-name="&lt;Path&gt;" class="cls-6" x1="409.7" y1="473.2" x2="407.7" y2="498.3"/><line id="_Path_20" data-name="&lt;Path&gt;" class="cls-6" x1="573.8" y1="473.2" x2="575.8" y2="498.3"/></g></g><g id="_Group_5" data-name="&lt;Group&gt;"><path id="_Path_21" data-name="&lt;Path&gt;" class="cls-12" d="M543.8-267.1H336.2A26.38,26.38,0,0,1,310-296.8l9.2-73.5A41.83,41.83,0,0,1,360.8-407H519.4A42,42,0,0,1,561-370.3l9.2,73.5A26.63,26.63,0,0,1,543.8-267.1Z" transform="translate(51 818.1)"/><g id="_Group_6" data-name="&lt;Group&gt;" class="cls-13"><path id="_Path_22" data-name="&lt;Path&gt;" class="cls-12" d="M319.1-362.5a41.83,41.83,0,0,1,41.6-36.7H519.3a42,42,0,0,1,41.6,36.7l9.1,72.9a28.78,28.78,0,0,0,.1-7.2l-9.2-73.5A41.83,41.83,0,0,0,519.3-407H360.7a42,42,0,0,0-41.6,36.7l-9.2,73.5a24.82,24.82,0,0,0,.1,7.2Z" transform="translate(51 818.1)"/><path id="_Path_23" data-name="&lt;Path&gt;" class="cls-12" d="M369.9-399.2s12.3,2.2,13.3,9c.8,5.5.7,9.1,2.8,11.3s7,6.7,16.9,6.7c-5.5-5.5-5.6-24.8-7.1-24.8s-5-9.6-5-9.6l-4.8-2.2C386.1-408.8,368.4-406.6,369.9-399.2Z" transform="translate(51 818.1)"/><path id="_Path_24" data-name="&lt;Path&gt;" class="cls-12" d="M501.3-399.2s-12.3,2.2-13.3,9c-.8,5.5-.7,9.1-2.8,11.3s-7,6.7-16.9,6.7c5.5-5.5,5.6-24.8,7.1-24.8s5-9.6,5-9.6l4.8-2.2C485.1-408.8,502.8-406.6,501.3-399.2Z" transform="translate(51 818.1)"/></g><path id="_Path_25" data-name="&lt;Path&gt;" class="cls-10" d="M543.8-267.1H336.2A26.38,26.38,0,0,1,310-296.8l9.2-73.5A41.83,41.83,0,0,1,360.8-407H519.4A42,42,0,0,1,561-370.3l9.2,73.5A26.63,26.63,0,0,1,543.8-267.1Z" transform="translate(51 818.1)"/><path id="_Path_26" data-name="&lt;Path&gt;" class="cls-10" d="M364-344.9" transform="translate(51 818.1)"/><g id="_Group_7" data-name="&lt;Group&gt;"><line id="_Path_27" data-name="&lt;Path&gt;" class="cls-10" x1="409.7" y1="473.2" x2="407.7" y2="498.3"/><line id="_Path_28" data-name="&lt;Path&gt;" class="cls-10" x1="573.8" y1="473.2" x2="575.8" y2="498.3"/></g></g><g id="_Group_8" data-name="&lt;Group&gt;"><path id="_Path_29" data-name="&lt;Path&gt;" class="cls-10" d="M413.3-448.8l-32.9-1.7L365-448.8s-10.3,7.7-10.3,9.8,1,19.2,1,19.2,24.3,3.3,26.9,5.8,18,16.9,18,16.9l14.9-5.8,7.8-20.8Z" transform="translate(51 818.1)"/><path id="_Path_30" data-name="&lt;Path&gt;" class="cls-10" d="M407.5-461.5h-38a27.8,27.8,0,0,0-27.8,27.8h0a27.8,27.8,0,0,0,27.8,27.8h5a14.55,14.55,0,0,1,14.6,14.6v1.5a17.63,17.63,0,0,0,17.6,17.6h0v-18a.43.43,0,0,1,.4.4v-1.5a32.61,32.61,0,0,0-32.6-32.6h-5a9.82,9.82,0,0,1-9.8-9.8,9.82,9.82,0,0,1,9.8-9.8h38Z" transform="translate(51 818.1)"/><path id="_Path_31" data-name="&lt;Path&gt;" class="cls-10" d="M405.2-402.6A32.8,32.8,0,0,0,374.6-424h-5a9.82,9.82,0,0,1-9.8-9.8,9.82,9.82,0,0,1,9.8-9.8h38v-18h-38a27.8,27.8,0,0,0-27.8,27.8h0A27.8,27.8,0,0,0,369.6-406h5a14.55,14.55,0,0,1,14.6,14.6v1.5a17.63,17.63,0,0,0,17.6,17.6" transform="translate(51 818.1)"/></g><g id="_Group_9" data-name="&lt;Group&gt;"><path id="_Path_32" data-name="&lt;Path&gt;" class="cls-10" d="M456.8-448.8l32.9-1.7,15.4,1.7s10.3,7.7,10.3,9.8-1,19.2-1,19.2-24.3,3.3-26.9,5.8-18,16.9-18,16.9l-14.9-5.8-7.8-20.8Z" transform="translate(51 818.1)"/><path id="_Path_33" data-name="&lt;Path&gt;" class="cls-10" d="M462.6-461.5h38a27.8,27.8,0,0,1,27.8,27.8h0a27.8,27.8,0,0,1-27.8,27.8h-5A14.55,14.55,0,0,0,481-391.3v1.5a17.63,17.63,0,0,1-17.6,17.6h0v-18a.43.43,0,0,0-.4.4v-1.5a32.61,32.61,0,0,1,32.6-32.6h5a9.82,9.82,0,0,0,9.8-9.8,9.82,9.82,0,0,0-9.8-9.8h-38Z" transform="translate(51 818.1)"/><path id="_Path_34" data-name="&lt;Path&gt;" class="cls-10" d="M465-402.6A32.8,32.8,0,0,1,495.6-424h5a9.82,9.82,0,0,0,9.8-9.8,9.82,9.82,0,0,0-9.8-9.8h-38v-18h38a27.8,27.8,0,0,1,27.8,27.8h0A27.8,27.8,0,0,1,500.6-406h-5A14.55,14.55,0,0,0,481-391.4v1.5a17.63,17.63,0,0,1-17.6,17.6" transform="translate(51 818.1)"/></g><circle id="_Path_35" data-name="&lt;Path&gt;" class="cls-14" cx="436.9" cy="-425.4" r="39" transform="translate(837.82 892.1) rotate(-80.78)"/><path id="_Path_36" data-name="&lt;Path&gt;" class="cls-11" d="M399.6-436.9a69.15,69.15,0,0,0,37.3,11,68.3,68.3,0,0,0,37.3-11,39,39,0,0,0-37.3-27.6A39.32,39.32,0,0,0,399.6-436.9Z" transform="translate(51 818.1)"/><circle id="_Path_37" data-name="&lt;Path&gt;" class="cls-6" cx="436.9" cy="-425.4" r="39" transform="translate(837.82 892.1) rotate(-80.78)"/><path id="_Path_38" data-name="&lt;Path&gt;" class="cls-15" d="M436.9-402.8h0a23,23,0,0,1-23-23V-443a5.8,5.8,0,0,1,5.8-5.8h34.5A5.8,5.8,0,0,1,460-443v17.2A23.15,23.15,0,0,1,436.9-402.8Z" transform="translate(51 818.1)"/><path id="_Path_39" data-name="&lt;Path&gt;" class="cls-16" d="M454.2-448.8H419.7a6,6,0,0,0-5.8,6.2v14.1a65.18,65.18,0,0,0,23,4.2,65.18,65.18,0,0,0,23-4.2v-14.1A6,6,0,0,0,454.2-448.8Z" transform="translate(51 818.1)"/><path id="_Path_40" data-name="&lt;Path&gt;" class="cls-6" d="M436.9-402.8h0a23,23,0,0,1-23-23V-443a5.8,5.8,0,0,1,5.8-5.8h34.5A5.8,5.8,0,0,1,460-443v17.2A23.15,23.15,0,0,1,436.9-402.8Z" transform="translate(51 818.1)"/><path id="_Path_41" data-name="&lt;Path&gt;" class="cls-6" d="M414.7-413.9" transform="translate(51 818.1)"/><rect id="_Path_42" data-name="&lt;Path&gt;" class="cls-17" x="491.4" y="674.4" width="21.4" height="68.3"/><rect id="_Path_43" data-name="&lt;Path&gt;" class="cls-6" x="491.4" y="674.4" width="21.4" height="68.3"/><path id="_Path_44" data-name="&lt;Path&gt;" class="cls-6" d="M335.5-188.9a45.13,45.13,0,0,1-2.2-6.5A23.78,23.78,0,0,1,335.5-188.9Z" transform="translate(51 818.1)"/><path id="_Path_45" data-name="&lt;Path&gt;" class="cls-6" d="M544.6-189.1a24.9,24.9,0,0,1,2-6A38.39,38.39,0,0,1,544.6-189.1Z" transform="translate(51 818.1)"/><g id="_Group_10" data-name="&lt;Group&gt;"><path id="_Path_46" data-name="&lt;Path&gt;" class="cls-18" d="M544.3-193.9H335.8a14.87,14.87,0,0,1-14.7-12.9l-13-101.8a14.88,14.88,0,0,1,14.7-16.7H557.3A14.84,14.84,0,0,1,572-308.6L559-206.8A15,15,0,0,1,544.3-193.9Z" transform="translate(51 818.1)"/><path id="_Path_47" data-name="&lt;Path&gt;" class="cls-19" d="M558.9-213.2a14.72,14.72,0,0,1-14.7,12.9H335.8a14.87,14.87,0,0,1-14.7-12.9L308.3-313.5a16,16,0,0,0-.2,4.9l13,101.8a14.72,14.72,0,0,0,14.7,12.9H544.3A14.87,14.87,0,0,0,559-206.8l13-101.8a16,16,0,0,0-.2-4.9Z" transform="translate(51 818.1)"/><path id="_Path_48" data-name="&lt;Path&gt;" class="cls-19" d="M308.2-307.7a14.82,14.82,0,0,1,14.5-12.2H557.2a14.65,14.65,0,0,1,14.5,12.2l.1-1a14.88,14.88,0,0,0-14.7-16.7H322.8a14.84,14.84,0,0,0-14.7,16.7Z" transform="translate(51 818.1)"/><path id="_Path_49" data-name="&lt;Path&gt;" class="cls-6" d="M544.3-193.9H335.8a14.87,14.87,0,0,1-14.7-12.9l-13-101.8a14.88,14.88,0,0,1,14.7-16.7H557.3A14.84,14.84,0,0,1,572-308.6L559-206.8A15,15,0,0,1,544.3-193.9Z" transform="translate(51 818.1)"/><path id="_Path_50" data-name="&lt;Path&gt;" class="cls-20" d="M449.9-265.8a8.07,8.07,0,0,1-8.1-8.1,2.77,2.77,0,0,1,.1-.9,19.42,19.42,0,0,0-2.4-.2,13.36,13.36,0,0,0-13.3,13.3,13.36,13.36,0,0,0,13.3,13.3,13.36,13.36,0,0,0,13.3-13.3,16.19,16.19,0,0,0-.7-4.4A14.6,14.6,0,0,1,449.9-265.8Z" transform="translate(51 818.1)"/></g><g id="_Group_11" data-name="&lt;Group&gt;"><path id="_Path_51" data-name="&lt;Path&gt;" class="cls-3" d="M553.1-104.9c-3.3-10.7-13.4-16.4-29.8-21.2-10.4-3-23.6-4.4-44.3-8.6a63.74,63.74,0,0,1-17.2-6v11.5S530.3-115.7,541-98c5.2,8.7,3.6,30-20.9,32.2,7.5,1.1,19.8-.8,26.4-7.5C554.7-81.6,556.9-92.7,553.1-104.9Z" transform="translate(51 818.1)"/><path id="_Path_52" data-name="&lt;Path&gt;" class="cls-4" d="M461.8-129.2s41,7.6,62.9,17c19.2,8.3,18.6,16.9,19.1,25.7.3,5.1-3.3,17.7-17.9,19.9-17.4,2.6-37.9-.2-64.1-16.9Z" transform="translate(51 818.1)"/><path id="_Path_53" data-name="&lt;Path&gt;" class="cls-5" d="M543.8-86.5c-.4-7.1-.1-14.1-10.1-20.9a61.5,61.5,0,0,1,.6,7.4c.3,5.1-3.3,17.7-17.9,19.9-15.2,2.3-32.9.4-54.6-11.3v7.8c26.2,16.7,46.7,19.4,64.1,16.9C540.6-68.8,544.1-81.5,543.8-86.5Z" transform="translate(51 818.1)"/><path id="_Path_54" data-name="&lt;Path&gt;" class="cls-6" d="M461.8-129.2s41,7.6,62.9,17c19.2,8.3,18.6,16.9,19.1,25.7.3,5.1-3.3,17.7-17.9,19.9-17.4,2.6-37.9-.2-64.1-16.9Z" transform="translate(51 818.1)"/><path id="_Path_55" data-name="&lt;Path&gt;" class="cls-6" d="M499.8-105.7c3.3,1.8,2.5,19.3-5.5,21.7" transform="translate(51 818.1)"/><path id="_Path_56" data-name="&lt;Path&gt;" class="cls-6" d="M487.3-107c3.4,4.8,1,16.1-5.1,18.9" transform="translate(51 818.1)"/><path id="_Path_57" data-name="&lt;Path&gt;" class="cls-6" d="M475.8-111c3.4,4.8,1,16.1-5.1,18.9" transform="translate(51 818.1)"/></g><line id="_Path_58" data-name="&lt;Path&gt;" class="cls-21" x1="452.8" y1="435.7" x2="452.8" y2="488.9"/><line id="_Path_59" data-name="&lt;Path&gt;" class="cls-21" x1="520.3" y1="435.7" x2="520.3" y2="473.2"/><circle id="_Path_60" data-name="&lt;Path&gt;" cx="520.3" cy="476.2" r="8.3"/><circle id="_Path_61" data-name="&lt;Path&gt;" class="cls-22" cx="520.3" cy="475.2" r="3.4"/><g id="_Group_12" data-name="&lt;Group&gt;"><path id="_Path_62" data-name="&lt;Path&gt;" class="cls-15" d="M436.9-431.9h0A63.1,63.1,0,0,1,373.8-495v-73.2H500V-495A63.1,63.1,0,0,1,436.9-431.9Z" transform="translate(51 818.1)"/><path id="_Path_63" data-name="&lt;Path&gt;" class="cls-16" d="M436.9-440.6h0a63.1,63.1,0,0,1-63.1-63.1v8.7a63.1,63.1,0,0,0,63.1,63.1h0A63.1,63.1,0,0,0,500-495v-8.7A63.1,63.1,0,0,1,436.9-440.6Z" transform="translate(51 818.1)"/><path id="_Path_64" data-name="&lt;Path&gt;" class="cls-6" d="M436.9-431.9h0A63.1,63.1,0,0,1,373.8-495v-73.2H500V-495A63.1,63.1,0,0,1,436.9-431.9Z" transform="translate(51 818.1)"/><path id="_Path_65" data-name="&lt;Path&gt;" class="cls-16" d="M500.5-560.9c-.2-3.4-.4-6.9-.5-10.3-42,2-84.2,1.7-126.1-2-.3,3.9-.5,7.8-.8,11.7l5.8,5.2c1.6.8,3.7,1.9,5.6,2.9,8.4,4.4,20.1,10,31.3,12.2a59.81,59.81,0,0,0,12.8,1.1c18.9-.2,34.8-7.7,41.5-10.8a12.13,12.13,0,0,1,2.3-1,2.9,2.9,0,0,1,1.4-.3,27.36,27.36,0,0,1,4.3.6,26,26,0,0,0,7.7.8,18.39,18.39,0,0,0,9.2-3.1C496.7-556.3,498.6-558.6,500.5-560.9Z" transform="translate(51 818.1)"/><path id="_Path_66" data-name="&lt;Path&gt;" class="cls-23" d="M470.1-598.9s-50.5-33.3-92.3,3.9c-7.8,6.9-10.9,16.8-10.9,25.9v48.2h7v-35c0-2.6,1.8-4.6,4-4.6h0c3.6,0,23.1,10.4,39.6,13.3,24.9,4.3,47.6-7.2,52.5-8.9,8.4-3,15.2,7.4,25.8-4.3h.4c2.2,0,4,2.1,4,4.6v35h7v-48C507-580.6,493.4-610.2,470.1-598.9Z" transform="translate(51 818.1)"/><g id="_Group_13" data-name="&lt;Group&gt;" class="cls-24"><rect id="_Path_67" data-name="&lt;Path&gt;" class="cls-23" x="417.8" y="290.6" width="7" height="6.6"/><rect id="_Path_68" data-name="&lt;Path&gt;" class="cls-23" x="551" y="290.6" width="7" height="6.6"/></g><path id="_Path_69" data-name="&lt;Path&gt;" class="cls-6" d="M470.1-598.9s-50.5-33.3-92.3,3.9c-7.8,6.9-10.9,16.8-10.9,25.9v48.2h7v-35c0-2.6,1.8-4.6,4-4.6h0c3.6,0,23.1,10.4,39.6,13.3,24.9,4.3,47.6-7.2,52.5-8.9,8.4-3,15.2,7.4,25.8-4.3h.4c2.2,0,4,2.1,4,4.6v35h7v-48C507-580.6,493.4-610.2,470.1-598.9Z" transform="translate(51 818.1)"/><path id="_Path_70" data-name="&lt;Path&gt;" class="cls-6" d="M427.4-566.4s-54.2,3.5-65.7-25.3" transform="translate(51 818.1)"/><path id="_Path_71" data-name="&lt;Path&gt;" class="cls-6" d="M435.1-573.3s-52.2-3.3-65.8-32.1" transform="translate(51 818.1)"/><path id="_Path_72" data-name="&lt;Path&gt;" class="cls-15" d="M500-528.7v32.8c7,0,12.6-7.3,12.6-16.4h0C512.6-521.4,507-528.7,500-528.7Z" transform="translate(51 818.1)"/><path id="_Path_73" data-name="&lt;Path&gt;" class="cls-16" d="M500-526.9v29.1c4.1-2.7,6.9-8.2,6.9-14.6h0C506.9-518.7,504.1-524.2,500-526.9Z" transform="translate(51 818.1)"/><path id="_Path_74" data-name="&lt;Path&gt;" class="cls-6" d="M500-528.7v32.8c7,0,12.6-7.3,12.6-16.4h0C512.6-521.4,507-528.7,500-528.7Z" transform="translate(51 818.1)"/><path id="_Path_75" data-name="&lt;Path&gt;" class="cls-15" d="M373.9-528.7v32.8c-7,0-12.6-7.3-12.6-16.4h0C361.2-521.4,366.9-528.7,373.9-528.7Z" transform="translate(51 818.1)"/><path id="_Path_76" data-name="&lt;Path&gt;" class="cls-16" d="M373.9-526.3c-3.6,2.9-6.1,8.1-6.1,14h0c0,5.9,2.4,11.1,6.1,14Z" transform="translate(51 818.1)"/><path id="_Path_77" data-name="&lt;Path&gt;" class="cls-6" d="M373.9-528.7v32.8c-7,0-12.6-7.3-12.6-16.4h0C361.2-521.4,366.9-528.7,373.9-528.7Z" transform="translate(51 818.1)"/><path id="_Path_78" data-name="&lt;Path&gt;" class="cls-6" d="M434.3-502l-4.2,13.7c0,1.5,4.9.3,9.9,1.5" transform="translate(51 818.1)"/><path id="_Path_79" data-name="&lt;Path&gt;" class="cls-25" d="M457.9-476.4c1.5,10.4-11.9,19.6-22.4,17.7" transform="translate(51 818.1)"/><g id="_Group_14" data-name="&lt;Group&gt;"><ellipse id="_Path_80" data-name="&lt;Path&gt;" class="cls-26" cx="465.2" cy="300" rx="4.2" ry="4.5"/><ellipse id="_Path_81" data-name="&lt;Path&gt;" cx="465.2" cy="300" rx="4.2" ry="4.5"/><path id="_Path_82" data-name="&lt;Path&gt;" class="cls-25" d="M399.7-527.6c2.1-2.5,7-4.2,12.8-4.2,4.6,0,8.6,1.1,11.1,2.8" transform="translate(51 818.1)"/></g><g id="_Group_15" data-name="&lt;Group&gt;"><ellipse id="_Path_83" data-name="&lt;Path&gt;" class="cls-26" cx="511.2" cy="300" rx="4.2" ry="4.5"/><ellipse id="_Path_84" data-name="&lt;Path&gt;" cx="511.2" cy="300" rx="4.2" ry="4.5"/><path id="_Path_85" data-name="&lt;Path&gt;" class="cls-25" d="M474.7-527.6c-2.1-2.5-7-4.2-12.8-4.2-4.6,0-8.6,1.1-11.1,2.8" transform="translate(51 818.1)"/></g></g></g></svg>