<svg xmlns="http://www.w3.org/2000/svg" viewBox="0 0 472.96 456.14"><defs><style>.cls-1{fill:#ebebeb;}.cls-2{opacity:0.05;}.cls-3{fill:#27debf;}.cls-14,.cls-17,.cls-4{opacity:0.4;}.cls-5{opacity:0.2;}.cls-6{opacity:0.3;}.cls-7{opacity:0.1;}.cls-17,.cls-8{fill:#455a64;}.cls-9{fill:#37474f;}.cls-10,.cls-14{fill:#fff;}.cls-10,.cls-18{opacity:0.5;}.cls-11{fill:#263238;}.cls-12{fill:#f0f0f0;}.cls-13{fill:#fafafa;}.cls-15{fill:#e0e0e0;}.cls-16{fill:#f5f5f5;}.cls-19{fill:#733232;}.cls-20{fill:#b16668;}.cls-21{fill:#ed9b80;}.cls-22{fill:#ffbda7;}.cls-23{fill:#ffa8a7;}.cls-24{fill:#f28f8f;}</style></defs><title>GirlWritingBlog</title><g id="Floor"><g id="Floor-2" data-name="Floor"><ellipse id="Floor-3" data-name="Floor" class="cls-1" cx="236.48" cy="315.83" rx="236.48" ry="140.31"/></g></g><g id="Shadows"><ellipse id="Shadow" class="cls-2" cx="304.06" cy="399.33" rx="61.64" ry="35.59"/><path id="Shadow-2" data-name="Shadow" class="cls-2" d="M458.76,294.85c-17.35-7.5-45-7.5-61.77,0S380.22,314.5,397,322s44.42,7.5,61.77,0S476.1,302.35,458.76,294.85Z" transform="translate(-12.57 -12.9)"/><path id="Shadow-3" data-name="Shadow" class="cls-2" d="M354.43,326.63l-103-59.44L295.05,242c2.19-1.27,2.19-3.32,0-4.59l-38.93-22.48a8.83,8.83,0,0,0-8,0L21.72,345.67c-2.2,1.27-2.2,3.33,0,4.59l38.93,22.48a8.77,8.77,0,0,0,7.95,0L88,361.59,191,421Z" transform="translate(-12.57 -12.9)"/></g><g id="Device"><g id="Device-2" data-name="Device"><g id="_Group_" data-name="&lt;Group&gt;"><g id="_Group_2" data-name="&lt;Group&gt;"><path id="_Path_" data-name="&lt;Path&gt;" class="cls-3" d="M202.51,327.47,236,308.12c3.45-2,5.18-4.6,5.18-7.21s0-4.66,0-4.66l-34.72-19.58a7.35,7.35,0,0,1-3.33-5.77V229.45l-58.46,33.78v41.45a7.35,7.35,0,0,0,3.33,5.77l29.54,17C184.42,331.46,195.61,331.46,202.51,327.47Z" transform="translate(-12.57 -12.9)"/></g><g id="_Group_3" data-name="&lt;Group&gt;" class="cls-4"><path id="_Path_2" data-name="&lt;Path&gt;" d="M202.51,327.47,236,308.12c3.45-2,5.18-4.6,5.18-7.21s0-4.66,0-4.66l-34.72-19.58a7.35,7.35,0,0,1-3.33-5.77V229.45l-58.46,33.78v41.45a7.35,7.35,0,0,0,3.33,5.77l29.54,17C184.42,331.46,195.61,331.46,202.51,327.47Z" transform="translate(-12.57 -12.9)"/></g><path id="_Path_3" data-name="&lt;Path&gt;" class="cls-5" d="M158.68,312v4.63L148,310.45a7.38,7.38,0,0,1-3.33-5.77V263.23l11.14-6.42c.23,2.82.48,5.75.71,8.59l-7.81,4.52v32.43a7.31,7.31,0,0,0,3.33,5.77Z" transform="translate(-12.57 -12.9)"/><path id="_Path_4" data-name="&lt;Path&gt;" class="cls-3" d="M148.68,302.36a7.36,7.36,0,0,0,3.33,5.77l25.5,14.69c6.9,4,18.09,4,25,0L236,303.47c6.9-4,6.9-10.44,0-14.42l-25.52-14.7a7.36,7.36,0,0,1-3.33-5.77V236.15l-58.46,33.78Z" transform="translate(-12.57 -12.9)"/><path id="_Path_5" data-name="&lt;Path&gt;" class="cls-6" d="M148.68,302.36a7.36,7.36,0,0,0,3.33,5.77l25.5,14.69c6.9,4,18.09,4,25,0L236,303.47c6.9-4,6.9-10.44,0-14.42l-25.52-14.7a7.36,7.36,0,0,1-3.33-5.77V236.15l-58.46,33.78Z" transform="translate(-12.57 -12.9)"/><path id="_Path_6" data-name="&lt;Path&gt;" class="cls-7" d="M217.26,278.27h0l-6.79-3.92a7.36,7.36,0,0,1-3.33-5.77V236.15l-58.46,33.78v32.43a7.36,7.36,0,0,0,3.33,5.77l6.67,3.85Z" transform="translate(-12.57 -12.9)"/><path id="_Path_7" data-name="&lt;Path&gt;" class="cls-3" d="M241.16,296.26v4.65c0,2.62-1.73,5.21-5.18,7.22l-33.47,19.34a25.15,25.15,0,0,1-11.93,3v-4.64a25.15,25.15,0,0,0,11.93-3L236,303.47C239.43,301.49,241.16,298.87,241.16,296.26Z" transform="translate(-12.57 -12.9)"/><path id="_Path_8" data-name="&lt;Path&gt;" class="cls-5" d="M241.16,296.26v4.65c0,2.62-1.73,5.21-5.18,7.22l-33.47,19.34a25.15,25.15,0,0,1-11.93,3v-4.64a25.15,25.15,0,0,0,11.93-3L236,303.47C239.43,301.49,241.16,298.87,241.16,296.26Z" transform="translate(-12.57 -12.9)"/></g><path id="_Path_9" data-name="&lt;Path&gt;" class="cls-8" d="M54.82,341.48c2.16,1.24,5.77,2.13,8.07.81L289,211.77c2.3-1.33,4.17-9.36,4.17-12V20.86a8.94,8.94,0,0,0-3.91-7.07,8.94,8.94,0,0,0-8.07.15L55.08,144.46a9.22,9.22,0,0,0-4.17,7.22V334.41A8.94,8.94,0,0,0,54.82,341.48Z" transform="translate(-12.57 -12.9)"/><path id="_Path_10" data-name="&lt;Path&gt;" class="cls-3" d="M62.3,347a9.05,9.05,0,0,1-7.48-.13c-3.21-1.84-3.91-5.36-3.91-8V323l7.81,4.52v16.84C58.72,346.75,60.28,347.82,62.3,347Z" transform="translate(-12.57 -12.9)"/><path id="_Path_11" data-name="&lt;Path&gt;" class="cls-4" d="M62.3,347a9.05,9.05,0,0,1-7.48-.13c-3.21-1.84-3.91-5.36-3.91-8V323l7.81,4.52v16.84C58.72,346.75,60.28,347.82,62.3,347Z" transform="translate(-12.57 -12.9)"/><path id="_Path_12" data-name="&lt;Path&gt;" class="cls-9" d="M62.89,342.28,289,211.76c2.3-1.33,4.17-9.35,4.17-12V20.85c0-2.65-1.87-3.73-4.17-2.4L62.89,149a9.2,9.2,0,0,0-4.17,7.21V338.92C58.73,341.57,60.59,343.61,62.89,342.28Z" transform="translate(-12.57 -12.9)"/><path id="_Path_13" data-name="&lt;Path&gt;" class="cls-3" d="M58.72,327.48v16.84c0,2.65,1.87,3.73,4.17,2.4L289,216.2a9.22,9.22,0,0,0,4.17-7.21V192.11Z" transform="translate(-12.57 -12.9)"/><path id="_Path_14" data-name="&lt;Path&gt;" class="cls-6" d="M58.72,327.48v16.84c0,2.65,1.87,3.73,4.17,2.4L289,216.2a9.22,9.22,0,0,0,4.17-7.21V192.11Z" transform="translate(-12.57 -12.9)"/><path id="_Path_15" data-name="&lt;Path&gt;" class="cls-3" d="M66.54,306.59V158.77a5.51,5.51,0,0,1,2.5-4.32L282.81,31c1.38-.79,2.5-.15,2.5,1.45V180.28a5.51,5.51,0,0,1-2.5,4.33L69,308C67.66,308.83,66.54,308.18,66.54,306.59Z" transform="translate(-12.57 -12.9)"/><path id="_Path_16" data-name="&lt;Path&gt;" class="cls-3" d="M66.54,306.59V158.77a5.51,5.51,0,0,1,2.5-4.32L282.81,31c1.38-.79,2.5-.15,2.5,1.45V180.28a5.51,5.51,0,0,1-2.5,4.33L69,308C67.66,308.83,66.54,308.18,66.54,306.59Z" transform="translate(-12.57 -12.9)"/><path id="_Path_17" data-name="&lt;Path&gt;" class="cls-10" d="M66.54,306.59V158.77a5.51,5.51,0,0,1,2.5-4.32L282.81,31c1.38-.79,2.5-.15,2.5,1.45V180.28a5.51,5.51,0,0,1-2.5,4.33L69,308C67.66,308.83,66.54,308.18,66.54,306.59Z" transform="translate(-12.57 -12.9)"/><path id="_Path_18" data-name="&lt;Path&gt;" class="cls-8" d="M175.92,265.8a7.62,7.62,0,0,0-3.44,6c0,2.19,1.54,3.09,3.44,2a7.6,7.6,0,0,0,3.45-6C179.37,265.59,177.83,264.7,175.92,265.8Z" transform="translate(-12.57 -12.9)"/><path id="_Path_19" data-name="&lt;Path&gt;" class="cls-11" d="M60,152.06a8.86,8.86,0,0,0-1.23,4.12v171.3L50.91,323V151.68a8.63,8.63,0,0,1,1.23-4.12Z" transform="translate(-12.57 -12.9)"/><g id="_Group_4" data-name="&lt;Group&gt;"><g id="_Group_5" data-name="&lt;Group&gt;"><polygon id="_Path_20" data-name="&lt;Path&gt;" class="cls-1" points="238.85 56.59 79.31 148.71 79.31 281.94 78.78 282.25 77.84 282.79 75.49 284.14 75.49 146.51 235.03 54.39 237.94 56.07 238.85 56.59"/><polygon id="_Path_21" data-name="&lt;Path&gt;" class="cls-12" points="238.85 56.59 238.85 189.83 85.03 278.64 81.22 280.84 80.27 281.39 79.33 281.92 79.31 281.94 79.31 148.71 238.85 56.59"/><polygon id="_Path_22" data-name="&lt;Path&gt;" class="cls-13" points="235.03 54.39 238.85 56.6 79.31 148.71 75.49 146.5 235.03 54.39"/></g><g id="_Group_6" data-name="&lt;Group&gt;"><polygon id="_Path_23" data-name="&lt;Path&gt;" class="cls-3" points="240.22 55.83 238.85 56.62 79.31 148.73 78.78 149.03 78.78 282.25 77.84 282.79 77.84 148.5 78.39 148.18 237.94 56.07 239.29 55.29 240.22 55.83"/><polygon id="_Path_24" data-name="&lt;Path&gt;" class="cls-7" points="240.22 55.83 238.85 56.62 79.31 148.73 78.78 149.03 78.78 282.25 77.84 282.79 77.84 148.5 78.39 148.18 237.94 56.07 239.29 55.29 240.22 55.83"/><path id="_Compound_Path_" data-name="&lt;Compound Path&gt;" class="cls-3" d="M251.42,69.52,91.88,161.63h0l-.53.31v133.2l.53-.31,0,0,.94-.53,1-.55,3.81-2.2,153.82-88.81,1.37-.78V68.73Z" transform="translate(-12.57 -12.9)"/><path id="_Compound_Path_2" data-name="&lt;Compound Path&gt;" class="cls-2" d="M251.42,69.52,91.88,161.63h0l-.53.31v133.2l.53-.31,0,0,.94-.53,1-.55,3.81-2.2,153.82-88.81,1.37-.78V68.73Z" transform="translate(-12.57 -12.9)"/><polygon id="_Path_25" data-name="&lt;Path&gt;" class="cls-3" points="239.29 55.29 240.22 55.83 78.78 149.04 77.84 148.5 239.29 55.29"/><polygon id="_Path_26" data-name="&lt;Path&gt;" class="cls-14" points="239.29 55.29 240.22 55.83 78.78 149.04 77.84 148.5 239.29 55.29"/></g><g id="_Group_7" data-name="&lt;Group&gt;"><polygon id="_Path_27" data-name="&lt;Path&gt;" class="cls-3" points="241.72 56.69 240.22 57.55 238.85 58.35 192.24 85.25 80.27 149.9 80.27 281.39 79.33 281.92 79.33 149.36 238.85 57.27 240.22 56.48 240.79 56.15 241.72 56.69"/><polygon id="_Path_28" data-name="&lt;Path&gt;" class="cls-7" points="241.72 56.69 240.22 57.55 238.85 58.35 192.24 85.25 80.27 149.9 80.27 281.39 79.33 281.92 79.33 149.36 238.85 57.27 240.22 56.48 240.79 56.15 241.72 56.69"/><path id="_Compound_Path_3" data-name="&lt;Compound Path&gt;" class="cls-3" d="M252.79,70.45l-1.37.8L204.81,98.16l-112,64.65V294.29l1-.55,3.81-2.2,153.82-88.81,1.37-.78,1.49-.86V69.59Z" transform="translate(-12.57 -12.9)"/><polygon id="_Path_29" data-name="&lt;Path&gt;" class="cls-3" points="240.78 56.15 241.72 56.69 80.27 149.9 79.34 149.37 240.78 56.15"/><polygon id="_Path_30" data-name="&lt;Path&gt;" class="cls-14" points="240.78 56.15 241.72 56.69 80.27 149.9 79.34 149.37 240.78 56.15"/></g><polygon id="_Path_31" data-name="&lt;Path&gt;" class="cls-1" points="244.58 59.91 241.72 61.56 240.22 62.43 238.85 63.21 85.03 152.01 85.03 278.64 81.22 280.84 81.22 149.81 238.85 58.81 240.22 58.01 240.76 57.7 241.72 58.26 244.58 59.91"/><polygon id="_Path_32" data-name="&lt;Path&gt;" class="cls-13" points="240.75 57.7 244.57 59.9 85.04 152.01 81.22 149.81 240.75 57.7"/><polygon id="_Path_33" data-name="&lt;Path&gt;" class="cls-15" points="85.04 152.01 85.04 278.62 244.58 186.51 244.57 59.9 85.04 152.01"/></g></g></g><g id="Notebook"><g id="Notebook-2" data-name="Notebook"><path id="_Path_34" data-name="&lt;Path&gt;" class="cls-16" d="M268.46,167.87,257.15,72.81,97.6,164.92l11.64,95.86a247.91,247.91,0,0,0,81.24,155.3l.51.46,159.55-92.11h0A247.89,247.89,0,0,1,268.46,167.87Z" transform="translate(-12.57 -12.9)"/><g id="_Group_8" data-name="&lt;Group&gt;"><g id="_Group_9" data-name="&lt;Group&gt;"><g id="_Group_10" data-name="&lt;Group&gt;"><g id="_Group_11" data-name="&lt;Group&gt;"><path id="_Path_35" data-name="&lt;Path&gt;" class="cls-9" d="M105.28,165.55c1.1-.63,2-.12,2,1.15a4.41,4.41,0,0,1-2,3.46c-1.11.64-2,.12-2-1.15A4.41,4.41,0,0,1,105.28,165.55Z" transform="translate(-12.57 -12.9)"/><path id="_Path_36" data-name="&lt;Path&gt;" class="cls-3" d="M99.66,149.64c-2.17-1.26-4.25-1.44-5.86-.51s-2.49,2.82-2.49,5.33a12.24,12.24,0,0,0,.35,2.83l1.33-.77a10.51,10.51,0,0,1-.21-2.06c0-2,.63-3.4,1.76-4.06s2.68-.47,4.38.51a15.2,15.2,0,0,1,6.88,11.91,6.24,6.24,0,0,1-.56,2.76,3.14,3.14,0,0,1-1.19,1.3l-.12.06a4.18,4.18,0,0,0-.63,1.73,4.21,4.21,0,0,0,1.48-.52,4.68,4.68,0,0,0,2.07-2.61,8.14,8.14,0,0,0,.42-2.72A16.84,16.84,0,0,0,99.66,149.64Z" transform="translate(-12.57 -12.9)"/></g><g id="_Group_12" data-name="&lt;Group&gt;"><path id="_Path_37" data-name="&lt;Path&gt;" class="cls-9" d="M115,160c1.1-.64,2-.12,2,1.15a4.43,4.43,0,0,1-2,3.46c-1.11.63-2,.12-2-1.16A4.39,4.39,0,0,1,115,160Z" transform="translate(-12.57 -12.9)"/><path id="_Path_38" data-name="&lt;Path&gt;" class="cls-3" d="M109.35,144c-2.17-1.25-4.25-1.43-5.86-.5s-2.49,2.82-2.49,5.33a12.16,12.16,0,0,0,.35,2.82l1.33-.77a10.41,10.41,0,0,1-.21-2c0-2,.63-3.41,1.76-4.06s2.68-.47,4.38.51a15.19,15.19,0,0,1,6.88,11.91,6,6,0,0,1-.56,2.75,3.2,3.2,0,0,1-1.19,1.3l-.12.07a4.13,4.13,0,0,0-.63,1.73,4.21,4.21,0,0,0,1.48-.52,4.7,4.7,0,0,0,2.07-2.62,8.12,8.12,0,0,0,.42-2.71A16.84,16.84,0,0,0,109.35,144Z" transform="translate(-12.57 -12.9)"/></g><g id="_Group_13" data-name="&lt;Group&gt;"><path id="_Path_39" data-name="&lt;Path&gt;" class="cls-9" d="M124.66,154.36c1.1-.63,2-.12,2,1.15a4.41,4.41,0,0,1-2,3.46c-1.11.64-2,.12-2-1.15A4.41,4.41,0,0,1,124.66,154.36Z" transform="translate(-12.57 -12.9)"/><path id="_Path_40" data-name="&lt;Path&gt;" class="cls-3" d="M119,138.45c-2.17-1.26-4.25-1.44-5.86-.51s-2.49,2.82-2.49,5.33a12.24,12.24,0,0,0,.35,2.83l1.33-.77a10.51,10.51,0,0,1-.21-2.06c0-2,.63-3.4,1.76-4.06s2.68-.47,4.38.51a15.2,15.2,0,0,1,6.88,11.91,6.08,6.08,0,0,1-.56,2.76,3.2,3.2,0,0,1-1.19,1.3l-.12.06a4.33,4.33,0,0,0-.63,1.73,4,4,0,0,0,1.48-.52,4.71,4.71,0,0,0,2.07-2.61,8.14,8.14,0,0,0,.42-2.72A16.84,16.84,0,0,0,119,138.45Z" transform="translate(-12.57 -12.9)"/></g><g id="_Group_14" data-name="&lt;Group&gt;"><path id="_Path_41" data-name="&lt;Path&gt;" class="cls-9" d="M134.35,148.77c1.1-.64,2-.12,2,1.15a4.43,4.43,0,0,1-2,3.46c-1.1.63-2,.12-2-1.16A4.4,4.4,0,0,1,134.35,148.77Z" transform="translate(-12.57 -12.9)"/><path id="_Path_42" data-name="&lt;Path&gt;" class="cls-3" d="M128.73,132.85c-2.17-1.25-4.25-1.43-5.86-.5s-2.49,2.82-2.49,5.33a12.16,12.16,0,0,0,.35,2.82l1.33-.77a10.41,10.41,0,0,1-.21-2c0-2,.63-3.41,1.76-4.06s2.69-.47,4.38.51A15.19,15.19,0,0,1,134.87,146a6,6,0,0,1-.56,2.75,3.2,3.2,0,0,1-1.19,1.3l-.12.07a4.27,4.27,0,0,0-.63,1.73,4.21,4.21,0,0,0,1.48-.52,4.7,4.7,0,0,0,2.07-2.62,8.12,8.12,0,0,0,.42-2.71A16.84,16.84,0,0,0,128.73,132.85Z" transform="translate(-12.57 -12.9)"/></g><g id="_Group_15" data-name="&lt;Group&gt;"><path id="_Path_43" data-name="&lt;Path&gt;" class="cls-9" d="M144,143.17c1.1-.63,2-.12,2,1.15a4.41,4.41,0,0,1-2,3.46c-1.1.64-2,.12-2-1.15A4.44,4.44,0,0,1,144,143.17Z" transform="translate(-12.57 -12.9)"/><path id="_Path_44" data-name="&lt;Path&gt;" class="cls-3" d="M138.42,127.26c-2.17-1.26-4.25-1.44-5.86-.51s-2.49,2.82-2.49,5.33a12.24,12.24,0,0,0,.35,2.83l1.33-.77a10.49,10.49,0,0,1-.2-2.06c0-2,.62-3.4,1.75-4.06s2.69-.47,4.39.51a15.22,15.22,0,0,1,6.87,11.91,6.08,6.08,0,0,1-.56,2.76,3.2,3.2,0,0,1-1.19,1.3l-.12.06a4.48,4.48,0,0,0-.63,1.73,4,4,0,0,0,1.48-.52,4.71,4.71,0,0,0,2.07-2.61,8.14,8.14,0,0,0,.42-2.72A16.84,16.84,0,0,0,138.42,127.26Z" transform="translate(-12.57 -12.9)"/></g><g id="_Group_16" data-name="&lt;Group&gt;"><path id="_Path_45" data-name="&lt;Path&gt;" class="cls-9" d="M153.73,137.58c1.1-.64,2-.12,2,1.15a4.43,4.43,0,0,1-2,3.46c-1.1.63-2,.12-2-1.16A4.4,4.4,0,0,1,153.73,137.58Z" transform="translate(-12.57 -12.9)"/><path id="_Path_46" data-name="&lt;Path&gt;" class="cls-3" d="M148.11,121.66c-2.17-1.25-4.25-1.43-5.86-.5s-2.49,2.82-2.49,5.32a12.74,12.74,0,0,0,.35,2.83l1.33-.77a10.42,10.42,0,0,1-.2-2.06c0-2,.62-3.4,1.75-4s2.69-.47,4.39.51a15.2,15.2,0,0,1,6.87,11.91,6.06,6.06,0,0,1-.56,2.75,3.2,3.2,0,0,1-1.19,1.3l-.12.07a4.43,4.43,0,0,0-.63,1.73,4.34,4.34,0,0,0,1.49-.52,4.69,4.69,0,0,0,2.06-2.62,8.11,8.11,0,0,0,.43-2.71A16.85,16.85,0,0,0,148.11,121.66Z" transform="translate(-12.57 -12.9)"/></g><g id="_Group_17" data-name="&lt;Group&gt;"><path id="_Path_47" data-name="&lt;Path&gt;" class="cls-9" d="M163.42,132c1.1-.63,2-.12,2,1.15a4.41,4.41,0,0,1-2,3.46c-1.1.64-2,.12-2-1.15A4.44,4.44,0,0,1,163.42,132Z" transform="translate(-12.57 -12.9)"/><path id="_Path_48" data-name="&lt;Path&gt;" class="cls-3" d="M157.8,116.07c-2.17-1.26-4.25-1.44-5.86-.51s-2.49,2.82-2.49,5.33a12.81,12.81,0,0,0,.35,2.83l1.33-.77a11.31,11.31,0,0,1-.2-2.06c0-2,.62-3.4,1.75-4.06s2.69-.47,4.39.51a15.22,15.22,0,0,1,6.87,11.91,6.08,6.08,0,0,1-.56,2.76,3.2,3.2,0,0,1-1.19,1.3l-.12.06a4.43,4.43,0,0,0-.63,1.73,4.14,4.14,0,0,0,1.49-.52A4.7,4.7,0,0,0,165,132a8.13,8.13,0,0,0,.43-2.72A16.85,16.85,0,0,0,157.8,116.07Z" transform="translate(-12.57 -12.9)"/></g><g id="_Group_18" data-name="&lt;Group&gt;"><path id="_Path_49" data-name="&lt;Path&gt;" class="cls-9" d="M173.11,126.39c1.1-.64,2-.12,2,1.15a4.43,4.43,0,0,1-2,3.46c-1.1.63-2,.12-2-1.16A4.4,4.4,0,0,1,173.11,126.39Z" transform="translate(-12.57 -12.9)"/><path id="_Path_50" data-name="&lt;Path&gt;" class="cls-3" d="M167.49,110.47c-2.17-1.25-4.25-1.43-5.86-.5s-2.49,2.81-2.49,5.32a12.74,12.74,0,0,0,.35,2.83l1.33-.77a11.22,11.22,0,0,1-.2-2.06c0-2,.62-3.4,1.75-4.05s2.69-.47,4.39.51a15.2,15.2,0,0,1,6.87,11.91,6.06,6.06,0,0,1-.56,2.75,3.07,3.07,0,0,1-1.19,1.3l-.12.07a4.43,4.43,0,0,0-.63,1.73,4.34,4.34,0,0,0,1.49-.52,4.72,4.72,0,0,0,2.06-2.62,8.11,8.11,0,0,0,.43-2.71A16.85,16.85,0,0,0,167.49,110.47Z" transform="translate(-12.57 -12.9)"/></g><g id="_Group_19" data-name="&lt;Group&gt;"><path id="_Path_51" data-name="&lt;Path&gt;" class="cls-9" d="M182.8,120.79c1.1-.63,2-.12,2,1.15a4.41,4.41,0,0,1-2,3.46c-1.1.64-2,.12-2-1.15A4.44,4.44,0,0,1,182.8,120.79Z" transform="translate(-12.57 -12.9)"/><path id="_Path_52" data-name="&lt;Path&gt;" class="cls-3" d="M177.18,104.88c-2.17-1.26-4.25-1.44-5.86-.51s-2.49,2.82-2.49,5.33a12.81,12.81,0,0,0,.35,2.83l1.33-.77a11.31,11.31,0,0,1-.2-2.06c0-2,.62-3.4,1.75-4.06s2.69-.47,4.39.51a15.22,15.22,0,0,1,6.87,11.91,6,6,0,0,1-.56,2.75,3.16,3.16,0,0,1-1.19,1.31l-.12.06a4.43,4.43,0,0,0-.63,1.73,4.14,4.14,0,0,0,1.49-.52,4.7,4.7,0,0,0,2.06-2.61,8.13,8.13,0,0,0,.43-2.72A16.85,16.85,0,0,0,177.18,104.88Z" transform="translate(-12.57 -12.9)"/></g><g id="_Group_20" data-name="&lt;Group&gt;"><path id="_Path_53" data-name="&lt;Path&gt;" class="cls-9" d="M192.49,115.2c1.1-.64,2-.12,2,1.15a4.43,4.43,0,0,1-2,3.46c-1.1.63-2,.12-2-1.16A4.39,4.39,0,0,1,192.49,115.2Z" transform="translate(-12.57 -12.9)"/><path id="_Path_54" data-name="&lt;Path&gt;" class="cls-3" d="M186.87,99.28c-2.17-1.25-4.25-1.43-5.86-.5s-2.49,2.81-2.49,5.32a12.74,12.74,0,0,0,.35,2.83l1.33-.77a11.22,11.22,0,0,1-.2-2.06c0-2,.62-3.4,1.75-4s2.69-.47,4.39.51A15.2,15.2,0,0,1,193,112.47a6.06,6.06,0,0,1-.56,2.75,3.2,3.2,0,0,1-1.19,1.3l-.12.07a4.43,4.43,0,0,0-.63,1.73,4.34,4.34,0,0,0,1.49-.52,4.75,4.75,0,0,0,2.07-2.62,8.38,8.38,0,0,0,.42-2.71A16.85,16.85,0,0,0,186.87,99.28Z" transform="translate(-12.57 -12.9)"/></g><g id="_Group_21" data-name="&lt;Group&gt;"><path id="_Path_55" data-name="&lt;Path&gt;" class="cls-9" d="M202.18,109.6c1.1-.63,2-.12,2,1.15a4.41,4.41,0,0,1-2,3.46c-1.1.64-2,.12-2-1.15A4.43,4.43,0,0,1,202.18,109.6Z" transform="translate(-12.57 -12.9)"/><path id="_Path_56" data-name="&lt;Path&gt;" class="cls-3" d="M196.56,93.69c-2.17-1.26-4.25-1.44-5.85-.51s-2.5,2.82-2.5,5.33a12.81,12.81,0,0,0,.35,2.83l1.33-.77a11.31,11.31,0,0,1-.2-2.06c0-2,.62-3.4,1.75-4.06s2.69-.47,4.39.51a15.22,15.22,0,0,1,6.87,11.91,6,6,0,0,1-.56,2.75,3.1,3.1,0,0,1-1.19,1.31l-.12.06a4.43,4.43,0,0,0-.63,1.73,4.34,4.34,0,0,0,1.49-.52,4.71,4.71,0,0,0,2.07-2.61,8.14,8.14,0,0,0,.42-2.72A16.85,16.85,0,0,0,196.56,93.69Z" transform="translate(-12.57 -12.9)"/></g><g id="_Group_22" data-name="&lt;Group&gt;"><path id="_Path_57" data-name="&lt;Path&gt;" class="cls-9" d="M211.86,104c1.1-.64,2-.12,2,1.15a4.43,4.43,0,0,1-2,3.46c-1.1.63-2,.12-2-1.15A4.41,4.41,0,0,1,211.86,104Z" transform="translate(-12.57 -12.9)"/><path id="_Path_58" data-name="&lt;Path&gt;" class="cls-3" d="M206.24,88.09c-2.17-1.25-4.25-1.43-5.86-.5s-2.49,2.82-2.49,5.33a12.88,12.88,0,0,0,.35,2.83l1.33-.77a11.31,11.31,0,0,1-.2-2.06c0-2,.62-3.41,1.75-4.06s2.69-.47,4.39.51a15.22,15.22,0,0,1,6.87,11.91,6,6,0,0,1-.56,2.75,3.14,3.14,0,0,1-1.19,1.3l-.12.07a4.43,4.43,0,0,0-.63,1.73,4.34,4.34,0,0,0,1.49-.52,4.75,4.75,0,0,0,2.07-2.62,8.34,8.34,0,0,0,.42-2.71A16.87,16.87,0,0,0,206.24,88.09Z" transform="translate(-12.57 -12.9)"/></g><g id="_Group_23" data-name="&lt;Group&gt;"><path id="_Path_59" data-name="&lt;Path&gt;" class="cls-9" d="M221.55,98.41c1.1-.63,2-.12,2,1.16a4.39,4.39,0,0,1-2,3.45c-1.1.64-2,.12-2-1.15A4.43,4.43,0,0,1,221.55,98.41Z" transform="translate(-12.57 -12.9)"/><path id="_Path_60" data-name="&lt;Path&gt;" class="cls-3" d="M215.93,82.5c-2.17-1.25-4.25-1.44-5.85-.51s-2.49,2.82-2.49,5.33a12.71,12.71,0,0,0,.34,2.83l1.33-.77a11.31,11.31,0,0,1-.2-2.06c0-2,.62-3.4,1.75-4.06s2.69-.47,4.39.52a15.2,15.2,0,0,1,6.87,11.91,6.06,6.06,0,0,1-.56,2.75,3.07,3.07,0,0,1-1.19,1.3l-.12.06a4.47,4.47,0,0,0-.63,1.74,4.56,4.56,0,0,0,1.49-.52,4.74,4.74,0,0,0,2.07-2.62,8.12,8.12,0,0,0,.42-2.71A16.85,16.85,0,0,0,215.93,82.5Z" transform="translate(-12.57 -12.9)"/></g><g id="_Group_24" data-name="&lt;Group&gt;"><path id="_Path_61" data-name="&lt;Path&gt;" class="cls-9" d="M231.24,92.82c1.1-.64,2-.12,2,1.15a4.44,4.44,0,0,1-2,3.46c-1.1.63-2,.12-2-1.15A4.41,4.41,0,0,1,231.24,92.82Z" transform="translate(-12.57 -12.9)"/><path id="_Path_62" data-name="&lt;Path&gt;" class="cls-3" d="M225.63,76.9c-2.18-1.25-4.26-1.43-5.86-.5s-2.49,2.82-2.49,5.33a12.85,12.85,0,0,0,.34,2.83l1.34-.78a10.41,10.41,0,0,1-.21-2c0-2,.62-3.41,1.75-4.06s2.69-.47,4.39.51a15.23,15.23,0,0,1,6.88,11.91,6.17,6.17,0,0,1-.56,2.75,3.22,3.22,0,0,1-1.2,1.3l-.12.07a4.25,4.25,0,0,0-.62,1.73,4.36,4.36,0,0,0,1.48-.52,4.75,4.75,0,0,0,2.07-2.62,8.34,8.34,0,0,0,.42-2.71A16.87,16.87,0,0,0,225.63,76.9Z" transform="translate(-12.57 -12.9)"/></g><g id="_Group_25" data-name="&lt;Group&gt;"><path id="_Path_63" data-name="&lt;Path&gt;" class="cls-9" d="M240.93,87.22c1.1-.63,2-.12,2,1.16a4.4,4.4,0,0,1-2,3.45c-1.1.64-2,.12-2-1.15A4.43,4.43,0,0,1,240.93,87.22Z" transform="translate(-12.57 -12.9)"/><path id="_Path_64" data-name="&lt;Path&gt;" class="cls-3" d="M235.32,71.31c-2.17-1.25-4.26-1.44-5.86-.51S227,73.62,227,76.13a12.71,12.71,0,0,0,.34,2.83l1.34-.77a10.51,10.51,0,0,1-.21-2.06c0-2,.62-3.4,1.75-4.06s2.69-.47,4.39.52a15.21,15.21,0,0,1,6.88,11.91,6.2,6.2,0,0,1-.56,2.75,3.29,3.29,0,0,1-1.2,1.3l-.12.06a4.3,4.3,0,0,0-.62,1.74,4.58,4.58,0,0,0,1.48-.52,4.74,4.74,0,0,0,2.07-2.62,8.38,8.38,0,0,0,.42-2.71A16.84,16.84,0,0,0,235.32,71.31Z" transform="translate(-12.57 -12.9)"/></g><g id="_Group_26" data-name="&lt;Group&gt;"><path id="_Path_65" data-name="&lt;Path&gt;" class="cls-9" d="M250.62,81.63c1.1-.64,2-.12,2,1.15a4.44,4.44,0,0,1-2,3.46c-1.1.63-2,.12-2-1.15A4.41,4.41,0,0,1,250.62,81.63Z" transform="translate(-12.57 -12.9)"/><path id="_Path_66" data-name="&lt;Path&gt;" class="cls-3" d="M245,65.71c-2.17-1.25-4.26-1.43-5.86-.5s-2.49,2.82-2.49,5.33a12.31,12.31,0,0,0,.35,2.83l1.33-.78a10.41,10.41,0,0,1-.21-2c0-2,.62-3.41,1.75-4.06s2.69-.47,4.39.51a15.23,15.23,0,0,1,6.88,11.91,6.17,6.17,0,0,1-.56,2.75,3.16,3.16,0,0,1-1.2,1.3l-.12.07a4.25,4.25,0,0,0-.62,1.73,4.36,4.36,0,0,0,1.48-.52,4.7,4.7,0,0,0,2.07-2.62,8.08,8.08,0,0,0,.42-2.71A16.84,16.84,0,0,0,245,65.71Z" transform="translate(-12.57 -12.9)"/></g></g></g><path id="_Path_67" data-name="&lt;Path&gt;" class="cls-4" d="M245,65.71c-2.17-1.25-4.26-1.43-5.86-.5s-2.49,2.82-2.49,5.33a11.26,11.26,0,0,0,.16,1.81,13,13,0,0,0-1.5-1c-2.18-1.25-4.26-1.44-5.86-.51S227,73.62,227,76.13a11.49,11.49,0,0,0,.16,1.82,12,12,0,0,0-1.5-1c-2.18-1.25-4.26-1.43-5.86-.5s-2.49,2.82-2.49,5.33a11.26,11.26,0,0,0,.16,1.81,12.31,12.31,0,0,0-1.51-1c-2.17-1.25-4.25-1.44-5.85-.51s-2.49,2.82-2.49,5.33a11.49,11.49,0,0,0,.16,1.82,11.38,11.38,0,0,0-1.51-1c-2.17-1.25-4.25-1.43-5.86-.5s-2.49,2.82-2.49,5.33a11.28,11.28,0,0,0,.17,1.8,11.12,11.12,0,0,0-1.5-1c-2.17-1.26-4.25-1.44-5.85-.51s-2.5,2.82-2.5,5.33a11.29,11.29,0,0,0,.17,1.81,12.31,12.31,0,0,0-1.51-1c-2.17-1.25-4.25-1.43-5.86-.5s-2.49,2.81-2.49,5.32a11.52,11.52,0,0,0,.17,1.82,10.43,10.43,0,0,0-1.51-1c-2.17-1.26-4.25-1.44-5.86-.51s-2.49,2.82-2.49,5.33a11.29,11.29,0,0,0,.17,1.81,12.31,12.31,0,0,0-1.51-1c-2.17-1.25-4.25-1.43-5.86-.5s-2.49,2.81-2.49,5.32a11.42,11.42,0,0,0,.17,1.82,11.29,11.29,0,0,0-1.51-1c-2.17-1.26-4.25-1.44-5.86-.51s-2.49,2.82-2.49,5.33a11.29,11.29,0,0,0,.17,1.81,12.31,12.31,0,0,0-1.51-1c-2.17-1.25-4.25-1.43-5.86-.5s-2.49,2.82-2.49,5.32a11.42,11.42,0,0,0,.17,1.82,11.29,11.29,0,0,0-1.51-1c-2.17-1.26-4.25-1.44-5.86-.51s-2.49,2.82-2.49,5.33a11.29,11.29,0,0,0,.17,1.81,12.31,12.31,0,0,0-1.51-1c-2.17-1.25-4.25-1.43-5.86-.5s-2.49,2.82-2.49,5.33a11.4,11.4,0,0,0,.17,1.81,11.29,11.29,0,0,0-1.51-1c-2.17-1.26-4.25-1.44-5.86-.51s-2.49,2.82-2.49,5.33a11.29,11.29,0,0,0,.17,1.81,12.31,12.31,0,0,0-1.51-1c-2.17-1.25-4.25-1.43-5.86-.5s-2.49,2.82-2.49,5.33a11.4,11.4,0,0,0,.17,1.81,11.29,11.29,0,0,0-1.51-1c-2.17-1.26-4.25-1.44-5.86-.51s-2.49,2.82-2.49,5.33a12.24,12.24,0,0,0,.35,2.83l1.33-.77a10.51,10.51,0,0,1-.21-2.06c0-2,.63-3.4,1.76-4.06s2.68-.47,4.38.51a15.2,15.2,0,0,1,6.88,11.91,6.24,6.24,0,0,1-.56,2.76,3.14,3.14,0,0,1-1.19,1.3l-.12.06a4.18,4.18,0,0,0-.63,1.73,4.21,4.21,0,0,0,1.48-.52,4.68,4.68,0,0,0,2.07-2.61,8.14,8.14,0,0,0,.42-2.72c0-3.93-2.24-8.56-5.33-11.47l.74-.43a10.41,10.41,0,0,1-.21-2c0-2,.63-3.41,1.76-4.06s2.68-.47,4.38.51a15.19,15.19,0,0,1,6.88,11.91,6,6,0,0,1-.56,2.75,3.2,3.2,0,0,1-1.19,1.3l-.12.07a4.13,4.13,0,0,0-.63,1.73,4.21,4.21,0,0,0,1.48-.52,4.7,4.7,0,0,0,2.07-2.62,8.12,8.12,0,0,0,.42-2.71c0-3.93-2.24-8.57-5.33-11.47l.74-.43a10.51,10.51,0,0,1-.21-2.06c0-2,.63-3.4,1.76-4.06s2.68-.47,4.38.51a15.2,15.2,0,0,1,6.88,11.91,6.08,6.08,0,0,1-.56,2.76,3.2,3.2,0,0,1-1.19,1.3l-.12.06a4.27,4.27,0,0,0-.63,1.73,4,4,0,0,0,1.48-.52,4.71,4.71,0,0,0,2.07-2.61,8.14,8.14,0,0,0,.42-2.72c0-3.93-2.24-8.56-5.33-11.47l.74-.43a10.41,10.41,0,0,1-.21-2c0-2,.63-3.41,1.76-4.06s2.69-.47,4.38.51A15.19,15.19,0,0,1,134.87,146a6,6,0,0,1-.56,2.75,3.2,3.2,0,0,1-1.19,1.3l-.12.07a4.27,4.27,0,0,0-.63,1.73,4.21,4.21,0,0,0,1.48-.52,4.7,4.7,0,0,0,2.07-2.62,8.12,8.12,0,0,0,.42-2.71c0-3.93-2.24-8.57-5.33-11.47l.74-.43a10.49,10.49,0,0,1-.2-2.06c0-2,.62-3.4,1.75-4.06s2.69-.47,4.38.51a15.2,15.2,0,0,1,6.88,11.91,6.08,6.08,0,0,1-.56,2.76,3.2,3.2,0,0,1-1.19,1.3l-.12.06a4.43,4.43,0,0,0-.63,1.73,4.14,4.14,0,0,0,1.49-.52,4.74,4.74,0,0,0,2.06-2.61,8.13,8.13,0,0,0,.43-2.72c0-3.93-2.25-8.56-5.34-11.47l.74-.43a10.42,10.42,0,0,1-.2-2.06c0-2,.62-3.4,1.75-4s2.69-.47,4.39.51a15.2,15.2,0,0,1,6.87,11.91,6.06,6.06,0,0,1-.56,2.75,3.2,3.2,0,0,1-1.19,1.3l-.12.07a4.43,4.43,0,0,0-.63,1.73,4.34,4.34,0,0,0,1.49-.52,4.69,4.69,0,0,0,2.06-2.62,8.11,8.11,0,0,0,.43-2.71c0-3.93-2.25-8.57-5.34-11.47l.74-.43a11.31,11.31,0,0,1-.2-2.06c0-2,.62-3.4,1.75-4.06s2.69-.47,4.39.51a15.22,15.22,0,0,1,6.87,11.91,6.08,6.08,0,0,1-.56,2.76,3.2,3.2,0,0,1-1.19,1.3l-.12.06a4.43,4.43,0,0,0-.63,1.73,4.14,4.14,0,0,0,1.49-.52A4.7,4.7,0,0,0,165,132a8.13,8.13,0,0,0,.43-2.72c0-3.93-2.25-8.56-5.34-11.47l.74-.43a11.22,11.22,0,0,1-.2-2.06c0-2,.62-3.4,1.75-4.05s2.69-.47,4.39.51a15.2,15.2,0,0,1,6.87,11.91,6.06,6.06,0,0,1-.56,2.75,3.07,3.07,0,0,1-1.19,1.3l-.12.07a4.43,4.43,0,0,0-.63,1.73,4.34,4.34,0,0,0,1.49-.52,4.72,4.72,0,0,0,2.06-2.62,8.11,8.11,0,0,0,.43-2.71c0-3.93-2.25-8.57-5.34-11.47l.74-.43a11.31,11.31,0,0,1-.2-2.06c0-2,.62-3.4,1.75-4.06s2.69-.47,4.39.51a15.22,15.22,0,0,1,6.87,11.91,6,6,0,0,1-.56,2.75,3.16,3.16,0,0,1-1.19,1.31l-.12.06a4.43,4.43,0,0,0-.63,1.73,4.14,4.14,0,0,0,1.49-.52,4.7,4.7,0,0,0,2.06-2.61,8.13,8.13,0,0,0,.43-2.72c0-3.93-2.25-8.56-5.34-11.47l.74-.43a11.22,11.22,0,0,1-.2-2.06c0-2,.62-3.4,1.75-4s2.69-.47,4.39.51A15.2,15.2,0,0,1,193,112.47a6.06,6.06,0,0,1-.56,2.75,3.2,3.2,0,0,1-1.19,1.3l-.12.07a4.43,4.43,0,0,0-.63,1.73,4.34,4.34,0,0,0,1.49-.52,4.75,4.75,0,0,0,2.07-2.62,8.38,8.38,0,0,0,.42-2.71c0-3.93-2.25-8.57-5.34-11.47l.74-.43a11.31,11.31,0,0,1-.2-2.06c0-2,.62-3.4,1.75-4.06s2.69-.47,4.39.51a15.22,15.22,0,0,1,6.87,11.91,6,6,0,0,1-.56,2.75,3.1,3.1,0,0,1-1.19,1.31l-.12.06a4.43,4.43,0,0,0-.63,1.73,4.34,4.34,0,0,0,1.49-.52,4.71,4.71,0,0,0,2.07-2.61,8.14,8.14,0,0,0,.42-2.72c0-3.93-2.25-8.57-5.34-11.47l.73-.42a11.31,11.31,0,0,1-.2-2.06c0-2,.62-3.41,1.75-4.06s2.69-.47,4.39.51a15.22,15.22,0,0,1,6.87,11.91,6,6,0,0,1-.56,2.75,3.14,3.14,0,0,1-1.19,1.3l-.12.07a4.43,4.43,0,0,0-.63,1.73,4.34,4.34,0,0,0,1.49-.52,4.75,4.75,0,0,0,2.07-2.62,8.34,8.34,0,0,0,.42-2.71c0-3.93-2.25-8.57-5.34-11.47l.74-.43a11.31,11.31,0,0,1-.2-2.06c0-2,.62-3.4,1.75-4.06s2.69-.47,4.39.52a15.2,15.2,0,0,1,6.87,11.91,6.06,6.06,0,0,1-.56,2.75,3.07,3.07,0,0,1-1.19,1.3l-.12.06a4.47,4.47,0,0,0-.63,1.74,4.56,4.56,0,0,0,1.49-.52,4.74,4.74,0,0,0,2.07-2.62,8.12,8.12,0,0,0,.42-2.71c0-3.94-2.25-8.57-5.34-11.47l.75-.44a10.41,10.41,0,0,1-.21-2c0-2,.62-3.41,1.75-4.06s2.69-.47,4.39.51a15.23,15.23,0,0,1,6.88,11.91,6.17,6.17,0,0,1-.56,2.75,3.22,3.22,0,0,1-1.2,1.3l-.12.07a4.25,4.25,0,0,0-.62,1.73,4.36,4.36,0,0,0,1.48-.52,4.75,4.75,0,0,0,2.07-2.62,8.34,8.34,0,0,0,.42-2.71c0-3.93-2.25-8.57-5.34-11.47l.75-.43a10.51,10.51,0,0,1-.21-2.06c0-2,.62-3.4,1.75-4.06s2.69-.47,4.39.52a15.21,15.21,0,0,1,6.88,11.91,6.2,6.2,0,0,1-.56,2.75,3.29,3.29,0,0,1-1.2,1.3l-.12.06a4.3,4.3,0,0,0-.62,1.74,4.58,4.58,0,0,0,1.48-.52,4.74,4.74,0,0,0,2.07-2.62,8.38,8.38,0,0,0,.42-2.71c0-3.94-2.25-8.57-5.34-11.48l.75-.43a10.41,10.41,0,0,1-.21-2c0-2,.62-3.41,1.75-4.06s2.69-.47,4.39.51a15.23,15.23,0,0,1,6.88,11.91,6.17,6.17,0,0,1-.56,2.75,3.16,3.16,0,0,1-1.2,1.3l-.12.07a4.25,4.25,0,0,0-.62,1.73,4.36,4.36,0,0,0,1.48-.52,4.7,4.7,0,0,0,2.07-2.62,8.08,8.08,0,0,0,.42-2.71A16.84,16.84,0,0,0,245,65.71Z" transform="translate(-12.57 -12.9)"/></g><g id="_Group_27" data-name="&lt;Group&gt;"><g id="_Group_28" data-name="&lt;Group&gt;"><path id="_Path_68" data-name="&lt;Path&gt;" class="cls-3" d="M114.22,177.54,245.5,101.75c2.29-1.32,4.4-.27,4.71,2.36l2.18,18a7.87,7.87,0,0,1-3.58,7.15L117.58,204.94c-2.29,1.32-4.41.26-4.73-2.36l-2.2-17.89A7.84,7.84,0,0,1,114.22,177.54Z" transform="translate(-12.57 -12.9)"/><g id="_Group_29" data-name="&lt;Group&gt;"><path id="_Compound_Path_4" data-name="&lt;Compound Path&gt;" class="cls-13" d="M125.93,191.81l-1.73,1.36-2.39-11.59-.53,11.56,1.23-.41-.08,1.23L119,196l.08-1.24,1.13-.94.54-12.15-1.15.3.08-1.19,3.56-2.05,2.13,10.62,2.37-13.22,3.53-2-.08,1.24-1,.86.27,11.72,1.21-.42-.08,1.23L127.53,191l.08-1.23,1.13-.93-.24-11.4Z" transform="translate(-12.57 -12.9)"/><path id="_Compound_Path_5" data-name="&lt;Compound Path&gt;" class="cls-13" d="M133.81,192.24c-.77.44-1.29.13-1.29-.78a2.87,2.87,0,0,1,1.17-2.49l.18.59c.13.41.27.75.61.55s.55-.82.77-1.69l.57-2.19-.36.21c-.55.32-.91.12-1.25-.53a15.19,15.19,0,0,1-.74-5.71v-1.61c0-.45-.1-.54-.3-.42a3.7,3.7,0,0,0-.7.68l-.22-1a6.68,6.68,0,0,1,1.74-1.68c.94-.54,1.23.12,1.23,1.24,0,.48,0,1,0,1.6a17,17,0,0,0,.51,5c.16.52.34.5.53.39l.06,0,1.47-6.35c.29-1.24.14-1.45-.32-1.44H137a2.76,2.76,0,0,1,1.07-2.72c.68-.39,1.12,0,1.12,1.18a25.19,25.19,0,0,1-.92,5.08l-1.74,7C135.9,189.51,135.31,191.37,133.81,192.24Z" transform="translate(-12.57 -12.9)"/><path id="_Compound_Path_6" data-name="&lt;Compound Path&gt;" class="cls-13" d="M144.45,180.55l.35-14.15-1.1.19.08-1.19L146.2,164l.22.1-.17,7.1-.41,5.21.11,0,.51-3.21c.52-3.29,1.1-4.89,2.42-5.65,1.48-.86,2.14.6,2.14,3.39,0,4.41-1.45,7.66-3.6,8.9A5.05,5.05,0,0,1,144.45,180.55Zm2.45-5-.52,3a1.18,1.18,0,0,0,1-.19c1.28-.74,1.77-3.65,1.77-6.21,0-1.3,0-2.9-.63-2.54S147.59,171.52,146.9,175.54Z" transform="translate(-12.57 -12.9)"/><path id="_Compound_Path_7" data-name="&lt;Compound Path&gt;" class="cls-13" d="M152.32,161.62l.11-1.21L154.9,159l.22.11-.3,13.93c0,.58.05.86.36.68a2.67,2.67,0,0,0,.72-.89l.32.84a6,6,0,0,1-1.83,2.15c-.85.5-1.33.08-1.29-1.45l.34-12.94Z" transform="translate(-12.57 -12.9)"/><path id="_Compound_Path_8" data-name="&lt;Compound Path&gt;" class="cls-13" d="M160.54,160.81c2.07-1.2,3,.46,3,3.61s-1,6.67-3.41,8.07c-1.95,1.12-3-.34-3-3.54S158,162.27,160.54,160.81Zm1.17,4.65c0-2.3-.22-3.8-1.25-3.21-1.27.73-1.47,3.28-1.47,5.65s.28,3.67,1.27,3.1C161.47,170.3,161.71,168,161.71,165.46Z" transform="translate(-12.57 -12.9)"/><path id="_Compound_Path_9" data-name="&lt;Compound Path&gt;" class="cls-13" d="M169.89,161l-.29,1.76c-.59,3.56-1.1,4.91-2.3,5.6-1.56.9-2.24-.82-2.24-3.34,0-4,1.31-7.55,3.32-8.71a3.32,3.32,0,0,1,1.69-.47l.92-1.06.55-.1-.22,9.37c-.09,3.56-1.42,7.4-4.14,9-1.09.63-2.23.61-2.23-.93a2.57,2.57,0,0,1,1-2.2.74.74,0,0,1,.91.07l-.13.62c-.22,1.06-.07,1.4.65,1,1.43-.82,2.19-3.16,2.36-6.5l.22-4.09Zm-.65-.72.47-2.83a1.15,1.15,0,0,0-1,.17c-1.29.74-1.8,3.47-1.8,6.37,0,1.88.08,2.83.69,2.48S168.49,164.85,169.24,160.25Z" transform="translate(-12.57 -12.9)"/></g><g id="_Group_30" data-name="&lt;Group&gt;"><path id="_Path_69" data-name="&lt;Path&gt;" class="cls-13" d="M245.61,115.88l0,.21a5.49,5.49,0,0,1-2.51,5l-61.72,35.6A2.05,2.05,0,0,1,178.1,155l0-.18a5.52,5.52,0,0,1,2.5-5l61.73-35.63A2.05,2.05,0,0,1,245.61,115.88Z" transform="translate(-12.57 -12.9)"/><path id="_Path_70" data-name="&lt;Path&gt;" class="cls-8" d="M238,124.05l5.12-3a5.49,5.49,0,0,0,2.51-5l0-.21a2.05,2.05,0,0,0-3.3-1.66l-5.12,3Z" transform="translate(-12.57 -12.9)"/></g></g><g id="_Group_31" data-name="&lt;Group&gt;"><path id="_Path_71" data-name="&lt;Path&gt;" class="cls-17" d="M144.34,198.61a3.87,3.87,0,0,1-1.8,3.51L116.8,217a1.45,1.45,0,0,1-2.35-1.12,3.85,3.85,0,0,1,1.79-3.51L142,197.49A1.44,1.44,0,0,1,144.34,198.61Z" transform="translate(-12.57 -12.9)"/><path id="_Path_72" data-name="&lt;Path&gt;" class="cls-17" d="M204.12,164.1a3.88,3.88,0,0,1-1.8,3.51l-50.67,29.25a1.45,1.45,0,0,1-2.35-1.12,3.87,3.87,0,0,1,1.8-3.51L201.77,163A1.45,1.45,0,0,1,204.12,164.1Z" transform="translate(-12.57 -12.9)"/><path id="_Path_73" data-name="&lt;Path&gt;" class="cls-17" d="M252.12,138.86l-40.69,23.49a1.45,1.45,0,0,1-2.35-1.12,3.87,3.87,0,0,1,1.8-3.51l40.71-23.51a1.44,1.44,0,0,1,2.34,1.13A3.9,3.9,0,0,1,252.12,138.86Z" transform="translate(-12.57 -12.9)"/><path id="_Path_74" data-name="&lt;Path&gt;" class="cls-17" d="M135.79,215.42a3.87,3.87,0,0,1-1.8,3.51L118.2,228a1.49,1.49,0,0,1-2.42-1.08,3.74,3.74,0,0,1,1.73-3.48l15.92-9.18A1.45,1.45,0,0,1,135.79,215.42Z" transform="translate(-12.57 -12.9)"/><path id="_Path_75" data-name="&lt;Path&gt;" class="cls-17" d="M185.54,186.69a3.88,3.88,0,0,1-1.79,3.51L143.1,213.67a1.44,1.44,0,0,1-2.35-1.12,3.88,3.88,0,0,1,1.79-3.51l40.64-23.46A1.45,1.45,0,0,1,185.54,186.69Z" transform="translate(-12.57 -12.9)"/><path id="_Path_76" data-name="&lt;Path&gt;" class="cls-17" d="M253.52,149.92l-60.66,35a1.45,1.45,0,0,1-2.36-1.13,3.89,3.89,0,0,1,1.8-3.51l60.56-35a1.49,1.49,0,0,1,2.41,1.09A3.74,3.74,0,0,1,253.52,149.92Z" transform="translate(-12.57 -12.9)"/><path id="_Path_77" data-name="&lt;Path&gt;" class="cls-17" d="M157,214.81a3.88,3.88,0,0,1-1.8,3.52l-35.59,20.55a1.54,1.54,0,0,1-2.48-1,3.53,3.53,0,0,1,1.66-3.43l35.86-20.71A1.45,1.45,0,0,1,157,214.81Z" transform="translate(-12.57 -12.9)"/><path id="_Path_78" data-name="&lt;Path&gt;" class="cls-17" d="M221.66,177.45a3.86,3.86,0,0,1-1.79,3.52l-55,31.74a1.45,1.45,0,0,1-2.35-1.12,3.89,3.89,0,0,1,1.8-3.52l55-31.74A1.45,1.45,0,0,1,221.66,177.45Z" transform="translate(-12.57 -12.9)"/><path id="_Path_79" data-name="&lt;Path&gt;" class="cls-17" d="M254.88,160.76l-25.9,15a1.45,1.45,0,0,1-2.36-1.12,3.9,3.9,0,0,1,1.8-3.52l25.67-14.82a1.54,1.54,0,0,1,2.47,1.06A3.58,3.58,0,0,1,254.88,160.76Z" transform="translate(-12.57 -12.9)"/><path id="_Path_80" data-name="&lt;Path&gt;" class="cls-17" d="M178.16,214a3.85,3.85,0,0,1-1.79,3.51l-55.47,32a1.59,1.59,0,0,1-2.54-1,3.4,3.4,0,0,1,1.6-3.41l55.84-32.24A1.45,1.45,0,0,1,178.16,214Z" transform="translate(-12.57 -12.9)"/><path id="_Path_81" data-name="&lt;Path&gt;" class="cls-17" d="M208,196.75a3.86,3.86,0,0,1-1.79,3.51l-20.76,12a1.44,1.44,0,0,1-2.35-1.12,3.86,3.86,0,0,1,1.79-3.51l20.75-12A1.45,1.45,0,0,1,208,196.75Z" transform="translate(-12.57 -12.9)"/><path id="_Path_82" data-name="&lt;Path&gt;" class="cls-17" d="M256.22,171.4,216,194.64a1.45,1.45,0,0,1-2.35-1.12,3.87,3.87,0,0,1,1.79-3.52l39.9-23a1.58,1.58,0,0,1,2.53,1A3.44,3.44,0,0,1,256.22,171.4Z" transform="translate(-12.57 -12.9)"/><path id="_Path_83" data-name="&lt;Path&gt;" class="cls-17" d="M129.78,254a3.78,3.78,0,0,1-1.75,3.5l-5.59,3.23a1.66,1.66,0,0,1-2.62-1,3.26,3.26,0,0,1,1.53-3.37l6-3.49A1.48,1.48,0,0,1,129.78,254Z" transform="translate(-12.57 -12.9)"/><path id="_Path_84" data-name="&lt;Path&gt;" class="cls-17" d="M157,238.34a3.76,3.76,0,0,1-1.74,3.49l-18,10.4a1.48,1.48,0,0,1-2.41-1.09,3.76,3.76,0,0,1,1.75-3.49l18-10.41A1.47,1.47,0,0,1,157,238.34Z" transform="translate(-12.57 -12.9)"/><path id="_Path_85" data-name="&lt;Path&gt;" class="cls-17" d="M194.33,216.76a3.68,3.68,0,0,1-1.71,3.47l-28.26,16.31a1.49,1.49,0,0,1-2.41-1.09A3.76,3.76,0,0,1,163.7,232l28.21-16.28A1.5,1.5,0,0,1,194.33,216.76Z" transform="translate(-12.57 -12.9)"/><path id="_Path_86" data-name="&lt;Path&gt;" class="cls-17" d="M146.52,257.34a3.52,3.52,0,0,1-1.65,3.43L124.5,272.53a1.71,1.71,0,0,1-2.68-.93,3.11,3.11,0,0,1,1.47-3.32l20.74-12A1.55,1.55,0,0,1,146.52,257.34Z" transform="translate(-12.57 -12.9)"/><path id="_Path_87" data-name="&lt;Path&gt;" class="cls-17" d="M176.39,240.1a3.5,3.5,0,0,1-1.64,3.42l-12.7,7.33-7.87,4.54a1.56,1.56,0,0,1-2.51-1,3.53,3.53,0,0,1,1.66-3.43l20.57-11.88A1.55,1.55,0,0,1,176.39,240.1Z" transform="translate(-12.57 -12.9)"/><path id="_Path_88" data-name="&lt;Path&gt;" class="cls-17" d="M196.35,228.57a3.52,3.52,0,0,1-1.64,3.43l-10.66,6.15a1.56,1.56,0,0,1-2.5-1,3.51,3.51,0,0,1,1.66-3.43l10.66-6.15A1.54,1.54,0,0,1,196.35,228.57Z" transform="translate(-12.57 -12.9)"/><path id="_Path_89" data-name="&lt;Path&gt;" class="cls-17" d="M164.08,260a3.29,3.29,0,0,1-1.54,3.38L127,283.91a1.79,1.79,0,0,1-2.75-.89,3,3,0,0,1,1.4-3.29l35.81-20.68A1.63,1.63,0,0,1,164.08,260Z" transform="translate(-12.57 -12.9)"/><path id="_Path_90" data-name="&lt;Path&gt;" class="cls-17" d="M198.74,240a3.34,3.34,0,0,1-1.56,3.39l-25.55,14.75a1.64,1.64,0,0,1-2.6-1,3.32,3.32,0,0,1,1.56-3.39L196.17,239A1.62,1.62,0,0,1,198.74,240Z" transform="translate(-12.57 -12.9)"/><path id="_Path_91" data-name="&lt;Path&gt;" class="cls-17" d="M147.08,282.55a3.1,3.1,0,0,1-1.45,3.32l-15.63,9a1.84,1.84,0,0,1-2.8-.86,2.84,2.84,0,0,1,1.34-3.25l15.86-9.16A1.72,1.72,0,0,1,147.08,282.55Z" transform="translate(-12.57 -12.9)"/><path id="_Path_92" data-name="&lt;Path&gt;" class="cls-17" d="M175.52,268.61l-20.78,12a1.74,1.74,0,0,1-2.71-.92,3.12,3.12,0,0,1,1.47-3.33l20.8-12a1.71,1.71,0,0,1,2.67.93A3.09,3.09,0,0,1,175.52,268.61Z" transform="translate(-12.57 -12.9)"/><path id="_Path_93" data-name="&lt;Path&gt;" class="cls-17" d="M201.54,251.11a3.13,3.13,0,0,1-1.46,3.33l-15.46,8.92a1.73,1.73,0,0,1-2.7-.92,3.12,3.12,0,0,1,1.47-3.33l15.49-8.94A1.7,1.7,0,0,1,201.54,251.11Z" transform="translate(-12.57 -12.9)"/><path id="_Path_94" data-name="&lt;Path&gt;" class="cls-17" d="M170.38,281.64a2.91,2.91,0,0,1-1.37,3.27l-35.62,20.57a1.93,1.93,0,0,1-2.88-.83,2.74,2.74,0,0,1,1.28-3.22l35.81-20.67A1.81,1.81,0,0,1,170.38,281.64Z" transform="translate(-12.57 -12.9)"/><path id="_Path_95" data-name="&lt;Path&gt;" class="cls-17" d="M204.87,261.72a2.86,2.86,0,0,1-1.33,3.25l-25.43,14.68a1.82,1.82,0,0,1-2.78-.87,2.9,2.9,0,0,1,1.37-3.27l25.39-14.66A1.82,1.82,0,0,1,204.87,261.72Z" transform="translate(-12.57 -12.9)"/><path id="_Path_96" data-name="&lt;Path&gt;" class="cls-3" d="M194,280.35a2.76,2.76,0,0,1-1.29,3.22l-55.6,32.1a2,2,0,0,1-2.93-.78,2.61,2.61,0,0,1,1.21-3.18l55.75-32.19A1.9,1.9,0,0,1,194,280.35Z" transform="translate(-12.57 -12.9)"/><path id="_Path_97" data-name="&lt;Path&gt;" class="cls-17" d="M233.89,257.34a2.74,2.74,0,0,1-1.28,3.22l-31.15,18a1.92,1.92,0,0,1-2.87-.83,2.74,2.74,0,0,1,1.28-3.22l31.16-18A1.9,1.9,0,0,1,233.89,257.34Z" transform="translate(-12.57 -12.9)"/><path id="_Path_98" data-name="&lt;Path&gt;" class="cls-17" d="M272.47,237.55l-31.15,18a1.92,1.92,0,0,1-2.87-.82,2.74,2.74,0,0,1,1.28-3.22l31-17.92a2,2,0,0,1,2.92.79A2.64,2.64,0,0,1,272.47,237.55Z" transform="translate(-12.57 -12.9)"/><path id="_Path_99" data-name="&lt;Path&gt;" class="cls-17" d="M158.21,313.24a2.61,2.61,0,0,1-1.2,3.17l-15.72,9.08a2.08,2.08,0,0,1-3-.75,2.5,2.5,0,0,1,1.14-3.14l15.85-9.15A2,2,0,0,1,158.21,313.24Z" transform="translate(-12.57 -12.9)"/><path id="_Path_100" data-name="&lt;Path&gt;" class="cls-17" d="M213.05,281.58a2.63,2.63,0,0,1-1.22,3.18L166.22,311.1a2,2,0,0,1-3-.78,2.63,2.63,0,0,1,1.22-3.18l45.65-26.35A2,2,0,0,1,213.05,281.58Z" transform="translate(-12.57 -12.9)"/><path id="_Path_101" data-name="&lt;Path&gt;" class="cls-17" d="M255.51,257.07a2.63,2.63,0,0,1-1.22,3.18L221,279.45a2,2,0,0,1-2.94-.79,2.66,2.66,0,0,1,1.23-3.19l33.26-19.2A2,2,0,0,1,255.51,257.07Z" transform="translate(-12.57 -12.9)"/><path id="_Path_102" data-name="&lt;Path&gt;" class="cls-17" d="M276.61,247.37l-13.1,7.56a2,2,0,0,1-2.95-.77,2.66,2.66,0,0,1,1.23-3.19l13-7.5a2.06,2.06,0,0,1,3,.75A2.54,2.54,0,0,1,276.61,247.37Z" transform="translate(-12.57 -12.9)"/><path id="_Path_103" data-name="&lt;Path&gt;" class="cls-17" d="M182.61,311.19a2.48,2.48,0,0,1-1.12,3.13l-35.74,20.62a2.16,2.16,0,0,1-3.06-.71,2.4,2.4,0,0,1,1.08-3.1l35.81-20.67A2.11,2.11,0,0,1,182.61,311.19Z" transform="translate(-12.57 -12.9)"/><path id="_Path_104" data-name="&lt;Path&gt;" class="cls-17" d="M232.48,282.4a2.48,2.48,0,0,1-1.12,3.13l-40.75,23.52a2.12,2.12,0,0,1-3-.73,2.45,2.45,0,0,1,1.12-3.12l40.75-23.53A2.12,2.12,0,0,1,232.48,282.4Z" transform="translate(-12.57 -12.9)"/><path id="_Path_105" data-name="&lt;Path&gt;" class="cls-17" d="M281.07,256.82l-40.6,23.44a2.11,2.11,0,0,1-3-.73,2.46,2.46,0,0,1,1.12-3.13L279.12,253a2.14,2.14,0,0,1,3.05.72A2.42,2.42,0,0,1,281.07,256.82Z" transform="translate(-12.57 -12.9)"/><path id="_Path_106" data-name="&lt;Path&gt;" class="cls-17" d="M157.41,337.58a2.37,2.37,0,0,1-1,3.09L150.53,344a2.26,2.26,0,0,1-3.13-.67,2.31,2.31,0,0,1,1-3.07l5.89-3.4A2.22,2.22,0,0,1,157.41,337.58Z" transform="translate(-12.57 -12.9)"/><path id="_Path_107" data-name="&lt;Path&gt;" class="cls-17" d="M207.19,308.84a2.34,2.34,0,0,1-1.05,3.08l-40.6,23.45a2.22,2.22,0,0,1-3.1-.69,2.35,2.35,0,0,1,1.05-3.09l40.6-23.44A2.21,2.21,0,0,1,207.19,308.84Z" transform="translate(-12.57 -12.9)"/><path id="_Path_108" data-name="&lt;Path&gt;" class="cls-17" d="M257,280.07a2.34,2.34,0,0,1-1.05,3.08l-40.66,23.48a2.21,2.21,0,0,1-3.1-.69,2.35,2.35,0,0,1,1.05-3.09l40.66-23.48A2.21,2.21,0,0,1,257,280.07Z" transform="translate(-12.57 -12.9)"/><path id="_Path_109" data-name="&lt;Path&gt;" class="cls-17" d="M285.85,265.91l-20.68,11.94a2.22,2.22,0,0,1-3.1-.69,2.37,2.37,0,0,1,1.05-3.09l20.65-11.91a2.23,2.23,0,0,1,3.11.68A2.31,2.31,0,0,1,285.85,265.91Z" transform="translate(-12.57 -12.9)"/><path id="_Path_110" data-name="&lt;Path&gt;" class="cls-17" d="M182.31,334.87a2.24,2.24,0,0,1-1,3l-25.74,14.86a2.35,2.35,0,0,1-3.19-.63,2.21,2.21,0,0,1,.95-3l25.79-14.89A2.32,2.32,0,0,1,182.31,334.87Z" transform="translate(-12.57 -12.9)"/><path id="_Path_111" data-name="&lt;Path&gt;" class="cls-17" d="M232.17,306.08a2.26,2.26,0,0,1-1,3.05L190.6,332.56a2.3,2.3,0,0,1-3.16-.65,2.27,2.27,0,0,1,1-3.05L229,305.44A2.32,2.32,0,0,1,232.17,306.08Z" transform="translate(-12.57 -12.9)"/><path id="_Path_112" data-name="&lt;Path&gt;" class="cls-17" d="M290.91,274.65l-50.45,29.13a2.29,2.29,0,0,1-3.16-.66,2.26,2.26,0,0,1,1-3.05L288.7,271a2.34,2.34,0,0,1,3.18.64A2.23,2.23,0,0,1,290.91,274.65Z" transform="translate(-12.57 -12.9)"/><path id="_Path_113" data-name="&lt;Path&gt;" class="cls-17" d="M207.52,331.79a2.15,2.15,0,0,1-.91,3l-45.69,26.38a2.46,2.46,0,0,1-3.26-.6,2.12,2.12,0,0,1,.88-3l45.73-26.4A2.43,2.43,0,0,1,207.52,331.79Z" transform="translate(-12.57 -12.9)"/><path id="_Path_114" data-name="&lt;Path&gt;" class="cls-17" d="M257.3,303.05a2.16,2.16,0,0,1-.91,3l-40.57,23.42a2.42,2.42,0,0,1-3.24-.61,2.14,2.14,0,0,1,.9-3l40.58-23.42A2.42,2.42,0,0,1,257.3,303.05Z" transform="translate(-12.57 -12.9)"/><path id="_Path_115" data-name="&lt;Path&gt;" class="cls-17" d="M296.24,283.05,265.6,300.73a2.41,2.41,0,0,1-3.23-.61,2.15,2.15,0,0,1,.91-3l30.61-17.67a2.43,2.43,0,0,1,3.25.61A2.14,2.14,0,0,1,296.24,283.05Z" transform="translate(-12.57 -12.9)"/></g><g id="_Group_32" data-name="&lt;Group&gt;"><path id="_Path_116" data-name="&lt;Path&gt;" class="cls-3" d="M271.14,227.51,211.34,262c-.3-.78-.57-1.57-.85-2.35-.08-.22-.16-.45-.23-.67l-.81-2.37c-.27-.8-.53-1.59-.78-2.4-4.12-12.93-7.11-27.06-9.5-43l59.73-34.46A250.82,250.82,0,0,0,267.07,215c.37,1.24.74,2.46,1.13,3.67.32,1,.64,2,1,3.05Q270.13,224.66,271.14,227.51Z" transform="translate(-12.57 -12.9)"/><path id="_Path_117" data-name="&lt;Path&gt;" class="cls-18" d="M271.14,227.51,211.34,262c-.3-.78-.57-1.57-.85-2.35-.08-.22-.16-.45-.23-.67l-.81-2.37c-.27-.8-.53-1.59-.78-2.4-4.12-12.93-7.11-27.06-9.5-43l59.73-34.46A250.82,250.82,0,0,0,267.07,215c.37,1.24.74,2.46,1.13,3.67.32,1,.64,2,1,3.05Q270.13,224.66,271.14,227.51Z" transform="translate(-12.57 -12.9)"/><path id="_Path_118" data-name="&lt;Path&gt;" class="cls-3" d="M271.14,227.51,211.34,262c-.3-.78-.57-1.57-.85-2.35-.08-.22-.16-.45-.23-.67l-.81-2.37c-.27-.8-.53-1.59-.78-2.4,2.23-9.3,9.84-40.21,9.84-40.21l33.42,18.83L245.11,226l5.39-17.52L267.07,215h0q.56,1.85,1.11,3.66c.33,1,.65,2,1,3.05Q270.13,224.66,271.14,227.51Z" transform="translate(-12.57 -12.9)"/><path id="_Path_119" data-name="&lt;Path&gt;" class="cls-3" d="M238.64,195.83c2.22-1.29,4.43,0,5,2.94s-.67,6.28-2.89,7.56-4.57,0-5.16-2.91S236.42,197.12,238.64,195.83Z" transform="translate(-12.57 -12.9)"/></g></g></g></g><g id="Coffee"><g id="Coffee-2" data-name="Coffee"><g id="_Group_33" data-name="&lt;Group&gt;"><path id="_Path_120" data-name="&lt;Path&gt;" class="cls-19" d="M457,228.06c-16.32-6-42.35-6-58.13,0s-15.77,15.76,0,21.77,41.81,6,58.13,0S473.27,234.07,457,228.06Z" transform="translate(-12.57 -12.9)"/></g><g id="_Group_34" data-name="&lt;Group&gt;"><path id="_Path_121" data-name="&lt;Path&gt;" class="cls-13" d="M470,208.28l-83.72.09L392.57,307h.08c.4,3.59,3.75,7.14,10.15,9.88,13.64,5.85,36.12,5.85,50.23,0,6.61-2.75,10.08-6.29,10.49-9.88h.08Z" transform="translate(-12.57 -12.9)"/></g><g id="_Group_35" data-name="&lt;Group&gt;"><path id="_Path_122" data-name="&lt;Path&gt;" class="cls-1" d="M386.23,208.37l1.29,20a37.38,37.38,0,0,0,7,3.75c18.11,7.5,48,7.49,66.69,0,.81-.33,1.49-.68,2.22-1a42.9,42.9,0,0,0,5.25-3l1.28-19.9Z" transform="translate(-12.57 -12.9)"/></g><g id="_Group_36" data-name="&lt;Group&gt;"><g id="_Group_37" data-name="&lt;Group&gt;"><path id="_Path_123" data-name="&lt;Path&gt;" class="cls-3" d="M475.25,211.2V196.12h-9.76a43.14,43.14,0,0,0-4.29-2c-18.73-7.5-48.58-7.5-66.69,0a44.92,44.92,0,0,0-4.1,2h-9.48V211.2h0c0,4.91,4.53,9.83,13.58,13.58,18.11,7.49,48,7.49,66.69,0C470.57,221,475.25,216.11,475.25,211.2Z" transform="translate(-12.57 -12.9)"/></g><g id="_Group_38" data-name="&lt;Group&gt;" class="cls-18"><path id="_Path_124" data-name="&lt;Path&gt;" d="M475.25,211.2V196.12h-9.76a43.14,43.14,0,0,0-4.29-2c-18.73-7.5-48.58-7.5-66.69,0a44.92,44.92,0,0,0-4.1,2h-9.48V211.2h0c0,4.91,4.53,9.83,13.58,13.58,18.11,7.49,48,7.49,66.69,0C470.57,221,475.25,216.11,475.25,211.2Z" transform="translate(-12.57 -12.9)"/></g><g id="_Group_39" data-name="&lt;Group&gt;"><path id="_Path_125" data-name="&lt;Path&gt;" class="cls-3" d="M461.2,182.54c-18.73-7.49-48.58-7.49-66.69,0s-18.1,19.66,0,27.15,48,7.5,66.69,0S479.93,190,461.2,182.54Z" transform="translate(-12.57 -12.9)"/></g><g id="_Group_40" data-name="&lt;Group&gt;" class="cls-5"><path id="_Path_126" data-name="&lt;Path&gt;" d="M461.2,182.54c-18.73-7.49-48.58-7.49-66.69,0s-18.1,19.66,0,27.15,48,7.5,66.69,0S479.93,190,461.2,182.54Z" transform="translate(-12.57 -12.9)"/></g><g id="_Group_41" data-name="&lt;Group&gt;"><g id="_Group_42" data-name="&lt;Group&gt;"><path id="_Path_127" data-name="&lt;Path&gt;" class="cls-3" d="M455.38,183.76c-15.43-5.92-40.05-5.92-55,0s-14.92,15.53,0,21.46,39.54,5.92,55,0S470.82,189.69,455.38,183.76Z" transform="translate(-12.57 -12.9)"/></g><g id="_Group_43" data-name="&lt;Group&gt;" class="cls-18"><path id="_Path_128" data-name="&lt;Path&gt;" d="M455.38,183.76c-15.43-5.92-40.05-5.92-55,0s-14.92,15.53,0,21.46,39.54,5.92,55,0S470.82,189.69,455.38,183.76Z" transform="translate(-12.57 -12.9)"/></g><g id="_Group_44" data-name="&lt;Group&gt;"><polygon id="_Path_129" data-name="&lt;Path&gt;" class="cls-3" points="454.04 179.59 451.02 167.16 380.01 167.16 376.98 179.59 454.04 179.59"/></g><g id="_Group_45" data-name="&lt;Group&gt;" class="cls-18"><polygon id="_Path_130" data-name="&lt;Path&gt;" points="454.04 179.59 451.02 167.16 380.01 167.16 376.98 179.59 454.04 179.59"/></g><g id="_Group_46" data-name="&lt;Group&gt;"><path id="_Path_131" data-name="&lt;Path&gt;" class="cls-3" d="M453.16,172.11c-14.18-5.15-36.79-5.15-50.49,0s-13.71,13.52,0,18.67,36.31,5.16,50.49,0S467.34,177.27,453.16,172.11Z" transform="translate(-12.57 -12.9)"/></g><g id="_Group_47" data-name="&lt;Group&gt;" class="cls-5"><path id="_Path_132" data-name="&lt;Path&gt;" d="M453.16,172.11c-14.18-5.15-36.79-5.15-50.49,0s-13.71,13.52,0,18.67,36.31,5.16,50.49,0S467.34,177.27,453.16,172.11Z" transform="translate(-12.57 -12.9)"/></g><g id="_Group_48" data-name="&lt;Group&gt;"><path id="_Path_133" data-name="&lt;Path&gt;" class="cls-3" d="M458.88,181.46c0,.2-.4.86-1.57,1.77a23,23,0,0,1-5.82,2.94c-6.26,2.26-14.92,3.58-23.75,3.58s-17.35-1.3-23.36-3.55a20.56,20.56,0,0,1-5.62-3c-1.15-.93-1.47-1.62-1.47-1.79,0-.35,1.23-2.53,7.09-4.74s14.53-3.56,23.36-3.56,17.49,1.3,23.75,3.59C457.38,178.86,458.85,181,458.88,181.46Z" transform="translate(-12.57 -12.9)"/></g><g id="_Group_49" data-name="&lt;Group&gt;" class="cls-18"><path id="_Path_134" data-name="&lt;Path&gt;" d="M458.88,181.46c0,.2-.4.86-1.57,1.77a23,23,0,0,1-5.82,2.94c-6.26,2.26-14.92,3.58-23.75,3.58s-17.35-1.3-23.36-3.55a20.56,20.56,0,0,1-5.62-3c-1.15-.93-1.47-1.62-1.47-1.79,0-.35,1.23-2.53,7.09-4.74s14.53-3.56,23.36-3.56,17.49,1.3,23.75,3.59C457.38,178.86,458.85,181,458.88,181.46Z" transform="translate(-12.57 -12.9)"/></g><g id="_Group_50" data-name="&lt;Group&gt;"><path id="_Path_135" data-name="&lt;Path&gt;" class="cls-3" d="M457.31,183.23a23,23,0,0,1-5.82,2.94c-6.26,2.26-14.92,3.58-23.75,3.58s-17.35-1.3-23.36-3.55a20.56,20.56,0,0,1-5.62-3,20,20,0,0,1,5.62-3c6-2.26,14.53-3.56,23.36-3.56s17.49,1.3,23.75,3.58A22.28,22.28,0,0,1,457.31,183.23Z" transform="translate(-12.57 -12.9)"/></g><g id="_Group_51" data-name="&lt;Group&gt;" class="cls-18"><path id="_Path_136" data-name="&lt;Path&gt;" d="M443.1,183.55c2.06-1.17,4.58-1.65,5.61-1.07s.19,2-1.87,3.2-4.58,1.66-5.61,1.07S441,184.72,443.1,183.55Z" transform="translate(-12.57 -12.9)"/></g></g></g><g id="_Group_52" data-name="&lt;Group&gt;"><path id="_Path_137" data-name="&lt;Path&gt;" class="cls-20" d="M389.37,275.14c0,3.71,3.72,7.42,11.15,10.25,14.86,5.66,39.38,5.66,54.76,0,7.67-2.82,11.52-6.53,11.53-10.23l2.38-36.22c0,3.94-4.08,7.88-12.24,10.89-16.32,6-42.35,6-58.13,0-7.89-3-11.83-7-11.83-10.89Z" transform="translate(-12.57 -12.9)"/></g><g id="_Group_53" data-name="&lt;Group&gt;"><g id="_Group_54" data-name="&lt;Group&gt;"><path id="_Path_138" data-name="&lt;Path&gt;" class="cls-19" d="M414.92,277.28c-1.38-1.86-2.14-4.14-3.26-6.15a18.2,18.2,0,0,0-9.47-8.34,1.18,1.18,0,0,0-1.47.54c-2.06,4.19-.8,10.06,3.46,14.32s10,5.53,14.22,3.56c.24-.11.3-.58.11-.69A11.79,11.79,0,0,1,414.92,277.28Z" transform="translate(-12.57 -12.9)"/></g><g id="_Group_55" data-name="&lt;Group&gt;"><path id="_Path_139" data-name="&lt;Path&gt;" class="cls-19" d="M404.46,261.65a19.66,19.66,0,0,1,6,3.67,18.08,18.08,0,0,1,4.33,5.91c1.59,3.38,3.1,5.47,5.43,7.21a1.16,1.16,0,0,0,1.63-.25c2.79-4.22,1.68-10.67-2.91-15.26-4.35-4.36-10.39-5.61-14.6-3.36A1.16,1.16,0,0,0,404.46,261.65Z" transform="translate(-12.57 -12.9)"/></g></g></g></g><g id="Speech_Bubbles" data-name="Speech Bubbles"><g id="Speach_Bubble" data-name="Speach Bubble"><g id="_Group_56" data-name="&lt;Group&gt;"><g id="_Group_57" data-name="&lt;Group&gt;"><path id="_Path_140" data-name="&lt;Path&gt;" class="cls-3" d="M349.33,59.94V49.72L340.7,49a.6.6,0,0,0-.36.07L331.73,54a.63.63,0,0,0-.14,1l9.15,9.91Z" transform="translate(-12.57 -12.9)"/><path id="_Path_141" data-name="&lt;Path&gt;" class="cls-3" d="M340.74,64.85l-9.15-9.91a.63.63,0,0,1,.52-1.06l8.63.75Z" transform="translate(-12.57 -12.9)"/><path id="_Path_142" data-name="&lt;Path&gt;" class="cls-3" d="M349.33,49.72l-8.59,4.91-8.63-.75a.73.73,0,0,0-.3,0c.69-.41,8.22-4.71,8.53-4.88a.54.54,0,0,1,.36-.07Z" transform="translate(-12.57 -12.9)"/><path id="_Path_143" data-name="&lt;Path&gt;" class="cls-10" d="M349.33,49.72l-8.59,4.91-8.63-.75a.73.73,0,0,0-.3,0c.69-.41,8.22-4.71,8.53-4.88a.54.54,0,0,1,.36-.07Z" transform="translate(-12.57 -12.9)"/></g><g id="_Group_58" data-name="&lt;Group&gt;"><g id="_Group_59" data-name="&lt;Group&gt;"><g id="_Group_60" data-name="&lt;Group&gt;"><g id="_Group_61" data-name="&lt;Group&gt;"><path id="_Path_144" data-name="&lt;Path&gt;" class="cls-3" d="M340.75,43.1a6.87,6.87,0,0,1,3.12-5.39l2.53-1.47a6.88,6.88,0,0,1,6.22,0l27,15.59a6.89,6.89,0,0,1,3.11,5.39V88.41a6.86,6.86,0,0,1-3.11,5.39l-2.53,1.46a6.84,6.84,0,0,1-6.23,0l-8-4.6-10.36-6-8.66-5a6.87,6.87,0,0,1-3.12-5.38Z" transform="translate(-12.57 -12.9)"/><path id="_Path_145" data-name="&lt;Path&gt;" class="cls-13" d="M366.65,70.43A14.13,14.13,0,0,0,365.5,65h0l0,0A9.45,9.45,0,0,0,362,60.54c-2.36-1.39-4.33,1.44-4.64,4.77-.28-3.68-2.22-8.81-4.59-10.19a2.58,2.58,0,0,0-3.48.34v0h0a6.17,6.17,0,0,0-1.19,4c0,5.64,3.37,10.76,6.2,16.14l3,5.65,3-2.11C363.2,77.18,366.62,76.07,366.65,70.43Z" transform="translate(-12.57 -12.9)"/><path id="_Path_146" data-name="&lt;Path&gt;" class="cls-5" d="M382.73,88.41a6.86,6.86,0,0,1-3.11,5.39l-2.53,1.46a7,7,0,0,1-5.69.26c1.46.55,2.58-.28,2.58-2V62.28a6.43,6.43,0,0,0-.91-3.07l8.75-5.05a6.36,6.36,0,0,1,.91,3.06Z" transform="translate(-12.57 -12.9)"/><path id="_Path_147" data-name="&lt;Path&gt;" class="cls-10" d="M340.86,42.21c.36-1.32,1.56-1.74,3-.91l27,15.59a6.29,6.29,0,0,1,2.19,2.32l8.75-5.05a6.29,6.29,0,0,0-2.19-2.32l-27-15.59a6.91,6.91,0,0,0-6.23,0l-2.54,1.46A6.82,6.82,0,0,0,340.86,42.21Z" transform="translate(-12.57 -12.9)"/></g></g></g></g></g></g><g id="Speach_Bubble-2" data-name="Speach Bubble"><g id="_Group_62" data-name="&lt;Group&gt;"><g id="_Group_63" data-name="&lt;Group&gt;"><path id="_Path_148" data-name="&lt;Path&gt;" class="cls-3" d="M349.33,127.14V116.92l-8.63-.76a.6.6,0,0,0-.36.08l-8.61,4.92a.62.62,0,0,0-.14,1l9.15,9.92Z" transform="translate(-12.57 -12.9)"/><path id="_Path_149" data-name="&lt;Path&gt;" class="cls-3" d="M340.74,132.05l-9.15-9.92a.63.63,0,0,1,.52-1.06l8.63.76Z" transform="translate(-12.57 -12.9)"/><path id="_Path_150" data-name="&lt;Path&gt;" class="cls-3" d="M349.33,116.91l-8.59,4.92-8.63-.76a.73.73,0,0,0-.3.05c.69-.41,8.22-4.72,8.53-4.88a.6.6,0,0,1,.36-.08Z" transform="translate(-12.57 -12.9)"/><path id="_Path_151" data-name="&lt;Path&gt;" class="cls-10" d="M349.33,116.91l-8.59,4.92-8.63-.76a.73.73,0,0,0-.3.05c.69-.41,8.22-4.72,8.53-4.88a.6.6,0,0,1,.36-.08Z" transform="translate(-12.57 -12.9)"/></g><g id="_Group_64" data-name="&lt;Group&gt;"><g id="_Group_65" data-name="&lt;Group&gt;"><g id="_Group_66" data-name="&lt;Group&gt;"><g id="_Group_67" data-name="&lt;Group&gt;"><path id="_Path_152" data-name="&lt;Path&gt;" class="cls-3" d="M340.75,110.29a6.89,6.89,0,0,1,3.12-5.39l2.53-1.46a6.88,6.88,0,0,1,6.22,0l27,15.59a6.86,6.86,0,0,1,3.11,5.39v31.19a6.88,6.88,0,0,1-3.11,5.39l-2.53,1.46a6.91,6.91,0,0,1-6.23,0l-8-4.6-10.36-6-8.66-5a6.87,6.87,0,0,1-3.12-5.39Z" transform="translate(-12.57 -12.9)"/><path id="_Path_153" data-name="&lt;Path&gt;" class="cls-13" d="M356.39,122.4l-2.38,5a.56.56,0,0,1-.77.3l-5.32-2c-.84-.33-1.18.86-.57,2L351.2,135a2.37,2.37,0,0,1,.29,1.38l-.91,6.54c-.14,1,.74,2.4,1.5,2.31l4.75-.59a1.17,1.17,0,0,1,1,.55l4.76,6.08c.75,1,1.63.62,1.49-.58l-.91-7.59a1.07,1.07,0,0,1,.3-1l3.84-2.78c.62-.44.28-2-.57-2.67l-5.31-4.1a2.45,2.45,0,0,1-.78-1.2l-2.37-7.79C357.86,122.23,356.77,121.6,356.39,122.4Z" transform="translate(-12.57 -12.9)"/><path id="_Path_154" data-name="&lt;Path&gt;" class="cls-5" d="M382.73,155.61a6.88,6.88,0,0,1-3.11,5.39l-2.53,1.46a7,7,0,0,1-5.69.25c1.46.55,2.58-.27,2.58-2.05V129.47a6.36,6.36,0,0,0-.91-3.06l8.75-5.06a6.43,6.43,0,0,1,.91,3.07Z" transform="translate(-12.57 -12.9)"/><path id="_Path_155" data-name="&lt;Path&gt;" class="cls-10" d="M340.86,109.41c.36-1.32,1.56-1.74,3-.92l27,15.6a6.14,6.14,0,0,1,2.19,2.32l8.75-5a6.22,6.22,0,0,0-2.19-2.32l-27-15.6a6.91,6.91,0,0,0-6.23,0l-2.54,1.47A6.82,6.82,0,0,0,340.86,109.41Z" transform="translate(-12.57 -12.9)"/></g></g></g></g></g></g></g><g id="Character"><g id="Character-2" data-name="Character"><g id="_Group_68" data-name="&lt;Group&gt;"><g id="_Group_69" data-name="&lt;Group&gt;"><path id="_Path_156" data-name="&lt;Path&gt;" class="cls-21" d="M242.9,321.93l-24.18,6.42-4.83,1.28h0a1.3,1.3,0,0,1-1.52-.72,1.27,1.27,0,0,1,.12-1.33l0,0,3.42-4.42,15-19.48,4.8,7.35Z" transform="translate(-12.57 -12.9)"/><path id="_Path_157" data-name="&lt;Path&gt;" class="cls-22" d="M235.76,311l-19.65,15.06-3.75,2.86a1.27,1.27,0,0,1,.12-1.33l0,0,3.42-4.42,15-19.48Z" transform="translate(-12.57 -12.9)"/><path id="_Path_158" data-name="&lt;Path&gt;" class="cls-9" d="M218.72,328.35l-4.83,1.28h0a1.3,1.3,0,0,1-1.52-.72,1.27,1.27,0,0,1,.12-1.33l0,0,3.42-4.42a5.21,5.21,0,0,0,.18,2.93A4.12,4.12,0,0,0,218.72,328.35Z" transform="translate(-12.57 -12.9)"/><path id="_Path_159" data-name="&lt;Path&gt;" class="cls-11" d="M340.27,231l-2.4,1.59-2.9,1.92L231,303.64a13.9,13.9,0,0,0,1.52,10.05c2.48,4.69,6.93,8.23,10.42,8.22l103.24-68.64,5.53-3.68C348,251.78,336.58,233.22,340.27,231Z" transform="translate(-12.57 -12.9)"/><path id="_Path_160" data-name="&lt;Path&gt;" class="cls-9" d="M337.87,232.57l-2.9,1.92L231,303.64a13.9,13.9,0,0,0,1.52,10.05l107-72.07Z" transform="translate(-12.57 -12.9)"/><path id="_Path_161" data-name="&lt;Path&gt;" class="cls-12" d="M331.12,237l-5.35,3.57c-1.58,1-.38,4.95,1.82,9,2.91,5.38,7.55,10.89,9.66,9.59l3.93-2.65,1.42-.94c-2.11,1.3-6.76-4.21-9.67-9.59-2.1-3.88-3.29-7.71-2-8.86h0A.31.31,0,0,1,331.12,237Z" transform="translate(-12.57 -12.9)"/><path id="_Path_162" data-name="&lt;Path&gt;" class="cls-13" d="M332.93,246c-2.1-3.88-3.29-7.71-2-8.86h0a.31.31,0,0,1,.14-.11l-5.35,3.57c-1.58,1-.38,4.95,1.82,9l5.34-3.59Z" transform="translate(-12.57 -12.9)"/><path id="_Path_163" data-name="&lt;Path&gt;" class="cls-3" d="M329.79,237.92c-3.68,2.28,7.79,20.86,11.48,18.58l5.37-3.56c-3.69,2.28-15.16-16.3-11.48-18.57Z" transform="translate(-12.57 -12.9)"/><path id="_Path_164" data-name="&lt;Path&gt;" class="cls-12" d="M340.27,231l-5.3,3.51c-3.63,2.21,7.27,20.25,11.17,18.78a.72.72,0,0,0,.22-.1l5.31-3.58C348,251.78,336.58,233.22,340.27,231Z" transform="translate(-12.57 -12.9)"/><path id="_Path_165" data-name="&lt;Path&gt;" class="cls-21" d="M362.74,216.07,340.27,231c-1.58,1-.41,4.89,1.75,8.92,2.89,5.39,7.53,10.95,9.65,9.69,0,0,0,0,0,0l21.61-14.34c5.32-2.93,1.16-13.91-4.33-18.08C366.94,215.59,364.73,215,362.74,216.07Z" transform="translate(-12.57 -12.9)"/><path id="_Path_166" data-name="&lt;Path&gt;" class="cls-22" d="M362.74,216.07,340.27,231c-1.58,1-.41,4.89,1.75,8.92l22.65-14.31s-2.68-5.57-1.5-7.8,3.41-2,5.81-.63C366.94,215.59,364.73,215,362.74,216.07Z" transform="translate(-12.57 -12.9)"/></g><path id="_Path_167" data-name="&lt;Path&gt;" class="cls-14" d="M335.16,234.37l-5.37,3.55c-1.57,1-.37,4.94,1.81,9l5.35-3.6C334.78,239.28,333.59,235.34,335.16,234.37Z" transform="translate(-12.57 -12.9)"/><path id="_Path_168" data-name="&lt;Path&gt;" class="cls-13" d="M340.27,231l-5.3,3.51c-1.58,1-.41,4.92,1.75,9l5.3-3.56C339.87,235.87,338.69,231.93,340.27,231Z" transform="translate(-12.57 -12.9)"/></g><g id="_Group_70" data-name="&lt;Group&gt;"><g id="_Group_71" data-name="&lt;Group&gt;"><g id="_Group_72" data-name="&lt;Group&gt;"><path id="_Path_169" data-name="&lt;Path&gt;" class="cls-11" d="M307,415.35a39.23,39.23,0,0,1,1,4c.29,1.51.69,4,.15,5.14s-2.59,1.83-5.77,1.76c-2.06,0-5.28,1.31-7.49,2.51a11.42,11.42,0,0,1-7.14.9c-2.82-.37-5.73-2-6.17-3.23s.15-1.73,6.85-4.48c.06,0,7.06-3.08,10.33-6.59Z" transform="translate(-12.57 -12.9)"/><path id="_Path_170" data-name="&lt;Path&gt;" class="cls-23" d="M299.15,407l-.43,6.09a6.19,6.19,0,0,1-2.5,4.55,47.19,47.19,0,0,1-7.8,4.41L286,423c-.18.64.07,1.64,3,2.13,4.52.75,14.95-6.53,14.95-6.53h0c1.74-1.09,3-2.42,3-3.27a67.89,67.89,0,0,1,1-9.13Z" transform="translate(-12.57 -12.9)"/></g><g id="_Group_73" data-name="&lt;Group&gt;"><g id="_Group_74" data-name="&lt;Group&gt;"><path id="_Path_171" data-name="&lt;Path&gt;" class="cls-23" d="M343.09,400.21,340.41,394l6.74-3.74,3.15,7.62c1,1.69,2.49,1.83,3.16,2.74s-1.14,13.25-3.41,16.63-7.69.72-8.56-.22,3.49-2.16,3.64-3a66,66,0,0,0-.47-8.23A15.32,15.32,0,0,0,343.09,400.21Z" transform="translate(-12.57 -12.9)"/></g><g id="_Group_75" data-name="&lt;Group&gt;"><path id="_Path_172" data-name="&lt;Path&gt;" class="cls-11" d="M351.55,399.1c-.71,1.18-.74,3.53-1.1,6.87s-.7,8.65-2.59,10.06c-2.2,1.63-6.5.48-4.25-.81.62-.35.71-.49,1.06-.7.75-.46.48-.86.48-.86a16.43,16.43,0,0,1-3.18,1.75,3.54,3.54,0,0,0-2.49,3.63,2.92,2.92,0,0,0,1.71,1.84,12.8,12.8,0,0,0,5.86.09c4.07-.88,6.38-2.55,6.87-5.83.6-4,2.5-8.62,3.1-10.95C357.75,401.38,354.12,398.89,351.55,399.1Z" transform="translate(-12.57 -12.9)"/></g></g><g id="_Group_76" data-name="&lt;Group&gt;"><path id="_Path_173" data-name="&lt;Path&gt;" class="cls-23" d="M305.29,310.38s14.58,41,15.89,45.49a48.48,48.48,0,0,0,4.21,10.72c1.56,2.92,17.7,33.62,17.7,33.62,5.09-.44,6.6-3.85,6.6-3.85s-6.49-27.47-8-32.43a19.92,19.92,0,0,0-4.61-8.31l-2.95-30.87c-.57-5.59-1.3-9.58-7.65-20.24l-4-5.05Z" transform="translate(-12.57 -12.9)"/></g><g id="_Group_77" data-name="&lt;Group&gt;"><path id="_Path_174" data-name="&lt;Path&gt;" class="cls-23" d="M313.19,307.51c3.33,5.89,6.88,11.08,6.92,17.53.06,11.66-6.65,28-8.29,37.88a27,27,0,0,1,.9,10.94c-.6,4.09-5.38,36.4-5.38,36.4s-4.61,2.62-8.44.28c0,0-2.62-46.12-2.36-64s2.65-43.07,2.65-43.07Z" transform="translate(-12.57 -12.9)"/></g></g><g id="_Group_78" data-name="&lt;Group&gt;"><polygon id="_Path_175" data-name="&lt;Path&gt;" class="cls-23" points="293 247.77 294.14 257.83 304.06 258.98 302.63 245.63 293 247.77"/><path id="_Path_176" data-name="&lt;Path&gt;" class="cls-23" d="M306.28,236.25c-2.41,1.05-6.89.3-8.46,11.48-1.23,8.81.36,11.83,1.48,13.06.76.84,5.66,1.61,7.89,1.07,2.79-.66,8.9-3.19,12-7.55,3.62-5.13,4.77-12.22,1.19-15.27C315.32,234.75,308.32,235.37,306.28,236.25Z" transform="translate(-12.57 -12.9)"/><path id="_Path_177" data-name="&lt;Path&gt;" class="cls-24" d="M307.41,260.42a32,32,0,0,1-7.09.84,17.61,17.61,0,0,0,5.4.72C307.55,261.08,307.41,260.42,307.41,260.42Z" transform="translate(-12.57 -12.9)"/><path id="_Path_178" data-name="&lt;Path&gt;" class="cls-24" d="M298,247.25s-2.64,3.47-2.36,3.87a5.85,5.85,0,0,0,1.79.91Z" transform="translate(-12.57 -12.9)"/></g><path id="_Path_179" data-name="&lt;Path&gt;" class="cls-3" d="M300.35,232.61c3.41-3,10.46-4.3,16.6-.37a7.35,7.35,0,0,1,5.27,3.14,2,2,0,0,1,.11-1.26,2.17,2.17,0,0,1,2.84-1.14l-1.11,2.6a2.08,2.08,0,0,1,.67-.32,2.15,2.15,0,0,1,2.66,1.49l-3.22.91c1.5,1.24,3.22,6.26,2.73,9.43-1.16,7.36-4.81,9.11-11.4,14.28l-2.07.32c-3.11,0-5.58-3.2-6.26-4.29a5.73,5.73,0,0,1-.82-2.78,1.59,1.59,0,0,0,1.76.6,4.25,4.25,0,0,0,2.08-1.24c1.9-2.09,1.28-5.75-.6-6.26a2.79,2.79,0,0,0-3,.84l-.62,1-.44,2-.16.77a2.14,2.14,0,0,1-1.66-2.55,2.3,2.3,0,0,1,.19-.54l-.24-.35C295.78,244.93,296.82,235.75,300.35,232.61Z" transform="translate(-12.57 -12.9)"/><path id="_Path_180" data-name="&lt;Path&gt;" class="cls-18" d="M300.35,232.61c3.41-3,10.46-4.3,16.6-.37a7.35,7.35,0,0,1,5.27,3.14,2,2,0,0,1,.11-1.26,2.17,2.17,0,0,1,2.84-1.14l-1.11,2.6a2.08,2.08,0,0,1,.67-.32,2.15,2.15,0,0,1,2.66,1.49l-3.22.91c1.5,1.24,3.22,6.26,2.73,9.43-1.16,7.36-4.81,9.11-11.4,14.28l-2.07.32c-3.11,0-5.58-3.2-6.26-4.29a5.73,5.73,0,0,1-.82-2.78,1.59,1.59,0,0,0,1.76.6,4.25,4.25,0,0,0,2.08-1.24c1.9-2.09,1.28-5.75-.6-6.26a2.79,2.79,0,0,0-3,.84l-.62,1-.44,2-.16.77a2.14,2.14,0,0,1-1.66-2.55,2.3,2.3,0,0,1,.19-.54l-.24-.35C295.78,244.93,296.82,235.75,300.35,232.61Z" transform="translate(-12.57 -12.9)"/><path id="_Path_181" data-name="&lt;Path&gt;" class="cls-23" d="M321.68,265.25c3,.19,6,3.27,6.23,6.66s-4,14.35-4,14.35Z" transform="translate(-12.57 -12.9)"/><g id="_Group_79" data-name="&lt;Group&gt;"><path id="_Path_182" data-name="&lt;Path&gt;" class="cls-3" d="M322.53,296.4c1.15-4.14,4-8.65,4-16.13a25.77,25.77,0,0,0-4.84-15l-5.71.08s-.11,1.39-3,1.95a12.78,12.78,0,0,1-6.66-.29c-.54.06-3.58.16-3.58.16l-7.23,12.66a7.79,7.79,0,0,0-.21,8.8,10.65,10.65,0,0,0,2.88,3.07c.67,3.07,1.74,6.21,1.74,6.21C311.29,300.84,317.72,301.37,322.53,296.4Z" transform="translate(-12.57 -12.9)"/><path id="_Path_183" data-name="&lt;Path&gt;" class="cls-6" d="M322.53,296.4c1.15-4.14,4-8.65,4-16.13a25.77,25.77,0,0,0-4.84-15l-5.71.08s-.11,1.39-3,1.95a12.78,12.78,0,0,1-6.66-.29c-.54.06-3.58.16-3.58.16l-7.23,12.66a7.79,7.79,0,0,0-.21,8.8,10.65,10.65,0,0,0,2.88,3.07c.67,3.07,1.74,6.21,1.74,6.21C311.29,300.84,317.72,301.37,322.53,296.4Z" transform="translate(-12.57 -12.9)"/><path id="_Path_184" data-name="&lt;Path&gt;" class="cls-3" d="M299.88,297.86v3.36s-11.2,15.49-13.26,34.45c0,0,9,11.36,30.17,8.28C341.21,340.4,344,326.57,344,326.57s-5.86-17.09-21.47-27.11V296.4Z" transform="translate(-12.57 -12.9)"/><path id="_Path_185" data-name="&lt;Path&gt;" class="cls-6" d="M299.88,297.86v3.36s-11.2,15.49-13.26,34.45c0,0,9,11.36,30.17,8.28C341.21,340.4,344,326.57,344,326.57s-5.86-17.09-21.47-27.11V296.4Z" transform="translate(-12.57 -12.9)"/><path id="_Path_186" data-name="&lt;Path&gt;" class="cls-3" d="M322.53,296.4s-1.32,3-10,3.49c-3.49.21-10.23-.43-12.66-2v3.36s3.37,2.63,13.41,2.08c9.22-.5,9.24-3.84,9.24-3.84Z" transform="translate(-12.57 -12.9)"/></g><path id="_Path_187" data-name="&lt;Path&gt;" class="cls-23" d="M302.84,267.16c-8.8.28-8,2.19-12.75,10-2.66,4.38-6.65,12.48-8.75,16.63-4.48,1.91-14.48,2.84-18.49,1.88a3.22,3.22,0,0,1-2-1.31c-1.24-1.83-2.51-2.11-4-3.44-1.18-1-1.51-1.94-1.86-1.78a1.78,1.78,0,0,0-.7,2.32,8.89,8.89,0,0,0,1.31,2.18,18.5,18.5,0,0,1-4.45-2.49c-3.28-2.43-5.23-2.45-5,2.75.12,3.26,2.25,5.77,9.55,7.89a59.61,59.61,0,0,0,8.18,1.92,78.14,78.14,0,0,0,21-.9c.64-.13,1.41-.85,3.26-2.68,2.88-2.84,10.49-15.59,10.49-15.59C304.64,281.31,303.91,271.55,302.84,267.16Z" transform="translate(-12.57 -12.9)"/></g></g></g></svg>