<?xml version="1.0" encoding="utf-8"?>
<!-- Generator: Adobe Illustrator 22.1.0, SVG Export Plug-In . SVG Version: 6.00 Build 0)  -->
<svg version="1.1" id="Layer_1" xmlns="http://www.w3.org/2000/svg" xmlns:xlink="http://www.w3.org/1999/xlink" x="0px" y="0px"
	 viewBox="0 0 1000 1000" style="enable-background:new 0 0 1000 1000;" xml:space="preserve">
<style type="text/css">
	.st0{opacity:0.61;fill:url(#XMLID_4_);enable-background:new    ;}
	.st1{opacity:0.89;fill:url(#XMLID_5_);enable-background:new    ;}
	.st2{fill:none;stroke:#323345;stroke-width:6;stroke-linecap:round;stroke-linejoin:round;stroke-miterlimit:10;}
	.st3{fill:#1C6F45;}
	.st4{opacity:0.59;fill:#C8A82F;enable-background:new    ;}
	.st5{fill:#145B34;}
	.st6{fill:#DFC19F;}
	.st7{fill:url(#XMLID_6_);}
	.st8{fill:#ECDBC9;}
	.st9{fill:none;stroke:#323345;stroke-width:4;stroke-linecap:round;stroke-linejoin:round;stroke-miterlimit:10;}
	.st10{fill:#1B6E44;}
	.st11{opacity:0.3;fill:url(#XMLID_14_);enable-background:new    ;}
	.st12{opacity:0.3;fill:url(#XMLID_22_);enable-background:new    ;}
	.st13{opacity:0.3;fill:url(#XMLID_23_);enable-background:new    ;}
	.st14{fill:#323345;}
	.st15{fill:#FBAF41;}
	.st16{fill:#CC8127;}
	.st17{fill:#C8A82F;}
	.st18{fill:none;stroke:#323345;stroke-width:8;stroke-linecap:round;stroke-linejoin:round;stroke-miterlimit:10;}
</style>
<radialGradient id="XMLID_4_" cx="500" cy="1349.5" r="534.3067" gradientTransform="matrix(1 0 0 -1 0 1874)" gradientUnits="userSpaceOnUse">
	<stop  offset="0" style="stop-color:#F29543"/>
	<stop  offset="0.1095" style="stop-color:#F09543;stop-opacity:0.8014"/>
	<stop  offset="0.1711" style="stop-color:#E79645;stop-opacity:0.6898"/>
	<stop  offset="0.2208" style="stop-color:#DA9747;stop-opacity:0.5997"/>
	<stop  offset="0.2641" style="stop-color:#C6994A;stop-opacity:0.5211"/>
	<stop  offset="0.3033" style="stop-color:#AC9B4E;stop-opacity:0.45"/>
	<stop  offset="0.3396" style="stop-color:#8D9E53;stop-opacity:0.3844"/>
	<stop  offset="0.3735" style="stop-color:#68A259;stop-opacity:0.3228"/>
	<stop  offset="0.4057" style="stop-color:#3CA661;stop-opacity:0.2645"/>
	<stop  offset="0.4353" style="stop-color:#0DAA68;stop-opacity:0.2108"/>
	<stop  offset="0.4413" style="stop-color:#02AB6A;stop-opacity:0.2"/>
</radialGradient>
<circle id="XMLID_34_" class="st0" cx="500" cy="524.5" r="211"/>
<radialGradient id="XMLID_5_" cx="500" cy="1349.5" r="149.3" gradientTransform="matrix(1 0 0 -1 0 1874)" gradientUnits="userSpaceOnUse">
	<stop  offset="0" style="stop-color:#F29543"/>
	<stop  offset="0.1302" style="stop-color:#EB9847;stop-opacity:0.8637"/>
	<stop  offset="0.3179" style="stop-color:#D8A151;stop-opacity:0.667"/>
	<stop  offset="0.5405" style="stop-color:#B9AF61;stop-opacity:0.4339"/>
	<stop  offset="0.7638" style="stop-color:#92C176;stop-opacity:0.2"/>
</radialGradient>
<circle id="XMLID_54_" class="st1" cx="500" cy="524.5" r="149.3"/>
<path id="XMLID_60_" class="st2" d="M617.9,568.5l-32.2-202.3c-3-18.5-24.2-32.7-47.6-32.7H464c-23.4,0-44.6,14.1-47.6,32.7
	l-32.2,202.3c-6.1,38.6,19,73,56.9,73H561C598.8,641.5,624,607.1,617.9,568.5z M587.2,608.9c-4.6,5.4-12.9,12.6-26.2,12.6H441
	c-13.3,0-21.6-7.5-26.2-12.9c-7.8-9.2-11.1-22.7-8.9-36.1l32.2-201.6c0.9-5.8,11.4-13.4,25.8-13.4H538c14.4,0,24.9,7.4,25.8,13.2
	L596,572.5C598.3,586,595,599.7,587.2,608.9z"/>
<path id="XMLID_20_" class="st3" d="M617.9,568.5l-32.2-202.3c-3-18.5-24.2-32.7-47.6-32.7H464c-23.4,0-44.6,14.1-47.6,32.7
	l-32.2,202.3c-6.1,38.6,19,73,56.9,73H561C598.8,641.5,624,607.1,617.9,568.5z M587.2,608.9c-4.6,5.4-12.9,12.6-26.2,12.6H441
	c-13.3,0-21.6-7.5-26.2-12.9c-7.8-9.2-11.1-22.7-8.9-36.1l32.2-201.6c0.9-5.8,11.4-13.4,25.8-13.4H538c14.4,0,24.9,7.4,25.8,13.2
	L596,572.5C598.3,586,595,599.7,587.2,608.9z"/>
<path id="XMLID_82_" class="st3" d="M617.9,568.5l-32.2-202.3c-3-18.5-24.2-32.7-47.6-32.7H464c-23.4,0-44.6,14.1-47.6,32.7
	l-32.2,202.3c-6.1,38.6,19,73,56.9,73H561C598.8,641.5,624,607.1,617.9,568.5z M587.2,608.9c-4.6,5.4-12.9,12.6-26.2,12.6H441
	c-13.3,0-21.6-7.5-26.2-12.9c-7.8-9.2-11.1-22.7-8.9-36.1l32.2-201.6c0.9-5.8,11.4-13.4,25.8-13.4H538c14.4,0,24.9,7.4,25.8,13.2
	L596,572.5C598.3,586,595,599.7,587.2,608.9z"/>
<path id="XMLID_194_" class="st4" d="M405.9,572.5l23.9-149.3c-6.3-4.9-13.1-9.1-20.5-12.3l-25.1,157.7c-1.5,9.5-1.1,18.8,0.9,27.4
	c7.4-1,14.4-2.9,21.1-5.5C405,584.7,404.9,578.6,405.9,572.5z"/>
<path id="XMLID_193_" class="st4" d="M596.1,572.5c0.8,5.2,0.8,10.5,0.1,15.5c6.6,3.1,13.6,5.5,20.9,7c1.8-8.3,2.2-17.2,0.7-26.4
	l-24.7-155c-7.3,3.8-14.1,8.6-20.2,14.1L596.1,572.5z"/>
<path id="XMLID_1_" class="st2" d="M561,641.5H441c-37.8,0-63-34.4-56.9-73l32.2-202.3c3-18.5,24.2-32.7,47.6-32.7H538
	c23.4,0,44.6,14.1,47.6,32.7l32.2,202.3C624,607.1,598.8,641.5,561,641.5z"/>
<path id="XMLID_42_" class="st5" d="M617.9,568.5l-32.2-202.3c-3-18.5-24.2-32.7-47.6-32.7H464c-23.4,0-44.6,14.1-47.6,32.7
	l-32.2,202.3c-6.1,38.6,19,73,56.9,73H561C598.8,641.5,624,607.1,617.9,568.5z M596.3,615.4c-8.9,10.4-21.4,16.1-35.4,16.1H441
	c-14,0-26.5-5.7-35.4-16.1c-10.1-11.8-14.3-28.4-11.6-45.3l32.2-202.3c2.1-13.4,19-24.3,37.7-24.3H538c18.6,0,35.5,10.9,37.7,24.3
	L608,570.1C610.7,587.1,606.4,603.6,596.3,615.4z"/>
<path id="XMLID_88_" class="st2" d="M617.9,568.5l-32.2-202.3c-3-18.5-24.2-32.7-47.6-32.7H464c-23.4,0-44.6,14.1-47.6,32.7
	l-32.2,202.3c-6.1,38.6,19,73,56.9,73H561C598.8,641.5,624,607.1,617.9,568.5z"/>
<path id="XMLID_47_" class="st6" d="M529.7,423.2c-20.2,0-40.4,0-60.5,0c-15.9,18.3-29.9,42.5-36.1,71.4
	c-7.3,32.8-2.4,69.5,12.9,97.8c5.7,10.6,17.8,17.5,29.8,17.5c16.3,0,32.7,0,49,0c12.2,0,24.6-7.1,30.1-17.9
	c14-27.5,19.1-63.8,9.6-101.9C557.6,461.3,544.3,438.6,529.7,423.2z"/>
<radialGradient id="XMLID_6_" cx="500.4" cy="1349.5" r="57" gradientTransform="matrix(1 0 0 -1 0 1874)" gradientUnits="userSpaceOnUse">
	<stop  offset="0.1237" style="stop-color:#F2CA91"/>
	<stop  offset="1" style="stop-color:#F2CA91;stop-opacity:0.3"/>
</radialGradient>
<circle id="XMLID_72_" class="st7" cx="500.4" cy="524.5" r="57"/>
<ellipse id="XMLID_45_" transform="matrix(0.2737 -0.9618 0.9618 0.2737 -96.2063 787.6242)" class="st8" cx="473.4" cy="457.5" rx="30.5" ry="13.5"/>
<path id="XMLID_10_" class="st9" d="M529.7,424.2c-20.2,0-40.4,0-60.5,0c-15.9,18.3-29.9,42.1-36.1,70.9
	c-7.3,32.8-2.4,69.8,12.9,98.1c5.7,10.6,17.8,17.7,29.8,17.7c16.3,0,32.7,0,49,0c12.2,0,24.6-7.6,30.1-18.4
	c14-27.5,19.1-63.6,9.6-101.6C557.6,462,544.3,439.6,529.7,424.2z"/>
<path id="XMLID_32_" class="st5" d="M561,656.5H439V637c0-6.6,5.4-12,12-12h98c6.6,0,12,5.4,12,12V656.5z"/>
<path id="XMLID_2_" class="st10" d="M543.3,649.7h-86.7v-6.2c0-6.6,5.4-12,12-12h62.7c6.6,0,12,5.4,12,12V649.7z"/>
<path id="XMLID_138_" class="st4" d="M549,625h-98c-6.6,0-12,4.2-12,9.3v6.5c0-5.1,5.4-9.3,12-9.3h98c6.6,0,12,4.2,12,9.3v-6.5
	C561,629.2,555.6,625,549,625z"/>
<path id="XMLID_7_" class="st2" d="M561,656.5H439V637c0-6.6,5.4-12,12-12h98c6.6,0,12,5.4,12,12V656.5z"/>
<path id="XMLID_21_" class="st10" d="M590.8,684.5h-182v-4c0-13.3,10.8-24,24-24h133.9c13.3,0,24,10.8,24,24v4H590.8z"/>
<path id="XMLID_90_" class="st5" d="M409.4,675c-0.4,1.8-0.6,3.6-0.6,5.5v4h182v-4c0-1.9-0.2-3.8-0.6-5.5H409.4z"/>
<path id="XMLID_99_" class="st4" d="M566.8,656.5h-134c-13.3,0-24,10.8-24,24v4h0.2c1.3-12,11.5-21.3,23.9-21.3h133.9
	c12.4,0,22.5,9.3,23.9,21.3h0.2v-4C590.8,667.3,580,656.5,566.8,656.5z"/>
<linearGradient id="XMLID_14_" gradientUnits="userSpaceOnUse" x1="499.8" y1="1189.5" x2="499.8" y2="874" gradientTransform="matrix(1 0 0 -1 0 1874)">
	<stop  offset="0" style="stop-color:#292E42;stop-opacity:0.7"/>
	<stop  offset="1" style="stop-color:#151721;stop-opacity:0"/>
</linearGradient>
<polygon id="XMLID_83_" class="st11" points="753,1000 246.6,1000 408.8,684.5 590.8,684.5 "/>
<linearGradient id="XMLID_22_" gradientUnits="userSpaceOnUse" x1="499.8" y1="1189.5" x2="499.8" y2="874" gradientTransform="matrix(1 0 0 -1 0 1874)">
	<stop  offset="0" style="stop-color:#292E42;stop-opacity:0.7"/>
	<stop  offset="1" style="stop-color:#151721;stop-opacity:0"/>
</linearGradient>
<polygon id="XMLID_84_" class="st12" points="695,1000 304.6,1000 408.8,684.5 590.8,684.5 "/>
<linearGradient id="XMLID_23_" gradientUnits="userSpaceOnUse" x1="499.8" y1="1189.5" x2="499.8" y2="874" gradientTransform="matrix(1 0 0 -1 0 1874)">
	<stop  offset="0" style="stop-color:#292E42;stop-opacity:0.7"/>
	<stop  offset="1" style="stop-color:#151721;stop-opacity:0"/>
</linearGradient>
<polygon id="XMLID_95_" class="st13" points="627.6,1000 372,1000 408.8,684.5 590.8,684.5 "/>
<path id="XMLID_8_" class="st2" d="M590.8,684.5h-182v-4c0-13.3,10.8-24,24-24h133.9c13.3,0,24,10.8,24,24v4H590.8z"/>
<path id="XMLID_63_" class="st5" d="M544.3,433.3c-30,0-60,0-90,0c0.9-6.5,5.1-13.5,10.7-20c22.9,0,45.8,0,68.7,0
	C539.3,419.8,543.4,426.8,544.3,433.3z"/>
<path id="XMLID_68_" class="st10" d="M509.3,433.3h-20c-7.8,0-13.1-7.8-10.4-15.1c0.6-1.6,1.3-3.3,2-4.9c17.3,0,19.3,0,36.6,0
	c0.7,1.6,1.4,3.2,2,4.9C522.5,425.4,517.1,433.3,509.3,433.3z"/>
<polygon id="XMLID_40_" class="st5" points="549.5,379.5 448.5,379.5 457.6,370.8 540.4,370.8 "/>
<path id="XMLID_9_" class="st2" d="M544.3,433.3c-30,0-60,0-90,0c0.9-6.5,5.1-13.5,10.7-20c22.9,0,45.8,0,68.7,0
	C539.3,419.8,543.4,426.8,544.3,433.3z"/>
<path id="XMLID_46_" class="st5" d="M529.7,380.5h-60.8l-3.2,8c-0.5,1.2-0.7,2.4-0.7,3.6v21.4h69v-21.2c0-1.4-0.3-2.7-0.8-3.9
	L529.7,380.5z"/>
<path id="XMLID_77_" class="st10" d="M505.7,380.5h-12.5c-4.7,0-8.8,3.4-9.7,8l0,0c-0.2,1.2-0.3,2.4-0.3,3.6v8.7
	c0,7,5.7,12.6,12.6,12.6h7.2c7,0,12.6-5.7,12.6-12.6v-8.6c0-1.4-0.1-2.7-0.4-3.9l0,0C514.4,383.8,510.4,380.5,505.7,380.5z"/>
<path id="XMLID_15_" class="st2" d="M529.7,380.5h-60.8l-3.2,8c-0.5,1.2-0.7,2.4-0.7,3.6v21.4h69v-21.2c0-1.4-0.3-2.7-0.8-3.9
	L529.7,380.5z"/>
<polygon id="XMLID_11_" class="st2" points="549.5,379.5 448.5,379.5 457.6,370.8 540.4,370.8 "/>
<polygon id="XMLID_33_" class="st5" points="533.9,318.2 463.2,318.2 457.6,370.8 539.5,370.8 "/>
<path id="XMLID_74_" class="st10" d="M519.9,318.2h-42.7l-2.1,33c-0.7,10.6,7.7,19.6,18.3,19.6h10.3c10.6,0,19-9,18.3-19.6
	L519.9,318.2z"/>
<polygon id="XMLID_12_" class="st2" points="533.9,318.2 463.2,318.2 457.6,370.8 539.5,370.8 "/>
<path id="XMLID_39_" class="st5" d="M530.8,310.5c-5.9,0-11.6-2.5-15.6-6.9s-9.8-7.1-16.2-7.1c-6.4,0-12.2,2.7-16.2,7.1
	s-9.7,6.9-15.6,6.9H453v8h92v-8H530.8z"/>
<path id="XMLID_18_" class="st2" d="M530.8,310.5c-5.9,0-11.6-2.5-15.6-6.9s-9.8-7.1-16.2-7.1c-6.4,0-12.2,2.7-16.2,7.1
	s-9.7,6.9-15.6,6.9H453v8h92v-8H530.8z"/>
<circle id="XMLID_13_" class="st14" cx="482.7" cy="396.3" r="4.8"/>
<circle id="XMLID_19_" class="st14" cx="499.2" cy="396.3" r="4.8"/>
<circle id="XMLID_49_" class="st14" cx="515.7" cy="396.3" r="4.8"/>
<path id="XMLID_48_" class="st15" d="M503.5,512c-1.6,4.4-4.4,10.8-9.5,17.5c-8.6,11.3-14.6,11.6-18,19.5
	c-3.9,9.1-2.1,23.5,7.9,31.8c10.3,8.5,24.3,6.5,33.1,1.7c16.2-9,16.5-29,16.5-31C533.5,534.9,521.6,519.2,503.5,512z"/>
<path id="XMLID_50_" class="st16" d="M506.5,524c-2.1,3.9-5.5,9.5-11,15c-8.5,8.5-13.6,8.3-17,14.5c-4.2,7.6-3.4,20.3,4.6,27.8
	c9.1,8.4,22.5,5.8,30.2,1.5c15.3-8.5,15.1-27.5,15.1-28.3C528,541.5,519.4,529.6,506.5,524z"/>
<path id="XMLID_24_" class="st9" d="M503.5,512c-1.6,4.4-4.4,10.8-9.5,17.5c-8.6,11.3-14.6,11.6-18,19.5c-3.9,9.1-2.1,23.5,7.9,31.8
	c10.3,8.5,24.3,6.5,33.1,1.7c16.2-9,16.5-29,16.5-31C533.5,534.9,521.6,519.2,503.5,512z"/>
<path id="XMLID_41_" class="st10" d="M525.8,609.5c-3.9-21-14.2-35.6-26.2-35.6c-12.1,0-22.3,14.6-26.2,35.6H525.8z"/>
<path id="XMLID_97_" class="st17" d="M499.6,582.5c10,0,18.9,7.5,24.5,19.4c-4.8-16.8-13.9-27.9-24.5-27.9
	c-10.5,0-19.7,11.1-24.5,27.9C480.7,590,489.6,582.5,499.6,582.5z"/>
<path id="XMLID_25_" class="st9" d="M525.8,609.5c-3.9-21-14.2-35.6-26.2-35.6c-12.1,0-22.3,14.6-26.2,35.6H525.8z"/>
<rect id="XMLID_28_" x="468" y="600.7" class="st5" width="64" height="9.2"/>
<rect id="XMLID_16_" x="468" y="600.7" class="st9" width="64" height="9.2"/>
<circle id="XMLID_52_" class="st14" cx="584.5" cy="353.5" r="10"/>
<circle id="XMLID_55_" class="st14" cx="417.5" cy="353.5" r="10"/>
<g>
	<path id="XMLID_59_" class="st18" d="M577.3,367.8l2.4-15.9c0.1,0,0.2,0,0.4,0c9.5,0,17.2-7.6,17.2-17c0-7.8-5.3-14.3-12.4-16.3
		l14.9-98c4.7-30.7-19.3-58.4-50.7-58.4H499h-50.1c-31.4,0-55.4,27.6-50.7,58.4l14.9,98c-6.9,1.4-12.4,8.6-12.4,16.3
		c0,9.4,7.7,17,17.2,17c0.1,0,0.2,0,0.4,0l2.4,15.9"/>
	<path id="XMLID_51_" class="st14" d="M512.7,170h-28.3c-2.8,0-5.1-2.3-5.1-5.1v-7.2c0-2.8,2.3-5.1,5.1-5.1h28.3
		c2.8,0,5.1,2.3,5.1,5.1v7.2C517.8,167.7,515.5,170,512.7,170z"/>
</g>
<polygon id="XMLID_67_" class="st10" points="545.8,625 454.2,625 468.1,608 532,608 "/>
<path id="XMLID_112_" class="st4" d="M464.6,612.3c8.4,4.7,21.2,7.7,35.5,7.7c14.3,0,27.1-3,35.5-7.7L532,608h-63.9L464.6,612.3z"/>
<polygon id="XMLID_61_" class="st9" points="545.8,625 454.2,625 468.1,608 532,608 "/>
<path id="XMLID_86_" class="st9" d="M596.3,615.4c-8.9,10.4-21.4,16.1-35.4,16.1H441c-14,0-26.5-5.7-35.4-16.1
	c-10.1-11.8-14.3-28.4-11.6-45.3l32.2-202.3c2.1-13.4,19-24.3,37.7-24.3H538c18.6,0,35.5,10.9,37.7,24.3L608,570.1
	C610.7,587.1,606.4,603.6,596.3,615.4z"/>
<path id="XMLID_81_" class="st14" d="M512.1,317.5h-28.5c-0.5,0-1-0.4-1-1l0,0c0-5,4-9,9-9h12.5c5,0,9,4,9,9l0,0
	C513.1,317.1,512.7,317.5,512.1,317.5z"/>
<path id="XMLID_17_" class="st15" d="M503.4,541.5c0.3,1.9,0.5,4.4,0.2,7.2c-0.2,3.1-0.9,5.8-1.6,7.8c-1-4.3-3.8-8.1-4.2-7.9
	c0,0,0,0,0,0.1c-0.2,0.9-4.9,6.8-5.8,8.1c-2.4,3.6-2.9,11.3,1.3,15.3c3.6,3.4,9.6,3.2,13.6,1.2c6.7-3.4,8-12.3,6.9-18.2
	C512.1,546.5,504.7,542.2,503.4,541.5z"/>
<path id="XMLID_27_" class="st9" d="M503.4,541.5c0.3,1.9,0.5,4.4,0.2,7.2c-0.2,3.1-0.9,5.8-1.6,7.8c-1-4.3-3.8-8.1-4.2-7.9
	c0,0,0,0,0,0.1c-0.2,0.9-4.9,6.8-5.8,8.1c-2.4,3.6-2.9,11.3,1.3,15.3c3.6,3.4,9.6,3.2,13.6,1.2c6.7-3.4,8-12.3,6.9-18.2
	C512.1,546.5,504.7,542.2,503.4,541.5z"/>
</svg>
